<svg width="200" height="200" viewBox="0 0 200 200" fill="none" xmlns="http://www.w3.org/2000/svg">
<circle cx="100" cy="100" r="100" fill="#24272E"/>
<circle cx="170" cy="170" r="30" fill="#1A2A42"/>
<path d="M173.386 158.819C174.154 158.437 175.057 158.323 175.95 158.563C177.895 159.084 179.05 161.083 178.528 163.028L175.563 174.096C175.042 176.041 173.043 177.195 171.098 176.674C169.153 176.153 167.998 174.154 168.52 172.209L169.706 167.782C169.84 167.282 169.543 166.767 169.043 166.633C168.543 166.499 168.029 166.796 167.895 167.296L166.709 171.724C165.919 174.669 167.667 177.696 170.612 178.485C173.558 179.274 176.585 177.526 177.374 174.581L180.34 163.513C181.129 160.568 179.381 157.541 176.436 156.752C175.084 156.39 173.713 156.562 172.551 157.14C171.839 157.494 171.204 158.001 170.698 158.631C170.374 159.035 170.439 159.625 170.843 159.949C171.246 160.273 171.837 160.208 172.16 159.804C172.494 159.389 172.913 159.054 173.386 158.819Z" fill="#1573FE"/>
<path d="M165.279 166.595C165.8 164.65 167.799 163.496 169.744 164.017C171.689 164.539 172.843 166.538 172.322 168.483L171.136 172.91C171.002 173.41 171.298 173.924 171.799 174.058C172.299 174.192 172.813 173.895 172.947 173.395L174.133 168.968C174.922 166.023 173.174 162.995 170.229 162.206C167.284 161.417 164.257 163.165 163.468 166.11L160.502 177.178C159.713 180.123 161.461 183.15 164.406 183.94C165.758 184.302 167.129 184.129 168.291 183.551C169.003 183.197 169.638 182.691 170.144 182.06C170.468 181.656 170.403 181.066 169.999 180.742C169.595 180.418 169.005 180.483 168.681 180.887C168.348 181.302 167.928 181.638 167.456 181.872C166.688 182.254 165.785 182.368 164.891 182.128C162.946 181.607 161.792 179.608 162.313 177.663L165.279 166.595Z" fill="#1573FE"/>
<path d="M115.152 100.474C113.426 100.474 112.027 101.873 112.027 103.599C112.027 105.325 113.426 106.724 115.152 106.724H126.515C128.241 106.724 129.64 105.325 129.64 103.599C129.64 101.873 128.241 100.474 126.515 100.474H115.152Z" fill="#1573FE"/>
<path fill-rule="evenodd" clip-rule="evenodd" d="M131.865 64.073C132.187 65.9228 132.265 68.1211 132.287 70.6362C132.648 70.8247 133.003 71.0254 133.352 71.239C136.575 73.2145 139.286 75.9249 141.261 79.1487C143.436 82.6981 144.227 86.8117 144.554 92.0402C144.792 95.8438 144.792 100.47 144.792 106.152V106.27C144.792 109.528 144.792 112.431 144.749 115.014C144.616 123.047 144.095 128.727 141.261 133.352C139.286 136.575 136.575 139.286 133.352 141.261C130.273 143.148 126.781 143.989 122.516 144.394C118.332 144.792 113.095 144.792 106.414 144.792H93.586C86.9054 144.792 81.6679 144.792 77.4839 144.394C73.2191 143.989 69.727 143.148 66.6485 141.261C63.4248 139.286 60.7144 136.575 58.7389 133.352C56.8524 130.273 56.0117 126.781 55.6062 122.516C55.2084 118.332 55.2084 113.095 55.2084 106.414L55.2087 104.224C55.1538 102.165 55.1707 99.8627 55.1889 97.3808C55.1985 96.0726 55.2084 94.7144 55.2084 93.3153L55.2084 93.1346C55.2084 86.0003 55.2083 80.4011 55.6702 75.9572C56.1412 71.4247 57.1207 67.7278 59.3298 64.5579C60.6644 62.6427 62.2836 60.9532 64.1308 59.5541C67.2071 57.2239 70.807 56.1881 75.1971 55.6922C79.4801 55.2084 84.8683 55.2085 91.6937 55.2085L114.477 55.2085C117.805 55.2084 120.625 55.2082 122.873 55.5234C125.275 55.86 127.479 56.6088 129.242 58.4472C130.773 60.0429 131.498 61.968 131.865 64.073ZM114.258 61.4585C117.865 61.4585 120.242 61.4657 122.006 61.7129C123.665 61.9455 124.311 62.3351 124.731 62.7736C125.12 63.1791 125.471 63.7913 125.707 65.1463C125.865 66.0522 125.951 67.1595 125.997 68.576C124.277 68.2612 122.421 68.0672 120.4 67.9425C116.608 67.7085 112 67.7085 106.347 67.7085H93.5861C86.9053 67.7085 81.668 67.7085 77.4839 68.1063C73.2191 68.5118 69.727 69.3526 66.6485 71.239C64.989 72.256 63.4656 73.4677 62.1083 74.8439C62.5657 71.8133 63.3146 69.7712 64.4574 68.1314C65.4223 66.7468 66.5866 65.5345 67.9045 64.5362C69.7284 63.1547 72.0736 62.3348 75.8986 61.9027C79.79 61.4632 84.8253 61.4585 91.8879 61.4585H114.258ZM69.9142 76.568C71.8455 75.3845 74.2681 74.6902 78.0754 74.3282C81.9292 73.9618 86.8699 73.9585 93.7501 73.9585H106.25C112.019 73.9585 116.437 73.9599 120.015 74.1806C123.589 74.4011 126.088 74.8311 128.057 75.5791C128.795 75.8593 129.463 76.186 130.086 76.568C132.469 78.0282 134.472 80.0315 135.932 82.4143C136.96 84.0911 137.615 86.1293 138.007 89.1101H115.152C107.15 89.1101 100.663 95.5969 100.663 103.599C100.663 111.601 107.15 118.087 115.152 118.087H138.414C138.173 124.172 137.509 127.513 135.932 130.086C134.472 132.469 132.469 134.472 130.086 135.932C128.155 137.116 125.732 137.81 121.925 138.172C118.071 138.539 113.13 138.542 106.25 138.542H93.7501C86.8699 138.542 81.9292 138.539 78.0754 138.172C74.2681 137.81 71.8455 137.116 69.9142 135.932C67.5314 134.472 65.5281 132.469 64.0679 130.086C62.8844 128.155 62.1901 125.732 61.8281 121.925C61.4617 118.071 61.4584 113.13 61.4584 106.25C61.4584 99.37 61.4617 94.4294 61.8281 90.5755C62.1901 86.7682 62.8844 84.3456 64.0679 82.4143C65.5281 80.0315 67.5314 78.0282 69.9142 76.568ZM106.913 103.599C106.913 99.0487 110.602 95.3601 115.152 95.3601H138.448C138.541 98.3764 138.542 101.935 138.542 106.25C138.542 108.266 138.542 110.121 138.532 111.837H115.152C110.602 111.837 106.913 108.149 106.913 103.599Z" fill="#1573FE"/>
</svg>
