<svg width="30" height="30" viewBox="0 0 30 30" fill="none" xmlns="http://www.w3.org/2000/svg">
<path fill-rule="evenodd" clip-rule="evenodd" d="M14.9999 0.664062C22.916 0.664062 29.3333 7.08131 29.3333 14.9974C29.3333 22.9135 22.916 29.3307 14.9999 29.3307C7.08384 29.3307 0.666588 22.9135 0.666588 14.9974C0.666588 7.08131 7.08384 0.664062 14.9999 0.664062Z" fill="#1B2028"/>
<path fill-rule="evenodd" clip-rule="evenodd" d="M14.9999 0.664062C22.916 0.664062 29.3333 7.08131 29.3333 14.9974C29.3333 22.9135 22.916 29.3307 14.9999 29.3307C7.08384 29.3307 0.666588 22.9135 0.666588 14.9974C0.666588 7.08131 7.08384 0.664062 14.9999 0.664062ZM27.3333 14.9974C27.3333 8.18588 21.8114 2.66406 14.9999 2.66406C8.18841 2.66406 2.66659 8.18588 2.66659 14.9974C2.66659 21.8089 8.18841 27.3307 14.9999 27.3307C21.8114 27.3307 27.3333 21.8089 27.3333 14.9974Z" fill="white"/>
<path d="M20.114 8.85597C20.4714 8.52509 21.0483 8.5275 21.4025 8.86134C21.7567 9.19518 21.7542 9.73404 21.3968 10.0649L19.2551 12.0477C18.3859 12.8524 17.7897 13.4062 17.3862 13.8754C16.9943 14.3312 16.8599 14.624 16.8241 14.8863C16.8016 15.0509 16.8016 15.2175 16.8241 15.3821C16.8599 15.6444 16.9943 15.9371 17.3862 16.393C17.7897 16.8622 18.3859 17.416 19.2551 18.2207L21.3968 20.2035C21.7542 20.5344 21.7567 21.0732 21.4025 21.4071C21.0483 21.7409 20.4714 21.7433 20.114 21.4124L17.9337 19.3939C17.1126 18.6337 16.4414 18.0124 15.9654 17.4588C15.4705 16.8831 15.1122 16.2988 15.0165 15.5974C14.9745 15.2898 14.9745 14.9786 15.0165 14.671C15.1122 13.9696 15.4705 13.3853 15.9654 12.8096C16.4414 12.256 17.1126 11.6347 17.9337 10.8745L20.114 8.85597Z" fill="white"/>
<path d="M13.1289 8.57472C13.4863 8.24384 14.0632 8.24625 14.4174 8.58009C14.7716 8.91393 14.7691 9.45279 14.4117 9.78366L12.27 11.7664C11.4008 12.5711 10.8046 13.1249 10.4011 13.5942C10.0092 14.05 9.87477 14.3428 9.83899 14.605C9.81652 14.7696 9.81652 14.9362 9.83899 15.1009C9.87477 15.3631 10.0092 15.6559 10.4011 16.1117C10.8046 16.581 11.4008 17.1348 12.27 17.9395L14.4117 19.9222C14.7691 20.2531 14.7716 20.792 14.4174 21.1258C14.0632 21.4597 13.4863 21.4621 13.1289 21.1312L10.9486 19.1127C10.1275 18.3525 9.45631 17.7311 8.98034 17.1775C8.48539 16.6018 8.1271 16.0175 8.03139 15.3161C7.98942 15.0086 7.98942 14.6973 8.03139 14.3898C8.1271 13.6884 8.48539 13.1041 8.98034 12.5284C9.45631 11.9747 10.1275 11.3534 10.9486 10.5932L13.1289 8.57472Z" fill="white"/>
</svg>
