<svg width="32" height="32" viewBox="0 0 32 32" fill="none" xmlns="http://www.w3.org/2000/svg">
<path fill-rule="evenodd" clip-rule="evenodd" d="M15.9998 1.66406C8.08376 1.66406 1.6665 8.08131 1.6665 15.9974C1.6665 23.9135 8.08376 30.3307 15.9998 30.3307C23.9159 30.3307 30.3332 23.9135 30.3332 15.9974C30.3332 8.08131 23.9159 1.66406 15.9998 1.66406Z" fill="#1B2028"/>
<path fill-rule="evenodd" clip-rule="evenodd" d="M15.9998 1.66406C8.08376 1.66406 1.6665 8.08131 1.6665 15.9974C1.6665 23.9135 8.08376 30.3307 15.9998 30.3307C23.9159 30.3307 30.3332 23.9135 30.3332 15.9974C30.3332 8.08131 23.9159 1.66406 15.9998 1.66406ZM3.6665 15.9974C3.6665 9.18588 9.18832 3.66406 15.9998 3.66406C22.8113 3.66406 28.3332 9.18588 28.3332 15.9974C28.3332 22.8089 22.8113 28.3307 15.9998 28.3307C9.18832 28.3307 3.6665 22.8089 3.6665 15.9974Z" fill="white"/>
<path d="M10.8855 9.85597C10.5281 9.52509 9.95122 9.5275 9.597 9.86134C9.24278 10.1952 9.24535 10.734 9.60275 11.0649L11.7444 13.0477C12.6136 13.8524 13.2099 14.4062 13.6133 14.8754C14.0052 15.3312 14.1396 15.624 14.1754 15.8863C14.1979 16.0509 14.1979 16.2175 14.1754 16.3821C14.1396 16.6444 14.0052 16.9371 13.6133 17.393C13.2099 17.8622 12.6136 18.416 11.7444 19.2207L9.60275 21.2035C9.24535 21.5344 9.24278 22.0732 9.597 22.4071C9.95122 22.7409 10.5281 22.7433 10.8855 22.4124L13.0658 20.3939C13.8869 19.6337 14.5581 19.0124 15.0341 18.4588C15.529 17.8831 15.8873 17.2988 15.983 16.5974C16.025 16.2898 16.025 15.9786 15.983 15.671C15.8873 14.9696 15.529 14.3853 15.0341 13.8096C14.5581 13.256 13.887 12.6347 13.0658 11.8745L10.8855 9.85597Z" fill="white"/>
<path d="M17.8708 9.57472C17.5134 9.24384 16.9366 9.24625 16.5823 9.58009C16.2281 9.91393 16.2307 10.4528 16.5881 10.7837L18.7298 12.7664C19.599 13.5711 20.1952 14.1249 20.5986 14.5942C20.9905 15.05 21.125 15.3428 21.1608 15.605C21.1832 15.7696 21.1832 15.9362 21.1608 16.1009C21.125 16.3631 20.9905 16.6559 20.5986 17.1117C20.1952 17.581 19.599 18.1348 18.7298 18.9395L16.5881 20.9222C16.2307 21.2531 16.2281 21.792 16.5823 22.1258C16.9366 22.4596 17.5134 22.4621 17.8708 22.1312L20.0511 20.1127C20.8723 19.3525 21.5434 18.7311 22.0194 18.1775C22.5144 17.6018 22.8727 17.0175 22.9684 16.3161C23.0103 16.0086 23.0103 15.6973 22.9684 15.3898C22.8727 14.6884 22.5144 14.1041 22.0194 13.5284C21.5434 12.9747 20.8723 12.3534 20.0511 11.5932L17.8708 9.57472Z" fill="white"/>
</svg>
