<svg width="14" height="16" viewBox="0 0 14 16" fill="none" xmlns="http://www.w3.org/2000/svg">
<path d="M7.5 6.66683C7.5 6.39069 7.27614 6.16683 7 6.16683C6.72386 6.16683 6.5 6.39069 6.5 6.66683V8.16683H5C4.72386 8.16683 4.5 8.39069 4.5 8.66683C4.5 8.94297 4.72386 9.16683 5 9.16683H6.5V10.6668C6.5 10.943 6.72386 11.1668 7 11.1668C7.27614 11.1668 7.5 10.943 7.5 10.6668V9.16683H9C9.27614 9.16683 9.5 8.94297 9.5 8.66683C9.5 8.39069 9.27614 8.16683 9 8.16683H7.5V6.66683Z" fill="#1573FE"/>
<path fill-rule="evenodd" clip-rule="evenodd" d="M9.01712 0.853075C8.44565 0.833496 7.78075 0.833496 7.00738 0.833496H6.96983C5.74548 0.833491 4.78574 0.833486 4.02432 0.915982C3.24729 1.00017 2.61771 1.17505 2.08016 1.5656C1.75473 1.80204 1.46854 2.08822 1.2321 2.41365C0.841549 2.9512 0.666671 3.58079 0.582485 4.35781C0.49999 5.11924 0.499995 6.07897 0.5 7.30333V8.697C0.499995 9.92135 0.49999 10.8811 0.582485 11.6425C0.666671 12.4195 0.841549 13.0491 1.2321 13.5867C1.46854 13.9121 1.75473 14.1983 2.08016 14.4347C2.61771 14.8253 3.24729 15.0002 4.02432 15.0843C4.78573 15.1668 5.74544 15.1668 6.96977 15.1668H7.03018C8.25451 15.1668 9.21427 15.1668 9.97568 15.0843C10.7527 15.0002 11.3823 14.8253 11.9198 14.4347C12.2453 14.1983 12.5315 13.9121 12.7679 13.5867C13.1585 13.0491 13.3333 12.4195 13.4175 11.6425C13.5 10.8811 13.5 9.92139 13.5 8.69706V7.32615C13.5 6.55277 13.5 5.88785 13.4804 5.31638C13.4376 4.06741 13.3025 3.14943 12.7679 2.41365C12.5315 2.08822 12.2453 1.80204 11.9198 1.5656C11.1841 1.03103 10.2661 0.895866 9.01712 0.853075ZM2.66794 2.37461C3.00661 2.12856 3.44009 1.98513 4.13203 1.91016C4.83333 1.83418 5.73895 1.8335 7 1.8335C7.56557 1.8335 8.06119 1.83353 8.50122 1.84071C8.50413 2.15714 8.51398 2.39009 8.5472 2.59983C8.80699 4.24008 10.0934 5.52651 11.7337 5.7863C11.9434 5.81952 12.1764 5.82937 12.4928 5.83228C12.5 6.27231 12.5 6.76793 12.5 7.3335V8.66683C12.5 9.92788 12.4993 10.8335 12.4233 11.5348C12.3484 12.2267 12.2049 12.6602 11.9589 12.9989C11.7841 13.2394 11.5726 13.451 11.3321 13.6257C10.9934 13.8718 10.5599 14.0152 9.86797 14.0902C9.16667 14.1661 8.26105 14.1668 7 14.1668C5.73895 14.1668 4.83333 14.1661 4.13203 14.0902C3.44009 14.0152 3.00661 13.8718 2.66794 13.6257C2.42741 13.451 2.21588 13.2394 2.04112 12.9989C1.79506 12.6602 1.65163 12.2267 1.57667 11.5348C1.50069 10.8335 1.5 9.92788 1.5 8.66683V7.3335C1.5 6.07245 1.50069 5.16682 1.57667 4.46553C1.65163 3.77359 1.79506 3.34011 2.04112 3.00144C2.21588 2.7609 2.42741 2.54937 2.66794 2.37461ZM9.53488 2.44339C9.51323 2.3067 9.50498 2.14842 9.50186 1.87846C10.4087 1.94097 10.9324 2.08426 11.3321 2.37461C11.5726 2.54937 11.7841 2.7609 11.9589 3.00144C12.2492 3.40107 12.3925 3.92475 12.455 4.83164C12.1851 4.82852 12.0268 4.82026 11.8901 4.79861C10.6777 4.60659 9.7269 3.65576 9.53488 2.44339Z" fill="#1573FE"/>
</svg>
