<svg width="14" height="16" viewBox="0 0 14 16" fill="none" xmlns="http://www.w3.org/2000/svg">
<path d="M4.33333 4.83325C4.05719 4.83325 3.83333 5.05711 3.83333 5.33325C3.83333 5.60939 4.05719 5.83325 4.33333 5.83325H6.33333C6.60948 5.83325 6.83333 5.60939 6.83333 5.33325C6.83333 5.05711 6.60948 4.83325 6.33333 4.83325H4.33333Z"/>
<path d="M4.33333 7.49992C4.05719 7.49992 3.83333 7.72378 3.83333 7.99992C3.83333 8.27606 4.05719 8.49992 4.33333 8.49992H9.66667C9.94281 8.49992 10.1667 8.27606 10.1667 7.99992C10.1667 7.72378 9.94281 7.49992 9.66667 7.49992H4.33333Z"/>
<path d="M4.33333 10.1666C4.05719 10.1666 3.83333 10.3904 3.83333 10.6666C3.83333 10.9427 4.05719 11.1666 4.33333 11.1666H6.33333C6.60948 11.1666 6.83333 10.9427 6.83333 10.6666C6.83333 10.3904 6.60948 10.1666 6.33333 10.1666H4.33333Z"/>
<path fill-rule="evenodd" clip-rule="evenodd" d="M9.01712 0.852831C8.44565 0.833252 7.78075 0.833252 7.00738 0.833252H6.96983C5.74548 0.833247 4.78574 0.833242 4.02432 0.915737C3.24729 0.999923 2.61771 1.1748 2.08016 1.56535C1.75473 1.80179 1.46854 2.08798 1.2321 2.41341C0.841549 2.95096 0.666671 3.58054 0.582485 4.35757C0.49999 5.11899 0.499995 6.07873 0.5 7.30308V8.69675C0.499995 9.92111 0.49999 10.8808 0.582485 11.6423C0.666671 12.4193 0.841549 13.0489 1.2321 13.5864C1.46854 13.9119 1.75473 14.198 2.08016 14.4345C2.61771 14.825 3.24729 14.9999 4.02432 15.0841C4.78573 15.1666 5.74544 15.1666 6.96977 15.1666H7.03018C8.25451 15.1666 9.21427 15.1666 9.97568 15.0841C10.7527 14.9999 11.3823 14.825 11.9198 14.4345C12.2453 14.198 12.5315 13.9119 12.7679 13.5864C13.1585 13.0489 13.3333 12.4193 13.4175 11.6423C13.5 10.8809 13.5 9.92114 13.5 8.69682V7.32591C13.5 6.55253 13.5 5.88761 13.4804 5.31613C13.4376 4.06717 13.3025 3.14918 12.7679 2.41341C12.5315 2.08798 12.2453 1.80179 11.9198 1.56535C11.1841 1.03078 10.2661 0.895622 9.01712 0.852831ZM2.66794 2.37437C3.00661 2.12831 3.44009 1.98489 4.13203 1.90992C4.83333 1.83394 5.73895 1.83325 7 1.83325C7.56557 1.83325 8.06119 1.83328 8.50122 1.84046C8.50413 2.1569 8.51398 2.38985 8.5472 2.59958C8.80699 4.23984 10.0934 5.52627 11.7337 5.78606C11.9434 5.81928 12.1764 5.82912 12.4928 5.83204C12.5 6.27206 12.5 6.76769 12.5 7.33325V8.66658C12.5 9.92763 12.4993 10.8333 12.4233 11.5346C12.3484 12.2265 12.2049 12.66 11.9589 12.9986C11.7841 13.2392 11.5726 13.4507 11.3321 13.6255C10.9934 13.8715 10.5599 14.015 9.86797 14.0899C9.16667 14.1659 8.26105 14.1666 7 14.1666C5.73895 14.1666 4.83333 14.1659 4.13203 14.0899C3.44009 14.015 3.00661 13.8715 2.66794 13.6255C2.42741 13.4507 2.21588 13.2392 2.04112 12.9986C1.79506 12.66 1.65163 12.2265 1.57667 11.5346C1.50069 10.8333 1.5 9.92763 1.5 8.66658V7.33325C1.5 6.0722 1.50069 5.16658 1.57667 4.46528C1.65163 3.77334 1.79506 3.33986 2.04112 3.00119C2.21588 2.76066 2.42741 2.54913 2.66794 2.37437ZM9.53488 2.44315C9.51323 2.30646 9.50498 2.14817 9.50186 1.87821C10.4087 1.94073 10.9324 2.08402 11.3321 2.37437C11.5726 2.54913 11.7841 2.76066 11.9589 3.00119C12.2492 3.40083 12.3925 3.9245 12.455 4.8314C12.1851 4.82828 12.0268 4.82002 11.8901 4.79837C10.6777 4.60635 9.7269 3.65551 9.53488 2.44315Z"/>
</svg>
