<svg width="28" height="27" viewBox="0 0 28 27" fill="none" xmlns="http://www.w3.org/2000/svg">
<path d="M13.9414 13.4023C12.1081 13.4023 10.6081 12.819 9.44143 11.6523C8.27476 10.4857 7.69143 8.98568 7.69143 7.15234C7.69143 5.31901 8.27476 3.81901 9.44143 2.65234C10.6081 1.48568 12.1081 0.902344 13.9414 0.902344C15.7748 0.902344 17.2748 1.48568 18.4414 2.65234C19.6081 3.81901 20.1914 5.31901 20.1914 7.15234C20.1914 8.98568 19.6081 10.4857 18.4414 11.6523C17.2748 12.819 15.7748 13.4023 13.9414 13.4023ZM0.608093 26.7773V22.8607C0.608093 21.8051 0.871982 20.9023 1.39976 20.1523C1.92754 19.4023 2.60809 18.8329 3.44143 18.444C5.30254 17.6107 7.08726 16.9857 8.79559 16.569C10.5039 16.1523 12.2192 15.944 13.9414 15.944C15.6636 15.944 17.372 16.1593 19.0664 16.5898C20.7609 17.0204 22.5386 17.6385 24.3998 18.444C25.2609 18.8329 25.9553 19.4023 26.4831 20.1523C27.0109 20.9023 27.2748 21.8051 27.2748 22.8607V26.7773H0.608093ZM3.10809 24.2773H24.7748V22.8607C24.7748 22.4162 24.6428 21.9926 24.3789 21.5898C24.115 21.1871 23.7886 20.8885 23.3998 20.694C21.622 19.8329 19.997 19.2426 18.5248 18.9232C17.0525 18.6037 15.5248 18.444 13.9414 18.444C12.3581 18.444 10.8164 18.6037 9.31643 18.9232C7.81643 19.2426 6.19143 19.8329 4.44143 20.694C4.05254 20.8885 3.73309 21.1871 3.48309 21.5898C3.23309 21.9926 3.10809 22.4162 3.10809 22.8607V24.2773ZM13.9414 10.9023C15.0248 10.9023 15.9206 10.5482 16.6289 9.83984C17.3373 9.13151 17.6914 8.23568 17.6914 7.15234C17.6914 6.06901 17.3373 5.17318 16.6289 4.46484C15.9206 3.75651 15.0248 3.40234 13.9414 3.40234C12.8581 3.40234 11.9623 3.75651 11.2539 4.46484C10.5456 5.17318 10.1914 6.06901 10.1914 7.15234C10.1914 8.23568 10.5456 9.13151 11.2539 9.83984C11.9623 10.5482 12.8581 10.9023 13.9414 10.9023Z" fill="#615F5F"/>
</svg>
