<svg width="12" height="12" viewBox="0 0 12 12" fill="none" xmlns="http://www.w3.org/2000/svg">
<path fill-rule="evenodd" clip-rule="evenodd" d="M3.43008 0.180595C3.22701 0.16674 2.97965 0.166743 2.68335 0.166748H2.64967C2.35337 0.166743 2.106 0.16674 1.90293 0.180595C1.69153 0.195019 1.49184 0.226114 1.29825 0.306303C0.849033 0.492375 0.492131 0.849277 0.306059 1.2985C0.22587 1.49209 0.194775 1.69177 0.180351 1.90317C0.166495 2.10625 0.166499 2.3536 0.166504 2.64991V2.68358C0.166499 2.97989 0.166495 3.22725 0.180351 3.43033C0.194775 3.64173 0.22587 3.84141 0.306059 4.035C0.492131 4.48422 0.849033 4.84112 1.29825 5.02719C1.49184 5.10738 1.69153 5.13848 1.90293 5.1529C2.106 5.16676 2.35336 5.16675 2.64967 5.16675H2.68334C2.97965 5.16675 3.22701 5.16676 3.43008 5.1529C3.64148 5.13848 3.84117 5.10738 4.03476 5.02719C4.48398 4.84112 4.84088 4.48422 5.02695 4.035C5.10714 3.84141 5.13823 3.64173 5.15266 3.43033C5.16651 3.22725 5.16651 2.97989 5.1665 2.68359V2.64991C5.16651 2.3536 5.16651 2.10625 5.15266 1.90317C5.13823 1.69177 5.10714 1.49209 5.02695 1.2985C4.84088 0.849277 4.48398 0.492375 4.03476 0.306303C3.84117 0.226114 3.64148 0.195019 3.43008 0.180595ZM1.68093 1.23018C1.73237 1.20888 1.81051 1.18923 1.971 1.17828C2.13597 1.16702 2.34904 1.16675 2.6665 1.16675C2.98397 1.16675 3.19703 1.16702 3.36201 1.17828C3.52249 1.18923 3.60064 1.20888 3.65207 1.23018C3.85626 1.31476 4.01849 1.47699 4.10307 1.68118C4.12438 1.73261 4.14403 1.81076 4.15498 1.97124C4.16623 2.13622 4.1665 2.34928 4.1665 2.66675C4.1665 2.98422 4.16623 3.19728 4.15498 3.36225C4.14403 3.52274 4.12438 3.60088 4.10307 3.65232C4.01849 3.85651 3.85626 4.01874 3.65207 4.10332C3.60064 4.12462 3.52249 4.14427 3.36201 4.15522C3.19703 4.16648 2.98397 4.16675 2.6665 4.16675C2.34904 4.16675 2.13597 4.16648 1.971 4.15522C1.81051 4.14427 1.73237 4.12462 1.68093 4.10332C1.47674 4.01874 1.31452 3.85651 1.22994 3.65232C1.20863 3.60088 1.18898 3.52274 1.17803 3.36225C1.16678 3.19728 1.1665 2.98422 1.1665 2.66675C1.1665 2.34928 1.16678 2.13622 1.17803 1.97124C1.18898 1.81076 1.20863 1.73261 1.22994 1.68118C1.31452 1.47699 1.47674 1.31476 1.68093 1.23018Z" />
<path fill-rule="evenodd" clip-rule="evenodd" d="M10.0967 0.180595C9.89367 0.16674 9.64632 0.166743 9.35001 0.166748H9.31634C9.02003 0.166743 8.77267 0.16674 8.5696 0.180595C8.3582 0.195019 8.15851 0.226114 7.96492 0.306303C7.5157 0.492375 7.1588 0.849277 6.97273 1.2985C6.89254 1.49209 6.86144 1.69177 6.84702 1.90317C6.83316 2.10625 6.83317 2.3536 6.83317 2.64991V2.68359C6.83317 2.97989 6.83316 3.22725 6.84702 3.43033C6.86144 3.64173 6.89254 3.84141 6.97273 4.035C7.1588 4.48422 7.5157 4.84112 7.96492 5.02719C8.15851 5.10738 8.3582 5.13848 8.5696 5.1529C8.77267 5.16676 9.02003 5.16675 9.31633 5.16675H9.35001C9.64632 5.16675 9.89367 5.16676 10.0967 5.1529C10.3081 5.13848 10.5078 5.10738 10.7014 5.02719C11.1506 4.84112 11.5075 4.48422 11.6936 4.035C11.7738 3.84141 11.8049 3.64173 11.8193 3.43033C11.8332 3.22725 11.8332 2.97989 11.8332 2.68359V2.64991C11.8332 2.3536 11.8332 2.10625 11.8193 1.90317C11.8049 1.69177 11.7738 1.49209 11.6936 1.2985C11.5075 0.849277 11.1506 0.492375 10.7014 0.306303C10.5078 0.226114 10.3081 0.195019 10.0967 0.180595ZM8.3476 1.23018C8.39904 1.20888 8.47718 1.18923 8.63767 1.17828C8.80264 1.16702 9.0157 1.16675 9.33317 1.16675C9.65064 1.16675 9.8637 1.16702 10.0287 1.17828C10.1892 1.18923 10.2673 1.20888 10.3187 1.23018C10.5229 1.31476 10.6852 1.47699 10.7697 1.68118C10.791 1.73261 10.8107 1.81076 10.8216 1.97124C10.8329 2.13622 10.8332 2.34928 10.8332 2.66675C10.8332 2.98422 10.8329 3.19728 10.8216 3.36225C10.8107 3.52274 10.791 3.60088 10.7697 3.65232C10.6852 3.85651 10.5229 4.01874 10.3187 4.10332C10.2673 4.12462 10.1892 4.14427 10.0287 4.15522C9.8637 4.16648 9.65064 4.16675 9.33317 4.16675C9.0157 4.16675 8.80264 4.16648 8.63767 4.15522C8.47718 4.14427 8.39904 4.12462 8.3476 4.10332C8.14341 4.01874 7.98118 3.85651 7.8966 3.65232C7.8753 3.60088 7.85565 3.52274 7.8447 3.36225C7.83344 3.19728 7.83317 2.98422 7.83317 2.66675C7.83317 2.34928 7.83344 2.13622 7.8447 1.97124C7.85565 1.81076 7.8753 1.73261 7.8966 1.68118C7.98118 1.47699 8.14341 1.31476 8.3476 1.23018Z" />
<path fill-rule="evenodd" clip-rule="evenodd" d="M3.43008 6.84726C3.22701 6.83341 2.97965 6.83341 2.68334 6.83342H2.64967C2.35336 6.83341 2.106 6.83341 1.90293 6.84726C1.69153 6.86169 1.49184 6.89278 1.29825 6.97297C0.849033 7.15904 0.492131 7.51594 0.306059 7.96516C0.22587 8.15876 0.194775 8.35844 0.180351 8.56984C0.166495 8.77291 0.166499 9.02027 0.166504 9.31657V9.35025C0.166499 9.64655 0.166495 9.89392 0.180351 10.097C0.194775 10.3084 0.22587 10.5081 0.306059 10.7017C0.492131 11.1509 0.849033 11.5078 1.29825 11.6939C1.49184 11.774 1.69153 11.8051 1.90293 11.8196C2.106 11.8334 2.35336 11.8334 2.64967 11.8334H2.68334C2.97965 11.8334 3.22701 11.8334 3.43008 11.8196C3.64148 11.8051 3.84117 11.774 4.03476 11.6939C4.48398 11.5078 4.84088 11.1509 5.02695 10.7017C5.10714 10.5081 5.13823 10.3084 5.15266 10.097C5.16651 9.89392 5.16651 9.64656 5.1665 9.35025V9.31658C5.16651 9.02027 5.16651 8.77291 5.15266 8.56984C5.13823 8.35844 5.10714 8.15876 5.02695 7.96516C4.84088 7.51594 4.48398 7.15904 4.03476 6.97297C3.84117 6.89278 3.64148 6.86169 3.43008 6.84726ZM1.68093 7.89685C1.73237 7.87554 1.81051 7.85589 1.971 7.84494C2.13597 7.83369 2.34904 7.83342 2.6665 7.83342C2.98397 7.83342 3.19703 7.83369 3.36201 7.84494C3.52249 7.85589 3.60064 7.87554 3.65207 7.89685C3.85626 7.98143 4.01849 8.14366 4.10307 8.34785C4.12438 8.39928 4.14403 8.47743 4.15498 8.63791C4.16623 8.80289 4.1665 9.01595 4.1665 9.33342C4.1665 9.65088 4.16623 9.86395 4.15498 10.0289C4.14403 10.1894 4.12438 10.2675 4.10307 10.319C4.01849 10.5232 3.85626 10.6854 3.65207 10.77C3.60064 10.7913 3.52249 10.8109 3.36201 10.8219C3.19703 10.8331 2.98397 10.8334 2.6665 10.8334C2.34904 10.8334 2.13597 10.8331 1.971 10.8219C1.81051 10.8109 1.73237 10.7913 1.68093 10.77C1.47675 10.6854 1.31452 10.5232 1.22994 10.319C1.20863 10.2675 1.18898 10.1894 1.17803 10.0289C1.16678 9.86395 1.1665 9.65088 1.1665 9.33342C1.1665 9.01595 1.16678 8.80289 1.17803 8.63791C1.18898 8.47743 1.20863 8.39928 1.22994 8.34785C1.31452 8.14366 1.47675 7.98143 1.68093 7.89685Z" />
<path fill-rule="evenodd" clip-rule="evenodd" d="M10.0967 6.84726C9.89367 6.83341 9.64632 6.83341 9.35001 6.83342H9.31633C9.02003 6.83341 8.77267 6.83341 8.5696 6.84726C8.3582 6.86169 8.15851 6.89278 7.96492 6.97297C7.5157 7.15904 7.1588 7.51594 6.97273 7.96516C6.89254 8.15876 6.86144 8.35844 6.84702 8.56984C6.83316 8.77291 6.83317 9.02027 6.83317 9.31658V9.35025C6.83317 9.64656 6.83316 9.89392 6.84702 10.097C6.86144 10.3084 6.89254 10.5081 6.97273 10.7017C7.1588 11.1509 7.5157 11.5078 7.96492 11.6939C8.15851 11.774 8.3582 11.8051 8.5696 11.8196C8.77267 11.8334 9.02003 11.8334 9.31633 11.8334H9.35001C9.64632 11.8334 9.89367 11.8334 10.0967 11.8196C10.3081 11.8051 10.5078 11.774 10.7014 11.6939C11.1506 11.5078 11.5075 11.1509 11.6936 10.7017C11.7738 10.5081 11.8049 10.3084 11.8193 10.097C11.8332 9.89392 11.8332 9.64656 11.8332 9.35025V9.31658C11.8332 9.02027 11.8332 8.77291 11.8193 8.56984C11.8049 8.35844 11.7738 8.15876 11.6936 7.96516C11.5075 7.51594 11.1506 7.15904 10.7014 6.97297C10.5078 6.89278 10.3081 6.86169 10.0967 6.84726ZM8.3476 7.89685C8.39904 7.87554 8.47718 7.85589 8.63767 7.84494C8.80264 7.83369 9.0157 7.83342 9.33317 7.83342C9.65064 7.83342 9.8637 7.83369 10.0287 7.84494C10.1892 7.85589 10.2673 7.87554 10.3187 7.89685C10.5229 7.98143 10.6852 8.14366 10.7697 8.34785C10.791 8.39928 10.8107 8.47743 10.8216 8.63791C10.8329 8.80289 10.8332 9.01595 10.8332 9.33342C10.8332 9.65088 10.8329 9.86395 10.8216 10.0289C10.8107 10.1894 10.791 10.2675 10.7697 10.319C10.6852 10.5232 10.5229 10.6854 10.3187 10.77C10.2673 10.7913 10.1892 10.8109 10.0287 10.8219C9.8637 10.8331 9.65064 10.8334 9.33317 10.8334C9.0157 10.8334 8.80264 10.8331 8.63767 10.8219C8.47718 10.8109 8.39904 10.7913 8.3476 10.77C8.14341 10.6854 7.98118 10.5232 7.8966 10.319C7.8753 10.2675 7.85565 10.1894 7.8447 10.0289C7.83344 9.86395 7.83317 9.65088 7.83317 9.33342C7.83317 9.01595 7.83344 8.80289 7.8447 8.63791C7.85565 8.47743 7.8753 8.39928 7.8966 8.34785C7.98118 8.14366 8.14341 7.98143 8.3476 7.89685Z" />
</svg>
