<?xml version="1.0" encoding="UTF-8"?><svg id="Layer_2" xmlns="http://www.w3.org/2000/svg" viewBox="0 0 161.08 113.64"><defs><style>.cls-1{fill:#fefefe;}</style></defs><g id="Layer_1-2"><g id="uMiTbW.tif"><g><path class="cls-1" d="M117.17,96.11c-.13-8.48-4.08-14.76-11.58-18.56-9.43-4.77-19.38-8.16-29.79-10.08-10.76-1.99-21.51-1.99-32.34-.28-11.09,1.75-21.51,5.5-31.62,10.11-6.33,2.89-10.05,8.17-11.28,15.1-.96,5.44-.34,10.92-.46,16.37-.11,4.85-.02,4.86,4.98,4.86,17.94,0,35.87,0,53.81,0s35.71,0,53.56,0c.83,0,1.66,0,2.49-.06,1.53-.13,2.32-.78,2.29-2.53-.11-4.97,.03-9.95-.05-14.93Zm-17.49,6.15H58.36c-14.77,0-29.54-.05-44.31,.05-2.39,.02-3.11-.65-3.09-3.06,.05-4.29,.54-8.3,4.09-11.23,1.94-1.6,4.36-2.34,6.62-3.33,7.93-3.44,16.07-6.2,24.72-7.08,6.67-.68,13.31-.96,20.05-.41,7.06,.58,13.95,1.65,20.62,4,4.69,1.65,9.22,3.69,13.72,5.81,3.5,1.64,5,4.56,5.38,8.06,.77,7.17,.67,7.18-6.48,7.18Z"/><path class="cls-1" d="M60.2,.04c-16.64-.87-29.66,11.91-28.76,27.1-.82,15.81,11.17,27.72,26.91,27.75,16.33,.03,27.69-10.98,27.85-27.31C86.35,11.2,74.48,.79,60.2,.04Zm-1.58,43.85c-9.69,.02-16.18-7.11-16.34-16.55-.16-9.18,8.01-17.06,16.55-16.23,9.46-.38,16.47,6.73,16.37,16.41-.1,9.48-6.4,16.35-16.57,16.37Z"/><path class="cls-1" d="M126.17,22.83c0-3.24,.05-6.47-.02-9.7-.03-1.52,.54-2.07,2.04-2.02,2.24,.08,4.49,.11,6.72,0,1.8-.1,2.26,.67,2.24,2.34-.07,6.3,.04,12.61-.07,18.91-.04,2.03,.54,2.75,2.65,2.71,6.31-.12,12.62,.02,18.93-.08,1.88-.03,2.5,.62,2.39,2.45-.13,2.07-.14,4.15,0,6.22,.13,1.93-.69,2.38-2.48,2.36-6.31-.09-12.62,.03-18.93-.07-1.96-.03-2.6,.56-2.56,2.54,.11,6.14-.05,12.28,.09,18.41,.05,1.99-.78,2.67-2.5,2.84-.16,.02-.33,.05-.49,.07-7.69,.88-8.03,.59-8.03-7.06,0-4.65-.13-9.3,.05-13.93,.09-2.38-.77-2.93-2.99-2.88-5.89,.13-11.79-.07-17.69,.1-2.38,.07-3.07-.77-2.88-2.99,.16-1.81,.16-3.66,0-5.47-.2-2.2,.81-2.62,2.76-2.59,6.06,.1,12.12-.03,18.19,.07,1.91,.03,2.69-.48,2.59-2.51-.15-3.23-.04-6.47-.04-9.7Z"/></g></g></g></svg>