<svg width="324" height="335" viewBox="0 0 324 335" fill="none" xmlns="http://www.w3.org/2000/svg">
<ellipse cx="162" cy="168.1" rx="162" ry="162.097" fill="#24272E"/>
<g clip-path="url(#clip0_881_280)">
<path d="M123.34 106.675C123.34 106.675 185.295 16.1666 260.356 25.1777C335.417 34.1888 323.37 74.8049 306.491 97.5976C289.612 120.39 182.581 233.956 179.669 242.57C176.756 251.25 204.424 276.825 194.694 288.553C184.964 300.281 122.281 339.903 98.7829 334.47C65.8859 326.85 85.2137 291.8 94.4805 284.445C94.4805 284.445 53.3095 329.036 29.0835 321.218C4.85751 313.4 2.73939 285.704 22.0672 256.882C41.3951 228.059 95.2748 147.092 123.34 106.675Z" fill="#505050"/>
<path d="M36.8281 46.8445L170.865 23.2567C175.83 22.3953 180.463 25.7745 181.191 30.7438L213.36 260.195L78.3962 284.71C73.7629 285.572 69.3942 282.391 68.7985 277.753L36.8281 46.8445Z" fill="#1B2028"/>
<path d="M133.335 59.5661L263.136 70.3661C267.041 70.6974 269.954 74.2091 269.557 78.1183L245.595 299.751C245.198 303.66 241.624 306.443 237.719 305.979L102.556 289.15C98.6507 288.686 95.9369 285.108 96.4664 281.199L125.723 65.5956C126.319 61.9514 129.628 59.3011 133.335 59.5661Z" fill="#1A2A42"/>
<g style="mix-blend-mode:multiply" opacity="0.2">
<path d="M196.349 158.754C196.349 158.754 214.419 157.76 219.052 158.754C223.686 159.748 256.451 199.503 256.451 199.503L261.547 152.062C261.547 152.062 235.865 128.938 221.634 133.907C207.403 138.877 188.604 145.237 188.604 145.237L189.995 156.17C190.061 156.17 193.635 158.887 196.349 158.754Z" fill="#1A2A42"/>
</g>
<path d="M113.014 261.123L213.228 271.724L211.639 284.777L111.359 272.453L113.014 261.123Z" fill="#5A4BFF"/>
<path d="M146.71 206.71L146.671 207.371L222.992 211.788L223.03 211.127L146.71 206.71Z" fill="#1573FE"/>
<path d="M148.78 194.788L148.742 195.449L225.063 199.866L225.101 199.205L148.78 194.788Z" fill="#1573FE"/>
<path d="M152.396 158.422L152.357 159.083L228.678 163.5L228.716 162.839L152.396 158.422Z" fill="#1573FE"/>
<path d="M151.405 74.6064L150.479 87.7918L241.492 93.8213L242.815 80.9009L151.405 74.6064Z" fill="#1573FE"/>
<path d="M147.632 95.2783L146.706 108.53L237.652 114.493L238.976 101.639L147.632 95.2783Z" fill="white"/>
<path d="M137.307 165.976L136.38 179.161L227.327 185.191L228.717 172.271L137.307 165.976Z" fill="white"/>
<g opacity="0.7">
<path opacity="0.7" d="M126.716 59.0356L185.825 63.9387L213.294 260.195L96.5327 281.397L126.716 59.0356Z" fill="#1B2028"/>
</g>
<path d="M127.51 0.662512C127.51 0.662512 118.177 -3.97554 95.9368 10.9987C73.6965 25.973 68.0703 36.4418 59.4654 42.67C50.8606 48.8983 52.4491 60.8247 64.8269 59.7646C77.2709 58.7044 99.5111 33.8577 115.596 25.5755C131.68 17.2932 138.432 3.24657 127.51 0.662512Z" fill="#8B8B8B"/>
<path d="M82.1027 6.36065C82.1027 6.36065 79.0579 4.83672 71.8431 9.73981C64.6282 14.6429 62.7749 17.9558 59.9948 20.0098C57.2148 22.0638 57.6781 25.9067 61.7158 25.5754C65.7535 25.2442 72.9683 17.1607 78.1974 14.4441C83.4266 11.7275 85.6771 7.22201 82.1027 6.36065Z" fill="#505050"/>
<path d="M33.2538 37.8329L163.386 14.9076C167.026 14.2451 170.535 16.7629 171.064 20.4733L202.637 246.015C203.101 249.527 200.784 252.774 197.276 253.436L66.8128 277.09C63.106 277.753 59.6641 275.235 59.1346 271.525L27.8261 45.1875C27.3628 41.6758 29.7456 38.4292 33.2538 37.8329Z" fill="#1573FE"/>
<path d="M54.2856 124.319L58.5881 152.346L173.298 133.992L168.664 105.501L54.2856 124.319Z" fill="#1A2A42"/>
<path d="M69.0631 268.543C67.7393 268.543 66.4155 268.146 65.2902 267.35C63.834 266.29 62.9073 264.7 62.6425 262.911L33.5184 49.9582C33.055 46.4466 35.3717 43.2662 38.8137 42.6036L159.944 21.0698C161.665 20.7385 163.386 21.136 164.842 22.1962C166.298 23.2563 167.225 24.7802 167.49 26.5692L196.945 238.793C197.408 242.305 195.158 245.485 191.716 246.148L70.2545 268.477C69.8574 268.477 69.4603 268.543 69.0631 268.543ZM161.135 21.5998C160.804 21.5998 160.473 21.5998 160.142 21.6661L39.0123 43.1999C35.9013 43.73 33.8493 46.6453 34.2465 49.7595L63.3707 262.712C63.5692 264.303 64.4297 265.76 65.7535 266.688C67.0112 267.615 68.5998 267.947 70.1884 267.682L191.583 245.419C194.628 244.823 196.746 241.974 196.283 238.86L166.828 26.6355C166.629 25.0453 165.769 23.6538 164.445 22.66C163.518 21.9311 162.327 21.5998 161.135 21.5998Z" fill="white"/>
<path d="M67.6565 159.436C67.1932 159.436 66.7299 159.104 66.6637 158.64C66.5975 158.11 66.9284 157.58 67.458 157.514L170.121 139.956C170.65 139.889 171.18 140.221 171.246 140.751C171.312 141.281 170.981 141.811 170.452 141.877L67.8551 159.436C67.7889 159.436 67.7227 159.436 67.6565 159.436Z" fill="#1A2A42"/>
<path d="M62.8247 168.049L64.9428 181.102L182.763 160.496L180.645 147.774L62.8247 168.049Z" fill="#1A2A42"/>
<g style="mix-blend-mode:multiply" opacity="0.2">
<path d="M178.345 126.685C178.345 126.685 171.395 130.329 170.733 135.763C170.071 141.196 171.262 146.165 178.345 150.008C185.494 153.785 190.061 156.236 190.061 156.236L185.825 122.18L178.345 126.685Z" fill="#1A2A42"/>
</g>
<path d="M315.559 173.927C303.181 167.169 272.8 140.003 270.417 135.1C268.1 130.197 257.576 110.054 253.604 105.615C249.633 101.176 230.834 93.1586 219.119 94.285C210.447 95.0801 196.878 108.795 194.032 111.38C191.252 113.964 184.831 117.608 180.198 120.854C175.498 124.101 175.962 128.342 175.962 128.342C175.962 128.342 177.352 131.588 179.205 131.389C181.059 131.124 202.174 121.384 207.469 126.685C210.183 129.402 207.138 134.172 195.753 138.015C193.172 138.877 184.302 137.75 181.985 139.407C179.669 141.063 181.059 146.43 190.656 148.55C200.254 150.67 208.66 151.731 213.36 150.803C218.059 149.875 226.201 147.755 230.901 149.875C235.6 151.996 291.73 218.32 291.73 218.32" fill="#FFCC99"/>
<path d="M226.4 122.909C226.4 122.909 250.03 113.633 260.951 117.078L255.656 107.603C255.656 107.603 235.402 108.729 228.716 115.289C222.031 121.782 226.4 122.909 226.4 122.909Z" fill="#FFA74F"/>
<path d="M207.27 127.679C202.902 127.679 196.415 120.656 195.621 119.861C195.224 119.463 195.29 118.801 195.687 118.469C196.084 118.072 196.746 118.138 197.077 118.535C199.725 121.451 204.954 126.023 207.469 125.691C207.999 125.625 208.528 126.023 208.594 126.553C208.661 127.083 208.263 127.613 207.734 127.679C207.535 127.613 207.403 127.679 207.27 127.679Z" fill="#FFA74F"/>
<path d="M67.6562 187.993L69.5758 201.112L142.85 189.782L140.4 177.06L67.6562 187.993Z" fill="white"/>
<path d="M73.0845 247.824L74.2097 258.293L187.198 240.072L185.279 230.133L73.0845 247.824Z" fill="white"/>
<path d="M47.4683 104.905L49.5864 118.024L168.665 98.3457L166.017 85.6904L47.4683 104.905Z" fill="white"/>
<g style="mix-blend-mode:multiply" opacity="0.2">
<path d="M57.0825 150.008C57.0825 150.008 57.5458 149.279 58.2739 148.219C61.054 144.111 68.0702 134.503 71.3798 135.895C75.5498 137.684 74.2922 138.545 72.836 141.858C71.3798 145.171 62.5764 164.717 62.5764 164.717C62.5764 164.717 83.7576 139.605 87.0009 141.195C90.3105 142.786 92.2962 144.508 87.0009 152.261C81.7056 160.013 76.6089 167.699 76.6089 167.699C76.6089 167.699 106.594 147.159 110.565 147.159C114.537 147.159 112.154 151.532 109.043 156.236C105.932 160.874 87.5967 178.565 84.8166 182.938C82.1028 187.377 78.9918 197.316 78.9918 197.316C78.9918 197.316 81.7056 208.513 87.7952 209.242C93.8848 209.971 98.1873 210.766 95.5396 215.404C92.892 220.042 76.3441 221.831 71.7108 226.469C67.0774 231.107 56.1558 250.654 56.1558 250.654L46.0947 177.372L57.0825 150.008Z" fill="#1A2A42"/>
</g>
<path d="M46.9554 281.397C46.9554 281.397 57.215 235.546 58.8698 230.444C60.5246 225.343 71.4462 216.199 74.8881 215.073C78.33 213.946 91.4359 211.627 98.1874 208.116C104.939 204.604 106.13 200.297 105.336 197.647C104.542 194.996 101.034 196.852 95.5398 197.514C90.0459 198.177 86.273 197.183 82.8311 195.394C79.3891 193.605 72.9024 193.539 72.9024 193.539C73.5643 192.876 83.3606 168.692 85.4787 165.909C87.5968 163.126 104.542 141.526 105.204 140.069C105.866 138.611 104.674 134.105 102.556 133.575C100.438 133.045 88.9868 144.044 85.8759 146.827C82.7649 149.61 65.6875 167.499 65.6875 167.499C65.6875 167.499 82.7649 138.478 83.0296 135.696C83.2944 132.913 81.0439 131.19 78.7272 131.19C76.4105 131.19 69.1295 141.791 66.6804 144.773C64.2313 147.755 53.1112 162.795 53.1112 162.795C53.1112 162.795 53.1112 162.795 53.4421 158.687C53.7731 154.579 66.6804 132.515 66.6804 132.515C66.6804 132.515 67.0113 129.732 62.8413 129.732C58.6712 129.732 54.104 134.702 54.104 134.702C54.104 134.702 52.1183 134.039 49.1397 134.702C46.1611 135.364 30.6061 156.898 28.0909 162C25.5756 167.102 24.2518 184.992 24.6489 193.473C25.0461 201.954 19.486 225.276 19.486 225.276C19.486 225.276 6.90966 261.056 3.6001 276.759" fill="#FFCC99"/>
<path d="M36.8279 170.746C36.6955 170.746 36.5631 170.746 36.4307 170.68C35.9012 170.481 35.7026 169.885 35.9012 169.421C35.9674 169.355 39.4755 160.41 41.9908 154.513C44.5061 148.55 52.9124 134.835 53.2433 134.238C53.5081 133.775 54.17 133.642 54.6333 133.907C55.0967 134.172 55.2291 134.835 54.9643 135.298C54.8981 135.431 46.2932 149.478 43.8442 155.308C41.3289 161.205 37.8208 170.084 37.8208 170.216C37.556 170.548 37.225 170.746 36.8279 170.746Z" fill="#FFA74F"/>
<path d="M204.557 133.907C204.557 133.907 224.48 123.968 226.4 122.908C228.253 121.848 226.4 117.078 226.4 117.078L208.263 124.565C208.263 124.565 208.859 126.287 208.396 128.673C207.932 130.992 204.557 133.907 204.557 133.907Z" fill="#FFA74F"/>
<path d="M166.563 141.858L178.279 131.654L280.015 83.4187C280.015 83.4187 283.854 82.6898 286.502 87.9905C289.149 93.2248 286.502 96.9353 286.502 96.9353L182.515 139.407L166.563 141.858Z" fill="#C2E1E4"/>
<path d="M166.563 141.858L178.279 131.654L280.015 83.4187C280.015 83.4187 283.854 82.6898 286.502 87.9905C289.149 93.2248 286.502 96.9353 286.502 96.9353L182.515 139.407L166.563 141.858Z" fill="#1573FE"/>
<path d="M38.3999 52.5618L40.5842 65.6809L130.472 50.5741L127.824 37.8525L38.3999 52.5618Z" fill="white"/>
<path d="M41.7095 73.4331L43.8938 86.5521L162.906 66.8735L160.258 54.2183L41.7095 73.4331Z" fill="#1A2A42"/>
<path d="M47.3357 96.292C46.8724 96.292 46.4091 95.9607 46.3429 95.4306C46.2767 94.9006 46.6076 94.3705 47.1372 94.3042L164.163 75.0895C164.693 75.0232 165.222 75.3545 165.289 75.8845C165.355 76.4146 165.024 76.9447 164.494 77.0109L47.4681 96.2257C47.4681 96.292 47.4019 96.292 47.3357 96.292Z" fill="#1A2A42"/>
<path d="M59.8625 187.907H59.7963C59.2668 187.841 58.8696 187.377 58.8696 186.847C58.8696 186.648 59.2668 181.745 60.0611 178.101C61.6497 171.144 64.7607 167.102 64.893 166.97C65.224 166.506 65.8859 166.44 66.2831 166.837C66.6802 167.168 66.8126 167.831 66.4154 168.229C66.4154 168.295 63.4368 172.072 61.9806 178.565C61.1863 182.077 60.8554 186.98 60.8554 187.046C60.7892 187.51 60.392 187.907 59.8625 187.907Z" fill="#EB8600"/>
<path d="M47.9482 186.185C47.882 186.185 47.8158 186.185 47.7496 186.185C47.2201 186.119 46.823 185.589 46.9553 185.058C47.0215 184.528 49.1397 172.668 50.0001 169.09C51.5887 162.133 54.6997 158.091 54.8321 157.959C55.1631 157.495 55.825 157.429 56.2221 157.826C56.6193 158.158 56.7517 158.82 56.3545 159.218C56.2883 159.284 53.3759 163.127 51.9197 169.554C51.1254 173.132 48.9411 185.324 48.9411 185.456C48.8087 185.854 48.4116 186.185 47.9482 186.185Z" fill="#EB8600"/>
<path d="M35.5706 180.288C35.5044 180.288 35.4382 180.288 35.372 180.288C34.8425 180.155 34.5116 179.625 34.6439 179.095C34.6439 179.095 34.8425 178.101 35.0411 174.855C35.2397 171.343 36.6959 167.434 36.7621 167.235C36.9606 166.705 37.4902 166.44 38.0197 166.639C38.5492 166.838 38.814 167.434 38.6154 167.898C38.6154 167.964 37.2254 171.741 37.0268 174.921C36.8282 178.3 36.5635 179.36 36.5635 179.493C36.4311 179.957 36.034 180.288 35.5706 180.288Z" fill="#EB8600"/>
<path d="M29.2164 194.401C29.2164 194.401 37.3579 199.37 42.2561 201.292C47.1542 203.213 47.419 203.412 46.4923 207.917C45.5656 212.423 42.587 215.338 39.476 215.14C36.3651 214.941 29.5474 211.429 28.2235 207.917C27.0321 204.406 27.8926 196.985 29.2164 194.401Z" fill="#FFA74F"/>
<path d="M229.378 149.279C229.378 149.279 239.704 148.285 245.794 146.033C251.883 143.78 252.479 147.623 251.354 149.942C250.162 152.261 244.735 156.568 240.035 158.688C240.035 158.688 234.938 153.188 233.085 151.466C231.629 150.207 229.378 149.279 229.378 149.279Z" fill="#FFA74F"/>
<path d="M133.12 37.0575L135.569 48.3213L159.464 44.5446L156.088 32.4194L133.12 37.0575Z" fill="#1A2A42"/>
<path d="M178.279 131.654C178.279 131.654 176.823 134.106 178.279 136.955C179.735 139.804 182.515 139.406 182.515 139.406L166.563 141.858L178.279 131.654Z" fill="white"/>
</g>
<defs>
<clipPath id="clip0_881_280">
<rect width="315.6" height="335" fill="white" transform="translate(3.6001)"/>
</clipPath>
</defs>
</svg>
