<svg width="12" height="14" viewBox="0 0 12 14" fill="none" xmlns="http://www.w3.org/2000/svg">
<path fill-rule="evenodd" clip-rule="evenodd" d="M1.06689 2.8667C1.06689 2.00951 1.7097 1.3667 2.56689 1.3667H6.76691C7.61331 1.3667 8.26691 2.06527 8.26691 2.8667V8.46671C8.26691 9.32391 7.62411 9.96671 6.76691 9.96671H2.56689C1.7097 9.96671 1.06689 9.32391 1.06689 8.46671V2.8667ZM2.56689 0.366699C1.15741 0.366699 0.0668945 1.45722 0.0668945 2.8667V8.46671C0.0668945 9.87617 1.15741 10.9667 2.56689 10.9667H6.76691C8.17637 10.9667 9.26691 9.87617 9.26691 8.46671V2.8667C9.26691 1.53479 8.18717 0.366699 6.76691 0.366699H2.56689ZM11.9336 5.53337C11.9336 5.25722 11.7097 5.03337 11.4336 5.03337C11.1574 5.03337 10.9336 5.25722 10.9336 5.53337V11.1334C10.9336 11.9906 10.2908 12.6334 9.43357 12.6334H5.23357C4.95744 12.6334 4.73357 12.8572 4.73357 13.1334C4.73357 13.4095 4.95744 13.6334 5.23357 13.6334H9.43357C10.843 13.6334 11.9336 12.5428 11.9336 11.1334V5.53337Z" fill="#1573FE"/>
</svg>
