<svg width="42" height="43" viewBox="0 0 42 43" fill="none" xmlns="http://www.w3.org/2000/svg">
<path d="M3 42.073C2.2 42.073 1.5 41.773 0.9 41.173C0.3 40.573 0 39.873 0 39.073V9.07305C0 8.27305 0.3 7.57305 0.9 6.97305C1.5 6.37305 2.2 6.07305 3 6.07305H23.25L20.25 9.07305H3V39.073H33V21.673L36 18.673V39.073C36 39.873 35.7 40.573 35.1 41.173C34.5 41.773 33.8 42.073 33 42.073H3ZM27.1 6.47305L29.25 8.57305L15 22.773V27.073H19.25L33.55 12.773L35.65 14.873L20.5 30.073H12V21.573L27.1 6.47305ZM35.65 14.873L27.1 6.47305L32.1 1.47305C32.6667 0.906381 33.375 0.623047 34.225 0.623047C35.075 0.623047 35.7833 0.923047 36.35 1.52305L40.55 5.77305C41.1167 6.37305 41.4 7.08138 41.4 7.89805C41.4 8.71471 41.1 9.40638 40.5 9.97305L35.65 14.873Z" fill="#CAC9F9"/>
</svg>
