<svg width="14" height="16" viewBox="0 0 14 16" fill="none" xmlns="http://www.w3.org/2000/svg">
<path fill-rule="evenodd" clip-rule="evenodd" d="M5 0.833252C5.27614 0.833252 5.5 1.05711 5.5 1.33325V2.17366C5.94616 2.16659 6.44189 2.16659 6.99263 2.16659H7.00737C7.55811 2.16659 8.05384 2.16659 8.5 2.17366V1.33325C8.5 1.05711 8.72386 0.833252 9 0.833252C9.27614 0.833252 9.5 1.05711 9.5 1.33325V2.20897C10.5079 2.27216 11.2823 2.43548 11.9198 2.89869C12.2453 3.13512 12.5315 3.42131 12.7679 3.74674C13.1585 4.28429 13.3333 4.91388 13.4175 5.6909C13.5 6.45232 13.5 7.41205 13.5 8.6364V8.67423C13.5 9.44748 13.5 10.1123 13.4804 10.6837C13.4376 11.9327 13.3025 12.8507 12.7679 13.5864C12.5315 13.9119 12.2453 14.198 11.9198 14.4345C11.1841 14.9691 10.2661 15.1042 9.01712 15.147C8.44561 15.1666 7.78064 15.1666 7.00719 15.1666H6.96982C5.74547 15.1666 4.78574 15.1666 4.02432 15.0841C3.24729 14.9999 2.61771 14.825 2.08016 14.4345C1.75473 14.198 1.46854 13.9119 1.2321 13.5864C0.841549 13.0489 0.666671 12.4193 0.582485 11.6423C0.49999 10.8808 0.499995 9.92111 0.5 8.69675V8.63642C0.499995 7.41206 0.49999 6.45233 0.582485 5.6909C0.666671 4.91388 0.841549 4.28429 1.2321 3.74674C1.46854 3.42131 1.75473 3.13513 2.08016 2.89869C2.7177 2.43548 3.49206 2.27216 4.5 2.20897V1.33325C4.5 1.05711 4.72386 0.833252 5 0.833252ZM4.5 3.21142C3.59197 3.27387 3.06785 3.41715 2.66794 3.7077C2.42741 3.88246 2.21588 4.09399 2.04112 4.33453C1.79506 4.6732 1.65163 5.10667 1.57667 5.79861C1.50069 6.49991 1.5 7.40554 1.5 8.66658C1.5 9.92763 1.50069 10.8333 1.57667 11.5346C1.65163 12.2265 1.79506 12.66 2.04112 12.9986C2.21588 13.2392 2.42741 13.4507 2.66794 13.6255C3.00661 13.8715 3.44009 14.015 4.13203 14.0899C4.83333 14.1659 5.73895 14.1666 7 14.1666C7.56557 14.1666 8.06119 14.1666 8.50122 14.1594C8.50413 13.8429 8.51398 13.61 8.5472 13.4003C8.80699 11.76 10.0934 10.4736 11.7337 10.2138C11.9434 10.1806 12.1764 10.1707 12.4928 10.1678C12.5 9.72777 12.5 9.23215 12.5 8.66658C12.5 7.40554 12.4993 6.49991 12.4233 5.79861C12.3484 5.10667 12.2049 4.6732 11.9589 4.33453C11.7841 4.09399 11.5726 3.88246 11.3321 3.7077C10.9321 3.41715 10.408 3.27387 9.5 3.21142V3.33325C9.5 3.60939 9.27614 3.83325 9 3.83325C8.72386 3.83325 8.5 3.60939 8.5 3.33325V3.17378C8.06028 3.16662 7.56504 3.16659 7 3.16659C6.43496 3.16659 5.93972 3.16662 5.5 3.17378V3.33325C5.5 3.60939 5.27614 3.83325 5 3.83325C4.72386 3.83325 4.5 3.60939 4.5 3.33325V3.21142ZM12.455 11.1684C12.1851 11.1716 12.0268 11.1798 11.8901 11.2015C10.6777 11.3935 9.7269 12.3443 9.53488 13.5567C9.51323 13.6934 9.50498 13.8517 9.50186 14.1216C10.4088 14.0591 10.9324 13.9158 11.3321 13.6255C11.5726 13.4507 11.7841 13.2392 11.9589 12.9986C12.2492 12.599 12.3925 12.0753 12.455 11.1684Z" />
<path d="M4.33333 5.99992C4.33333 6.36811 4.03486 6.66658 3.66667 6.66658C3.29848 6.66658 3 6.36811 3 5.99992C3 5.63173 3.29848 5.33325 3.66667 5.33325C4.03486 5.33325 4.33333 5.63173 4.33333 5.99992Z" />
<path d="M4.33333 8.66658C4.33333 9.03477 4.03486 9.33325 3.66667 9.33325C3.29848 9.33325 3 9.03477 3 8.66658C3 8.2984 3.29848 7.99992 3.66667 7.99992C4.03486 7.99992 4.33333 8.2984 4.33333 8.66658Z" />
<path d="M7.66667 5.99992C7.66667 6.36811 7.36819 6.66658 7 6.66658C6.63181 6.66658 6.33333 6.36811 6.33333 5.99992C6.33333 5.63173 6.63181 5.33325 7 5.33325C7.36819 5.33325 7.66667 5.63173 7.66667 5.99992Z" />
<path d="M7.66667 8.66658C7.66667 9.03477 7.36819 9.33325 7 9.33325C6.63181 9.33325 6.33333 9.03477 6.33333 8.66658C6.33333 8.2984 6.63181 7.99992 7 7.99992C7.36819 7.99992 7.66667 8.2984 7.66667 8.66658Z" />
<path d="M7.66667 11.3333C7.66667 11.7014 7.36819 11.9999 7 11.9999C6.63181 11.9999 6.33333 11.7014 6.33333 11.3333C6.33333 10.9651 6.63181 10.6666 7 10.6666C7.36819 10.6666 7.66667 10.9651 7.66667 11.3333Z" />
<path d="M11 5.99992C11 6.36811 10.7015 6.66658 10.3333 6.66658C9.96514 6.66658 9.66667 6.36811 9.66667 5.99992C9.66667 5.63173 9.96514 5.33325 10.3333 5.33325C10.7015 5.33325 11 5.63173 11 5.99992Z" />
<path d="M11 8.66658C11 9.03477 10.7015 9.33325 10.3333 9.33325C9.96514 9.33325 9.66667 9.03477 9.66667 8.66658C9.66667 8.2984 9.96514 7.99992 10.3333 7.99992C10.7015 7.99992 11 8.2984 11 8.66658Z" />
<path d="M4.33333 11.3333C4.33333 11.7014 4.03486 11.9999 3.66667 11.9999C3.29848 11.9999 3 11.7014 3 11.3333C3 10.9651 3.29848 10.6666 3.66667 10.6666C4.03486 10.6666 4.33333 10.9651 4.33333 11.3333Z" />
</svg>
