<svg width="12" height="16" viewBox="0 0 12 16" fill="none" xmlns="http://www.w3.org/2000/svg">
<path fill-rule="evenodd" clip-rule="evenodd" d="M5.99984 0.833252C4.25094 0.833252 2.83317 2.25102 2.83317 3.99992V4.16659H0.666504C0.390362 4.16659 0.166504 4.39044 0.166504 4.66659C0.166504 4.94273 0.390362 5.16659 0.666504 5.16659H11.3332C11.6093 5.16659 11.8332 4.94273 11.8332 4.66659C11.8332 4.39044 11.6093 4.16659 11.3332 4.16659H9.1665V3.99992C9.1665 2.25102 7.74874 0.833252 5.99984 0.833252ZM5.99984 1.83325C7.19645 1.83325 8.1665 2.8033 8.1665 3.99992V4.16659H3.83317V3.99992C3.83317 2.8033 4.80322 1.83325 5.99984 1.83325Z"/>
<path d="M1.83093 5.95263C1.80481 5.67772 1.56078 5.47604 1.28588 5.50216C1.01097 5.52828 0.809293 5.77231 0.835412 6.04721C0.898392 6.71007 1.01205 7.52679 1.15816 8.57663L1.34585 9.92535C1.5253 11.2152 1.62707 11.9467 1.84723 12.5459C2.25697 13.6611 2.98787 14.5551 3.92788 14.9518C4.43832 15.1672 5.02219 15.167 5.89139 15.1666H6.10829C6.97749 15.167 7.56135 15.1672 8.0718 14.9518C9.0118 14.5551 9.7427 13.6611 10.1524 12.5459C10.3726 11.9467 10.4744 11.2152 10.6538 9.92532L10.8415 8.57664C10.9876 7.5268 11.1013 6.71007 11.1643 6.04721C11.1904 5.77231 10.9887 5.52828 10.7138 5.50216C10.4389 5.47604 10.1949 5.67772 10.1687 5.95262C10.1081 6.59127 9.99749 7.3866 9.84941 8.45066L9.67452 9.70735C9.48083 11.0991 9.39213 11.7156 9.21379 12.201C8.86986 13.1371 8.29797 13.771 7.68301 14.0305C7.38288 14.1571 7.01928 14.1666 5.99984 14.1666C4.98039 14.1666 4.61679 14.1571 4.31666 14.0305C3.7017 13.771 3.12981 13.1371 2.78588 12.201C2.60754 11.7156 2.51884 11.0991 2.32516 9.70735L2.15027 8.45066C2.00218 7.38661 1.89161 6.59127 1.83093 5.95263Z"/>
<path d="M5.1665 6.66659C5.1665 6.39044 4.94265 6.16659 4.6665 6.16659C4.39036 6.16659 4.1665 6.39044 4.1665 6.66659V11.9999C4.1665 12.2761 4.39036 12.4999 4.6665 12.4999C4.94265 12.4999 5.1665 12.2761 5.1665 11.9999V6.66659Z"/>
<path d="M7.83317 6.66659C7.83317 6.39044 7.60931 6.16659 7.33317 6.16659C7.05703 6.16659 6.83317 6.39044 6.83317 6.66659V11.9999C6.83317 12.2761 7.05703 12.4999 7.33317 12.4999C7.60931 12.4999 7.83317 12.2761 7.83317 11.9999V6.66659Z"/>
</svg>
