<svg width="16" height="16" viewBox="0 0 16 16" fill="none" xmlns="http://www.w3.org/2000/svg">
<path d="M5.33333 4.83203C5.05719 4.83203 4.83333 5.05589 4.83333 5.33203C4.83333 5.60817 5.05719 5.83203 5.33333 5.83203H10.6667C10.9428 5.83203 11.1667 5.60817 11.1667 5.33203C11.1667 5.05589 10.9428 4.83203 10.6667 4.83203H5.33333Z" fill="#FF9F1C"/>
<path d="M5.33333 7.4987C5.05719 7.4987 4.83333 7.72256 4.83333 7.9987C4.83333 8.27484 5.05719 8.4987 5.33333 8.4987H10.6667C10.9428 8.4987 11.1667 8.27484 11.1667 7.9987C11.1667 7.72256 10.9428 7.4987 10.6667 7.4987H5.33333Z" fill="#FF9F1C"/>
<path d="M5.33333 10.1654C5.05719 10.1654 4.83333 10.3892 4.83333 10.6654C4.83333 10.9415 5.05719 11.1654 5.33333 11.1654H7.33333C7.60948 11.1654 7.83333 10.9415 7.83333 10.6654C7.83333 10.3892 7.60948 10.1654 7.33333 10.1654H5.33333Z" fill="#FF9F1C"/>
<path fill-rule="evenodd" clip-rule="evenodd" d="M10.9757 0.914517C10.2143 0.832022 9.25452 0.832026 8.03017 0.832031H7.96983C6.74548 0.832026 5.78574 0.832022 5.02432 0.914517C4.24729 0.998702 3.61771 1.17358 3.08016 1.56413C2.75473 1.80057 2.46854 2.08676 2.2321 2.41219C1.84155 2.94974 1.66667 3.57932 1.58249 4.35635C1.49999 5.11777 1.49999 6.07751 1.5 7.30186V8.69553C1.49999 9.91989 1.49999 10.8796 1.58249 11.641C1.66667 12.4181 1.84155 13.0477 2.2321 13.5852C2.46854 13.9106 2.75473 14.1968 3.08016 14.4333C3.61771 14.8238 4.24729 14.9987 5.02432 15.0829C5.78573 15.1654 6.74544 15.1654 7.96977 15.1654H8.03018C9.25451 15.1654 10.2143 15.1654 10.9757 15.0829C11.7527 14.9987 12.3823 14.8238 12.9198 14.4333C13.2453 14.1968 13.5315 13.9106 13.7679 13.5852C14.1585 13.0477 14.3333 12.4181 14.4175 11.641C14.5 10.8796 14.5 9.91992 14.5 8.6956V7.30185C14.5 6.07752 14.5 5.11776 14.4175 4.35635C14.3333 3.57932 14.1585 2.94974 13.7679 2.41219C13.5315 2.08676 13.2453 1.80057 12.9198 1.56413C12.3823 1.17358 11.7527 0.998702 10.9757 0.914517ZM3.66794 2.37315C4.00661 2.12709 4.44009 1.98367 5.13203 1.9087C5.83333 1.83272 6.73895 1.83203 8 1.83203C9.26105 1.83203 10.1667 1.83272 10.868 1.9087C11.5599 1.98367 11.9934 2.12709 12.3321 2.37315C12.5726 2.54791 12.7841 2.75944 12.9589 2.99997C13.2049 3.33864 13.3484 3.77212 13.4233 4.46406C13.4993 5.16536 13.5 6.07098 13.5 7.33203V8.66536C13.5 9.92641 13.4993 10.832 13.4233 11.5333C13.3484 12.2253 13.2049 12.6588 12.9589 12.9974C12.7841 13.238 12.5726 13.4495 12.3321 13.6242C11.9934 13.8703 11.5599 14.0137 10.868 14.0887C10.1667 14.1647 9.26105 14.1654 8 14.1654C6.73895 14.1654 5.83333 14.1647 5.13203 14.0887C4.44009 14.0137 4.00661 13.8703 3.66794 13.6242C3.42741 13.4495 3.21588 13.238 3.04112 12.9974C2.79506 12.6588 2.65163 12.2253 2.57667 11.5333C2.50069 10.832 2.5 9.92641 2.5 8.66536V7.33203C2.5 6.07098 2.50069 5.16536 2.57667 4.46406C2.65163 3.77212 2.79506 3.33864 3.04112 2.99997C3.21588 2.75944 3.42741 2.54791 3.66794 2.37315Z" fill="#FF9F1C"/>
</svg>
