<svg width="16" height="16" viewBox="0 0 16 16" fill="none" xmlns="http://www.w3.org/2000/svg">
<path fill-rule="evenodd" clip-rule="evenodd" d="M8.50016 3.3335C8.50016 3.05735 8.2763 2.8335 8.00016 2.8335C7.72402 2.8335 7.50016 3.05735 7.50016 3.3335V3.53889C7.28233 3.59354 7.06858 3.67892 6.86506 3.79643C5.05048 4.84407 5.28111 7.53276 7.24758 8.25608L7.50016 8.34899V11.4798C7.14358 11.3792 6.825 11.1448 6.62553 10.7993L6.37515 10.3657C6.23708 10.1265 5.93129 10.0446 5.69214 10.1827C5.453 10.3207 5.37106 10.6265 5.50913 10.8657L5.75951 11.2993C6.14514 11.9673 6.79528 12.3866 7.50016 12.5025V12.6668C7.50016 12.943 7.72402 13.1668 8.00016 13.1668C8.2763 13.1668 8.50016 12.943 8.50016 12.6668V12.4615C8.71804 12.4068 8.93185 12.3214 9.13542 12.2039C10.95 11.1563 10.7194 8.46756 8.75287 7.74425L8.50016 7.65131L8.50016 4.5205C8.8568 4.62106 9.17545 4.85547 9.37494 5.201L9.62532 5.63466C9.76339 5.87381 10.0692 5.95575 10.3083 5.81768C10.5475 5.6796 10.6294 5.37381 10.4913 5.13466L10.241 4.701C9.8553 4.03301 9.2051 3.6137 8.50016 3.49783V3.3335ZM7.36506 4.66245C7.40943 4.63683 7.45452 4.61381 7.50016 4.59331L7.50016 7.28013C6.41551 6.80113 6.31392 5.26932 7.36506 4.66245ZM8.63542 11.3379C8.591 11.3635 8.54586 11.3866 8.50016 11.4071V8.72014C9.58496 9.19907 9.6866 10.731 8.63542 11.3379Z" fill="#1573FE"/>
<path fill-rule="evenodd" clip-rule="evenodd" d="M8.00016 0.833496C4.04212 0.833496 0.833496 4.04212 0.833496 8.00016C0.833496 11.9582 4.04212 15.1668 8.00016 15.1668C11.9582 15.1668 15.1668 11.9582 15.1668 8.00016C15.1668 4.04212 11.9582 0.833496 8.00016 0.833496ZM1.8335 8.00016C1.8335 4.59441 4.59441 1.8335 8.00016 1.8335C11.4059 1.8335 14.1668 4.59441 14.1668 8.00016C14.1668 11.4059 11.4059 14.1668 8.00016 14.1668C4.59441 14.1668 1.8335 11.4059 1.8335 8.00016Z" fill="#1573FE"/>
</svg>
