<svg width="31" height="31" viewBox="0 0 31 31" fill="none" xmlns="http://www.w3.org/2000/svg">
<path d="M4.23548 30.7053C4.01648 30.4997 3.75933 30.329 3.58554 30.084C2.60388 28.6981 1.64276 27.2951 0.674605 25.8973C0.241899 25.2727 0.264796 24.9003 0.779112 24.3728C2.75007 22.3518 4.71692 20.3255 6.69609 18.3142C8.80796 16.1684 11.5563 15.7073 14.0674 17.195C15.2921 17.9201 16.525 18.307 17.9018 18.1862C18.4549 18.1376 19.0144 18.1921 19.5698 18.1697C19.7295 18.1632 19.9057 18.0844 20.0401 17.9825C20.3137 17.775 20.5738 17.5405 20.8233 17.2968C21.9295 16.2183 23.3069 16.2374 24.3372 17.327C24.474 17.2055 24.6161 17.0794 24.7588 16.954C25.3876 16.4016 25.9876 15.8006 26.6523 15.3079C28.0596 14.2656 29.8544 15.0689 30.2953 16.8955C30.32 16.9986 30.3452 17.1011 30.3699 17.2042V17.9254C30.192 18.8115 29.7076 19.4394 29.08 19.9911C26.8325 21.9662 24.5962 23.9584 22.3727 25.967C21.1832 27.0415 19.8458 27.5558 18.321 27.5473C15.4718 27.5309 12.6225 27.5473 9.77318 27.5381C9.29762 27.5368 8.87665 27.6681 8.47565 27.9539C7.39007 28.7276 6.29685 29.4862 5.20364 30.2455C4.96586 30.4104 4.71516 30.5529 4.47033 30.7053H4.23607H4.23548ZM2.1471 25.2622C2.9585 26.434 3.74524 27.5709 4.54019 28.7197C5.59877 27.9788 6.63562 27.2622 7.66308 26.5299C8.31595 26.0648 9.0158 25.8428 9.79373 25.8461C12.6835 25.8592 15.5739 25.85 18.4643 25.852C19.5387 25.8527 20.4904 25.4796 21.33 24.7282C22.9299 23.295 24.5357 21.8697 26.1391 20.4411C26.9176 19.7474 27.6962 19.0525 28.4758 18.3602C28.78 18.0903 28.905 17.7349 28.8328 17.3178C28.7665 16.9349 28.5428 16.6774 28.2034 16.573C27.8529 16.4653 27.5611 16.6045 27.2852 16.8528C25.5896 18.3793 23.8875 19.8972 22.1902 21.4217C22.1091 21.4946 22.0258 21.5846 21.9841 21.6871C21.539 22.7853 20.7558 23.2575 19.7055 23.3055C18.516 23.36 17.3276 23.4566 16.1387 23.5341C14.4237 23.6464 12.7088 23.7626 10.9932 23.8677C10.5464 23.8953 10.1789 23.5176 10.1624 23.0506C10.1466 22.6007 10.4789 22.2112 10.9169 22.1823C12.9536 22.0477 14.9903 21.9183 17.027 21.7856C17.9823 21.7232 18.9369 21.6608 19.8916 21.5938C20.2262 21.5701 20.4546 21.3639 20.5838 21.0269C20.7042 20.713 20.6302 20.4253 20.4429 20.1731C20.2603 19.9268 20.0119 19.8617 19.7348 19.8637C18.7584 19.869 17.7821 19.8637 16.8057 19.8663C15.9109 19.869 15.0649 19.6575 14.274 19.1813C13.9822 19.0059 13.6846 18.8417 13.3881 18.6755C11.4189 17.5766 9.34282 17.8985 7.71944 19.5557C6.65206 20.6453 5.58644 21.737 4.52082 22.8286C3.73702 23.6313 2.95439 24.4352 2.14769 25.2622H2.1471ZM23.1143 18.4259C22.6528 17.9799 22.1015 18.1527 21.485 18.9185C21.6189 19.1123 21.7533 19.3074 21.8966 19.5156C22.3093 19.1464 22.7098 18.7878 23.1137 18.4259H23.1143Z" fill="#CAC9F9"/>
<path d="M15.2158 13.6238C12.0383 13.637 9.43734 10.7318 9.43793 7.16916C9.43851 3.60915 12.0447 0.692169 15.214 0.705305C18.3839 0.718442 20.9654 3.60126 20.986 7.15142C21.0065 10.6924 18.4044 13.6113 15.2158 13.6245V13.6238ZM10.9433 7.12778C10.8905 9.71634 12.8127 11.901 15.1794 11.9423C17.4539 11.9824 19.4107 9.87398 19.4688 7.3222C19.5293 4.65088 17.6588 2.4505 15.2803 2.39664C12.9289 2.34344 10.9979 4.44923 10.9433 7.12778Z" fill="#CAC9F9"/>
<path d="M15.7565 4.40721C15.9132 4.46041 16.0653 4.50048 16.2097 4.56353C16.5244 4.70081 16.6524 4.99047 16.5538 5.31691C16.4516 5.65321 16.208 5.78458 15.8792 5.70707C15.6526 5.65387 15.4195 5.60066 15.1911 5.60855C15.0848 5.61183 14.9222 5.74057 14.8952 5.84763C14.8699 5.94813 14.9598 6.14583 15.0502 6.2102C15.295 6.38492 15.5663 6.51366 15.8293 6.65684C16.4193 6.97738 16.7998 7.46343 16.7922 8.23258C16.7845 8.96691 16.4481 9.45691 15.8575 9.75445C15.7899 9.7886 15.7236 9.90289 15.7124 9.98894C15.6537 10.4579 15.494 10.6852 15.1946 10.6885C14.8805 10.6917 14.7102 10.4592 14.6674 9.96989C14.6656 9.94887 14.6562 9.92917 14.6492 9.90486C14.4308 9.82473 14.2041 9.7597 13.9916 9.65921C13.7051 9.5239 13.5947 9.21125 13.6998 8.90386C13.8084 8.58792 14.0521 8.45656 14.3597 8.5426C14.5764 8.60303 14.7924 8.67725 15.0126 8.70418C15.2527 8.73308 15.5017 8.69498 15.5833 8.37905C15.6643 8.0664 15.4535 7.92452 15.2521 7.80367C15.0461 7.68084 14.83 7.57838 14.6186 7.46606C14.0714 7.17443 13.6781 6.74289 13.6763 6.02038C13.6746 5.31166 14.0045 4.8348 14.5793 4.55236C14.6421 4.52149 14.7079 4.42363 14.7185 4.34809C14.7848 3.86926 14.9398 3.64725 15.231 3.64594C15.5316 3.64463 15.6984 3.87714 15.7565 4.40852V4.40721Z" fill="#CAC9F9"/>
</svg>
