<svg width="14" height="13" viewBox="0 0 14 13" fill="none" xmlns="http://www.w3.org/2000/svg">
<path d="M7.0001 0.101562C3.46535 0.101562 0.600098 2.96682 0.600098 6.50156C0.600098 10.0363 3.46535 12.9016 7.0001 12.9016C10.5348 12.9016 13.4001 10.0363 13.4001 6.50156C13.4001 2.96682 10.5348 0.101562 7.0001 0.101562ZM6.32129 2.44644C7.15973 2.45185 7.90648 2.72241 8.54381 3.26654C9.31701 3.92791 9.71384 4.77628 9.76524 5.78818C9.78118 6.00643 9.73368 6.19703 9.54398 6.3275C9.47306 6.37819 9.39034 6.4099 9.30371 6.4196C9.21707 6.4293 9.12939 6.41668 9.04901 6.38294C8.96862 6.34919 8.89821 6.29545 8.84446 6.22681C8.79071 6.15817 8.75541 6.07693 8.74192 5.9908C8.70975 5.79479 8.71185 5.59187 8.67247 5.39797C8.56118 4.86465 8.27196 4.38497 7.85223 4.03762C7.43251 3.69027 6.9072 3.49587 6.36247 3.4863C6.06185 3.47968 5.84359 3.31524 5.80241 3.06242C5.7477 2.72662 5.97857 2.44403 6.32129 2.44644ZM3.1043 7.96741C2.83374 7.92562 2.6717 7.69504 2.67772 7.35985C2.70778 5.67785 4.03594 4.21862 5.70801 4.03073C5.85866 4.01315 6.01029 4.00532 6.16196 4.00728C6.4259 4.01209 6.63033 4.21772 6.65468 4.48828C6.66311 4.61298 6.62555 4.73645 6.5491 4.83533C6.47266 4.93421 6.36262 5.00165 6.23982 5.02489C6.03509 5.05886 5.82375 5.05706 5.62143 5.09945C5.09069 5.21226 4.61375 5.5014 4.26828 5.9198C3.9228 6.33821 3.72912 6.86123 3.71878 7.40374C3.71066 7.78313 3.45212 8.02092 3.1043 7.96741ZM7.6756 11.0903C6.83235 11.0825 6.08229 10.8089 5.44436 10.2585C4.68168 9.6013 4.28936 8.75955 4.23766 7.75667C4.22082 7.53962 4.26351 7.34692 4.4511 7.21374C4.52205 7.16072 4.60556 7.12704 4.69345 7.11602C4.78133 7.105 4.87057 7.117 4.95242 7.15086C5.03426 7.18472 5.1059 7.23927 5.16032 7.30917C5.21473 7.37906 5.25004 7.46189 5.26279 7.54954C5.29495 7.75006 5.29285 7.95689 5.33494 8.155C5.56101 9.23725 6.52541 10.0273 7.63261 10.0489C7.98434 10.0562 8.21462 10.2681 8.21011 10.581C8.2035 10.8696 7.97743 11.093 7.6756 11.0903ZM10.5015 8.31313C9.8401 9.08603 8.99084 9.48256 7.97863 9.53216C7.78052 9.549 7.60285 9.50811 7.47148 9.35179C7.34552 9.20147 7.31094 9.02501 7.38129 8.84072C7.45164 8.65644 7.59173 8.53469 7.79495 8.50763C7.99216 8.48148 8.19388 8.47907 8.38778 8.43849C9.47003 8.21212 10.2619 7.24801 10.2841 6.14202C10.2901 5.83508 10.4468 5.61953 10.6978 5.57323C11.036 5.5104 11.3267 5.74549 11.3243 6.09362C11.3168 6.92995 11.0453 7.67731 10.5006 8.31313H10.5015Z" fill="#8B8B8B"/>
</svg>
