<svg width="16" height="16" viewBox="0 0 16 16" fill="none" xmlns="http://www.w3.org/2000/svg">
<path d="M11.9808 1.16793C12.6524 1.16494 13.1138 1.16364 13.4653 1.20202C13.5796 1.2145 13.675 1.23057 13.7561 1.25L6.67045 8.33564C6.47519 8.53091 6.47519 8.84749 6.67045 9.04275C6.86571 9.23801 7.18229 9.23801 7.37755 9.04275L14.4632 1.95711C14.4826 2.03818 14.4987 2.13365 14.5112 2.24787C14.5496 2.59937 14.5483 3.0608 14.5453 3.73237L14.5379 5.38714C14.5367 5.66328 14.7595 5.88813 15.0356 5.88936C15.3118 5.89059 15.5366 5.66774 15.5379 5.3916L15.5454 3.70704C15.5482 3.07256 15.5506 2.554 15.5053 2.13931C15.4582 1.70809 15.3545 1.32632 15.1002 0.997796C15.0452 0.92668 14.9858 0.859158 14.9224 0.795598C14.8575 0.73042 14.7883 0.669415 14.7154 0.612977C14.3869 0.358736 14.0051 0.255023 13.5739 0.207931C13.1592 0.162645 12.6406 0.164968 12.0062 0.16781L10.3216 0.175327C10.0455 0.176559 9.82261 0.401413 9.82384 0.677552C9.82507 0.953692 10.0499 1.17655 10.3261 1.17532L11.9808 1.16793Z"/>
<path d="M8.67282 2.29454C8.26907 2.2897 7.82434 2.2897 7.33566 2.2897H7.30333C6.07897 2.2897 5.11924 2.28969 4.35781 2.37219C3.58079 2.45637 2.9512 2.63125 2.41365 3.0218C2.08822 3.25824 1.80204 3.54443 1.5656 3.86986C1.17505 4.40741 1.00017 5.03699 0.915982 5.81402C0.833486 6.57544 0.833491 7.53518 0.833496 8.75953V8.81987C0.833491 10.0442 0.833486 11.004 0.915982 11.7654C1.00017 12.5424 1.17505 13.172 1.5656 13.7095C1.80204 14.035 2.08822 14.3212 2.41365 14.5576C2.9512 14.9482 3.58079 15.123 4.35781 15.2072C5.11922 15.2897 6.07894 15.2897 7.30327 15.2897H7.36368C8.588 15.2897 9.54777 15.2897 10.3092 15.2072C11.0862 15.123 11.7158 14.9482 12.2533 14.5576C12.5788 14.3212 12.865 14.035 13.1014 13.7095C13.4919 13.172 13.6668 12.5424 13.751 11.7654C13.8335 11.004 13.8335 10.0443 13.8335 8.81993V8.7874C13.8335 8.29877 13.8335 7.85409 13.8287 7.45037C13.8253 7.17425 13.5988 6.95309 13.3227 6.9564C13.0466 6.95971 12.8254 7.18624 12.8287 7.46236C12.8335 7.85954 12.8335 8.29858 12.8335 8.7897C12.8335 10.0507 12.8328 10.9564 12.7568 11.6577C12.6819 12.3496 12.5384 12.7831 12.2924 13.1218C12.1176 13.3623 11.9061 13.5738 11.6656 13.7486C11.3269 13.9946 10.8934 14.1381 10.2015 14.213C9.50017 14.289 8.59454 14.2897 7.3335 14.2897C6.07245 14.2897 5.16683 14.289 4.46553 14.213C3.77359 14.1381 3.34011 13.9946 3.00144 13.7486C2.7609 13.5738 2.54937 13.3623 2.37462 13.1218C2.12856 12.7831 1.98513 12.3496 1.91016 11.6577C1.83418 10.9564 1.8335 10.0507 1.8335 8.7897C1.8335 7.52865 1.83418 6.62303 1.91016 5.92173C1.98513 5.22979 2.12856 4.79631 2.37462 4.45764C2.54937 4.21711 2.7609 4.00558 3.00144 3.83082C3.34011 3.58476 3.77359 3.44134 4.46553 3.36637C5.16683 3.29039 6.07245 3.2897 7.3335 3.2897C7.82462 3.2897 8.26366 3.28971 8.66084 3.29447C8.93696 3.29778 9.16348 3.07662 9.16679 2.8005C9.1701 2.52438 8.94895 2.29785 8.67282 2.29454Z"/>
</svg>
