<?xml version="1.0" encoding="UTF-8"?><svg id="Layer_2" xmlns="http://www.w3.org/2000/svg" viewBox="0 0 284.78 349.31"><defs><style>.cls-1{fill:#fefefe;}.cls-2{fill:#c9c8f4;}</style></defs><g id="Layer_1-2"><g id="i45IkH.tif"><g><path class="cls-2" d="M142.43,337.9c2.18-4.5,4.15-8.49,6.04-12.52,3.69-7.81,7.36-15.63,10.98-23.46,1.78-3.84,3.38-7.76,6.01-11.14,3.81-4.9,8.82-7.59,14.91-8.56,2.73-.43,5.45-.44,8.19-.44,24.38,0,48.76,.01,73.14-.01,7.94,0,12.47-4.6,12.47-12.58,.01-42.77,0-85.54,.02-128.31,0-1.24-.03-2.46,.3-3.7,.91-3.37,1.9-4.26,5.1-4.22,2.87,.04,4.22,1.19,4.88,4.29,.17,.8,.16,1.65,.16,2.48,0,43.02,.09,86.04-.05,129.06-.04,11.74-6.09,19.74-16.87,22.65-2.13,.58-4.38,.81-6.64,.81-25.38-.02-50.76,.03-76.14-.04-6.42-.02-10.92,2.65-13.63,8.47-6.25,13.39-12.54,26.77-18.83,40.14-.95,2.03-2.13,3.87-3.54,5.67-3.3,4.21-11.75,3.89-14.71-2.14-3.88-7.9-7.59-15.89-11.35-23.84-3.3-6.98-6.46-14.03-9.91-20.94-2.48-4.96-6.67-7.35-12.31-7.34-25.79,.05-51.59,.03-77.38,.03-11.55,0-21.18-8.48-22.78-19.96-.69-4.97-.65-9.92-.03-14.88,.09-.74,.03-1.5,.03-2.24,0-28.04,0-56.08,0-84.13,0-1-.1-2.01,.06-2.99,.33-2.14,1.45-3.75,3.71-4.09,3.03-.45,4.75,.5,5.67,2.85,.52,1.34,.59,2.73,.59,4.16-.02,32.29,0,64.57-.04,96.86,0,1.94,.26,3.82,.7,5.66,1.22,5.1,5.56,8.27,11.31,8.28,23.71,.02,47.43,.02,71.14,.02,4.48,0,8.96-.18,13.36,.93,7.04,1.78,12.05,6.02,15.16,12.55,5.02,10.56,10.05,21.13,15.07,31.69,1.66,3.5,3.31,7,5.18,10.94Z"/><path class="cls-2" d="M274.18,99.92c0-3.74,.01-7.49,0-11.23-.03-7.76-4.84-12.6-12.58-12.64-3.99-.02-7.99,.1-11.98-.04-2.41-.09-3.94,.92-5.01,2.94-3.27,6.16-6.53,12.32-9.82,18.46-6.03,11.27-12.05,22.56-18.15,33.8-2.36,4.35-6.28,7.2-10.12,10.11-5.48,4.15-10.97,8.29-16.39,12.52-4.51,3.53-9.74,4.03-14.62,1.16-4.6-2.7-5.95-8.01-5.58-13,.27-3.55,.64-7.08,.88-10.63,.48-7.09,.1-14.32,2.56-21.11,2.01-5.55,5.29-10.53,8-15.77,3.66-7.08,7.5-14.06,11.25-21.08,10.48-19.63,20.94-39.26,31.45-58.88,2.18-4.08,3.93-8.41,7.55-11.61,3.77-3.32,8.91-3.84,13.31-1.34,6.35,3.61,12.74,7.16,19.25,10.48,9.67,4.93,10.33,11.64,5.52,20.33-5.67,10.24-11.1,20.62-16.59,30.96-1.38,2.59-1.28,2.61,1.67,2.69,5.11,.15,10.24-.5,15.28,1.35,8.59,3.15,12.98,9.4,14.09,18.18,1.15,9.11,.39,18.27,.45,27.4,.03,5.09-3.36,7.69-7.24,5.99-2.74-1.21-3.04-3.81-3.13-6.3-.14-4.24-.04-8.49-.04-12.73h0Z"/><path class="cls-2" d="M131.37,219.79c-.02,22.97-17.21,44.31-41.59,47.53-14.37,1.9-27.06-1.81-38.17-11.11-8.95-7.49-14.63-17-16.45-28.43-2.5-15.75,1.85-29.7,12.67-41.53,7.58-8.28,16.99-13.13,28.06-14.73,9.49-1.37,18.67-.19,27.33,4.06,1.92,.94,3.73,2.18,3.71,4.82-.01,2.06-.85,3.57-2.59,4.49-2.01,1.06-4.04,.5-6-.32-5.27-2.18-10.78-3.27-16.47-3.16-16.67,.31-31.42,12.06-35.48,27.38-3.58,13.52-1.24,25.81,8.18,36.14,6.72,7.38,15.31,11.62,25.54,12.42,9.37,.74,17.8-1.59,25.21-7.1,9.7-7.21,15.19-16.81,15.63-29.16,.26-7.44-1.39-14.3-4.87-20.81-.47-.87-.94-1.79-1.13-2.75-.56-2.77,.5-4.68,2.92-5.61,2.49-.95,5.06,0,6.52,2.54,3.12,5.43,5.35,11.19,6.49,17.38,.49,2.64,.5,5.28,.49,7.93Z"/><path class="cls-2" d="M201.3,171.41c6.34-.46,12.34,1.33,18.28,3.08,4.59,1.35,5.68,6.18,2.28,9.05-1.68,1.42-3.58,1.01-5.43,.47-4.78-1.39-9.55-2.64-14.6-2.63-17.75,.05-32.74,11.82-37.04,29.02-3.44,13.78,.3,25.44,9.88,35.59,7.61,8.06,16.88,12.58,27.94,11.69,18.27-1.47,32.3-10.71,36.63-30.69,2.2-10.16,.09-19.37-5.18-28.07-2.18-3.6-2.13-5.54,.34-7.97,2.33-2.29,5.17-2.17,7.02,.54,4.29,6.31,7.3,13.11,8.35,20.79,1.4,10.19-.02,19.9-4.63,29-5.41,10.69-13.78,18.47-24.93,22.91-15.34,6.12-30.31,4.98-44.24-3.93-11.54-7.38-18.85-17.98-21.64-31.53-2.82-13.72,.17-26.33,8.21-37.49,7.6-10.55,18.02-17.18,31.07-19.38,2.57-.43,5.12-.38,7.68-.45Z"/><path class="cls-2" d="M96.67,66.03c24.71,0,49.43,0,74.14,0,4.76,0,6.92,1.54,6.98,4.9,.06,3.49-2.15,5.11-7.02,5.11-48.93,0-97.86,0-146.79,0-4.97,0-9.1,1.62-11.79,6.05-1.24,2.04-1.66,4.3-1.66,6.66,0,17.48,0,34.95,0,52.43,0,1.08,0,2.13-.37,3.19-1.07,3.18-2.52,4.07-6.09,3.57-2.35-.33-3.55-1.92-3.55-4.88,0-18.81-.03-37.61,.03-56.42,.03-9.38,7.77-18.34,17.03-20.1,2.31-.44,4.61-.5,6.93-.5,24.05,0,48.1,0,72.15,0Z"/><path class="cls-2" d="M95.91,107.02c-18.63,0-37.27-.01-55.9,.01-2.06,0-3.73-.46-4.75-2.46-1.79-3.48,.34-7.33,4.26-7.56,.41-.02,.83,0,1.25,0,36.6,0,73.21,0,109.81,0,1.77,0,3.47,.1,4.89,1.37,1.72,1.55,2.33,3.32,1.46,5.58-.83,2.17-2.4,3.06-4.61,3.06-9.48,0-18.97,.01-28.45,.02-9.32,0-18.63,0-27.95,0h0Z"/><path class="cls-2" d="M96.17,121.96c18.3,0,36.61,0,54.91,0,1.53,0,2.97,.08,4.19,1.18,1.52,1.37,2.61,2.96,1.87,5.03-.78,2.15-2.32,3.62-4.78,3.79-.5,.03-1,0-1.5,0-36.69,0-73.38,0-110.07,0-2.56,0-4.88-1.47-5.6-3.63-.79-2.37,.58-3.9,2.1-5.45,1.03-1.05,2.24-.94,3.47-.94,18.47,0,36.94,0,55.41,0h0Z"/><path class="cls-2" d="M113.89,146.91c12.56,0,25.12,0,37.68,0,3.66,0,5.78,1.9,5.75,5.05-.02,2.65-2.64,4.94-5.85,4.94-25.04,.02-50.08,.02-75.11,0-3.73,0-5.8-1.7-5.94-4.64-.16-3.35,1.63-5.33,5.03-5.35,8.23-.05,16.47-.02,24.71-.02,4.58,0,9.15,0,13.73,0Z"/><path class="cls-2" d="M224.25,235.41c-.11,2.14-1.44,3.46-3.15,4.44-1.66,.96-3.25,.33-4.65-.62-2.19-1.48-4.07-3.4-6.48-4.56-6.66-3.21-12.96-2.56-18.97,1.69-1.61,1.14-2.89,2.7-4.81,3.47-2.32,.93-4.16,.16-5.52-1.55-1.44-1.8-1.78-3.9-.16-5.91,4.12-5.11,9.5-8.26,15.88-9.41,10.15-1.83,18.99,.86,26.18,8.45,1.19,1.26,1.71,2.49,1.69,4.01Z"/><path class="cls-2" d="M81.39,247.83c-7.84-.13-14.12-3.62-19.34-9.23-2.09-2.25-2.01-4.84-.11-6.95,1.53-1.7,4.63-1.93,6.83-.4,1.76,1.23,3.34,2.69,5.2,3.81,6.06,3.67,12.08,3.59,18.04-.12,1.82-1.13,3.44-2.58,5.23-3.76,3.13-2.08,6.58-.92,7.86,2.55,.82,2.23-.37,3.83-1.71,5.35-4.33,4.91-10.04,7.15-16.3,8.21-1.87,.32-3.74,.78-5.7,.54Z"/><path class="cls-2" d="M44.49,156.92c-1.7,0-3.11,.05-4.52-.01-3.07-.14-5.48-2.38-5.47-5.01,.01-3.14,1.96-4.61,5.48-5.06,3.41-.43,6.74-.27,10.12,.07,2.05,.21,3.94,1.73,4.32,3.76,.5,2.62-.45,4.62-2.6,5.58-2.47,1.1-5.07,.52-7.33,.68Z"/><path class="cls-2" d="M66.64,214.34c-3.66-.03-6.24-2.28-6.17-5.39,.06-2.86,2.66-5.05,5.99-5.05,3.76,0,6.4,2.09,6.46,5.13,.06,3.05-2.64,5.34-6.28,5.31Z"/><path class="cls-2" d="M185.56,214.34c-3.51,0-6.27-2.23-6.25-5.08,.03-3.26,2.58-5.37,6.48-5.36,3.34,0,6.01,2.27,5.98,5.06-.03,3.18-2.57,5.37-6.22,5.38Z"/><path class="cls-2" d="M105.4,209.2c-.04,3.02-2.78,5.22-6.39,5.14-3.48-.08-6.08-2.39-5.99-5.33,.09-3.08,2.66-5.13,6.42-5.1,3.43,.02,6.01,2.31,5.97,5.3Z"/><path class="cls-2" d="M224.25,209.19c-.01,2.95-2.64,5.18-6.07,5.15-3.98-.03-5.98-1.85-5.94-5.4,.04-3.08,2.46-5.14,6.07-5.04,2.9,.08,6.54,2.15,5.94,5.28Z"/><path class="cls-1" d="M250.41,46.58c-.18,.33-.37,.7-.56,1.06-6.25,11.71-12.48,23.42-18.74,35.11-4.31,8.04-8.69,16.05-12.98,24.1-.61,1.15-1.08,1.64-2.43,.91-7.21-3.93-14.45-7.81-21.72-11.62-1.49-.78-1-1.61-.47-2.61,3.26-6.16,6.5-12.33,9.79-18.48,4.92-9.22,9.87-18.43,14.82-27.64,2.31-4.31,4.67-8.6,6.92-12.95,.68-1.32,1.34-1.35,2.53-.71,7.08,3.83,14.19,7.59,21.28,11.4,.6,.32,1.51,.38,1.58,1.42Z"/><path class="cls-1" d="M180.2,141.79c1.18-7.85,.62-16.03,1.66-24.09,.59-4.61,3.27-8.46,5.38-12.5,.5-.95,1.12-.43,1.67-.14,7.4,3.94,14.79,7.93,22.21,11.83,1.31,.69,.74,1.37,.36,2.2-2.71,6.01-6.24,11.16-12.1,14.76-4.99,3.06-9.42,7.02-14.09,10.6-1.2,.92-2.4,2.08-4,1.36-1.72-.78-.67-2.52-1.08-4.02Z"/><path class="cls-1" d="M239.24,11.13c2.06-.3,3.41,1.07,4.9,1.84,5.24,2.68,10.38,5.57,15.55,8.38,2.19,1.19,2.65,2.39,1.5,4.7-1.65,3.35-3.47,6.61-5.17,9.94-.51,1-.92,.97-1.88,.44-7.27-3.99-14.59-7.91-21.93-11.77-1.25-.66-1.4-1.08-.66-2.38,1.84-3.24,3.38-6.66,5.41-9.8,.6-.94,1.22-1.57,2.27-1.34Z"/></g></g></g></svg>