<svg width="30" height="16" viewBox="0 0 30 16" fill="none" xmlns="http://www.w3.org/2000/svg">
<path d="M8.323 10.5306C7.73966 10.5306 7.23967 10.3223 6.823 9.90564C6.40633 9.48897 6.198 8.98897 6.198 8.40564C6.198 7.82231 6.40633 7.32231 6.823 6.90564C7.23967 6.48897 7.73966 6.28064 8.323 6.28064C8.90633 6.28064 9.40633 6.48897 9.823 6.90564C10.2397 7.32231 10.448 7.82231 10.448 8.40564C10.448 8.98897 10.2397 9.48897 9.823 9.90564C9.40633 10.3223 8.90633 10.5306 8.323 10.5306ZM8.323 15.9056C6.23966 15.9056 4.46883 15.1765 3.0105 13.7181C1.55216 12.2598 0.822998 10.489 0.822998 8.40564C0.822998 6.32231 1.55216 4.55147 3.0105 3.09314C4.46883 1.63481 6.23966 0.90564 8.323 0.90564C9.823 0.90564 11.1355 1.25981 12.2605 1.96814C13.3855 2.67647 14.2709 3.74939 14.9167 5.18689H26.0417L29.573 8.71814L24.3542 13.4994L21.6042 11.4994L18.8542 13.4994L16.5105 11.6244H14.9167C14.3959 12.8744 13.5782 13.9004 12.4636 14.7025C11.349 15.5046 9.96883 15.9056 8.323 15.9056ZM8.323 14.0306C9.53133 14.0306 10.6459 13.6296 11.6667 12.8275C12.6876 12.0254 13.3438 10.9994 13.6355 9.74939H17.198L18.8855 11.1556L21.6355 9.18689L24.198 11.1244L26.8542 8.65564L25.2605 7.06189H13.6355C13.3855 5.89522 12.7605 4.89001 11.7605 4.04626C10.7605 3.20251 9.61467 2.78064 8.323 2.78064C6.7605 2.78064 5.43237 3.32751 4.33862 4.42126C3.24487 5.51501 2.698 6.84314 2.698 8.40564C2.698 9.96814 3.24487 11.2963 4.33862 12.39C5.43237 13.4838 6.7605 14.0306 8.323 14.0306Z"/>
</svg>
