<svg width="12" height="16" viewBox="0 0 12 16" fill="none" xmlns="http://www.w3.org/2000/svg">
<path d="M7.30528 2.0367C7.71504 1.83301 8.19661 1.77241 8.67327 1.90013C9.71056 2.17807 10.3261 3.24428 10.0482 4.28158L8.46653 10.1845C8.18858 11.2218 7.12237 11.8373 6.08508 11.5594C5.04778 11.2814 4.43221 10.2152 4.71015 9.17794L5.34282 6.81679C5.41429 6.55005 5.256 6.27589 4.98926 6.20442C4.72253 6.13294 4.44836 6.29124 4.37689 6.55797L3.74422 8.91912C3.32334 10.4899 4.2555 12.1044 5.82626 12.5253C7.39702 12.9462 9.01157 12.014 9.43245 10.4433L11.0141 4.5404C11.435 2.96964 10.5029 1.35509 8.93209 0.934204C8.21112 0.74102 7.47973 0.833244 6.86014 1.14124C6.48023 1.3301 6.14155 1.60039 5.87186 1.93661C5.69908 2.15202 5.73364 2.46671 5.94905 2.63949C6.16445 2.81227 6.47915 2.77772 6.65193 2.56231C6.82964 2.34075 7.0535 2.16186 7.30528 2.0367Z" fill="#1573FE"/>
<path d="M2.98167 6.18412C3.25961 5.14682 4.32582 4.53125 5.36311 4.80919C6.40041 5.08713 7.01599 6.15334 6.73804 7.19064L6.10537 9.55179C6.0339 9.81852 6.1922 10.0927 6.45893 10.1642C6.72566 10.2356 6.99983 10.0773 7.0713 9.81061L7.70397 7.44946C8.12485 5.8787 7.19269 4.26415 5.62193 3.84326C4.05117 3.42238 2.43662 4.35454 2.01574 5.9253L0.434068 11.8282C0.0131839 13.3989 0.945343 15.0135 2.5161 15.4344C3.23707 15.6276 3.96847 15.5353 4.58805 15.2273C4.96796 15.0385 5.30664 14.7682 5.57633 14.432C5.74911 14.2166 5.71456 13.9019 5.49915 13.7291C5.28374 13.5563 4.96905 13.5909 4.79627 13.8063C4.61855 14.0278 4.39469 14.2067 4.14291 14.3319C3.73315 14.5356 3.25158 14.5962 2.77492 14.4684C1.73763 14.1905 1.12205 13.1243 1.39999 12.087L2.98167 6.18412Z" fill="#1573FE"/>
</svg>
