<svg width="124" height="88" viewBox="0 0 124 88" fill="none" xmlns="http://www.w3.org/2000/svg">
<path d="M96.8959 53.8399V35.6941H78.75V27.3191H96.8959V9.17328H105.271V27.3191H123.417V35.6941H105.271V53.8399H96.8959ZM45.25 42.5337C39.1084 42.5337 34.0834 40.5795 30.175 36.6712C26.2667 32.7629 24.3125 27.7379 24.3125 21.5962C24.3125 15.4545 26.2667 10.4295 30.175 6.52119C34.0834 2.61286 39.1084 0.658691 45.25 0.658691C51.3917 0.658691 56.4167 2.61286 60.325 6.52119C64.2334 10.4295 66.1875 15.4545 66.1875 21.5962C66.1875 27.7379 64.2334 32.7629 60.325 36.6712C56.4167 40.5795 51.3917 42.5337 45.25 42.5337ZM0.583374 87.3399V74.2191C0.583374 70.9622 1.42087 68.0077 3.09587 65.3556C4.77087 62.7035 7.09726 60.7261 10.075 59.4233C17.0542 56.3524 23.2657 54.1889 28.7094 52.9326C34.1532 51.6764 39.6667 51.0483 45.25 51.0483C50.8334 51.0483 56.3469 51.6764 61.7907 52.9326C67.2344 54.1889 73.3993 56.3524 80.2855 59.4233C83.2632 60.8191 85.6129 62.8198 87.3344 65.4254C89.0559 68.0309 89.9167 70.9622 89.9167 74.2191V87.3399H0.583374ZM8.95837 78.9649H81.5417V74.2191C81.5417 72.7302 81.1695 71.3111 80.425 69.9618C79.6806 68.6125 78.5174 67.6122 76.9355 66.9608C70.4216 63.7969 64.8615 61.7497 60.2552 60.8191C55.649 59.8886 50.6473 59.4233 45.25 59.4233C39.8528 59.4233 34.8511 59.9118 30.2448 60.8889C25.6386 61.866 20.032 63.8899 13.425 66.9608C12.0292 67.6122 10.9358 68.6125 10.1448 69.9618C9.35386 71.3111 8.95837 72.7302 8.95837 74.2191V78.9649ZM45.25 34.1587C48.8792 34.1587 51.8802 32.9722 54.2532 30.5993C56.6261 28.2264 57.8125 25.2254 57.8125 21.5962C57.8125 17.967 56.6261 14.966 54.2532 12.5931C51.8802 10.2202 48.8792 9.03369 45.25 9.03369C41.6209 9.03369 38.6198 10.2202 36.2469 12.5931C33.874 14.966 32.6875 17.967 32.6875 21.5962C32.6875 25.2254 33.874 28.2264 36.2469 30.5993C38.6198 32.9722 41.6209 34.1587 45.25 34.1587Z" fill="#645ADF"/>
</svg>
