<svg width="201" height="200" viewBox="0 0 201 200" fill="none" xmlns="http://www.w3.org/2000/svg">
<circle cx="100.5" cy="100" r="100" fill="#24272E"/>
<circle cx="170.5" cy="170" r="30" fill="#1A2A42"/>
<path d="M177.948 166.875C178.294 166.49 178.261 165.897 177.875 165.552C177.49 165.206 176.897 165.239 176.552 165.625L172.34 170.329C171.487 171.282 170.912 171.92 170.421 172.333C169.953 172.727 169.678 172.812 169.438 172.812C169.197 172.812 168.922 172.727 168.454 172.333C167.963 171.92 167.388 171.282 166.535 170.329L165.448 169.115C165.103 168.729 164.51 168.697 164.125 169.042C163.739 169.387 163.706 169.98 164.052 170.366L165.184 171.631C165.979 172.519 166.642 173.26 167.248 173.769C167.889 174.307 168.58 174.688 169.438 174.688C170.295 174.688 170.986 174.307 171.627 173.769C172.233 173.26 172.896 172.519 173.691 171.631L177.948 166.875Z" fill="#1573FE"/>
<path fill-rule="evenodd" clip-rule="evenodd" d="M171 156.562C163.579 156.562 157.562 162.579 157.562 170C157.562 177.421 163.579 183.438 171 183.438C178.421 183.438 184.438 177.421 184.438 170C184.438 162.579 178.421 156.562 171 156.562ZM159.438 170C159.438 163.614 164.614 158.438 171 158.438C177.386 158.438 182.562 163.614 182.562 170C182.562 176.386 177.386 181.562 171 181.562C164.614 181.562 159.438 176.386 159.438 170Z" fill="#1573FE"/>
<path fill-rule="evenodd" clip-rule="evenodd" d="M83.8338 88.5417C79.8067 88.5417 76.5421 91.8063 76.5421 95.8334V104.167C76.5421 108.194 79.8067 111.458 83.8338 111.458H90.1795C93.1611 111.458 95.8423 109.643 96.9496 106.875L98.4495 103.125H106.703C106.934 104.254 106.786 105.442 106.259 106.496L106.039 106.936C105.267 108.48 105.893 110.357 107.436 111.128C108.98 111.9 110.857 111.275 111.629 109.731L111.849 109.291C112.815 107.359 113.202 105.222 113.011 103.125H119.203C119.434 104.254 119.286 105.442 118.759 106.496L118.539 106.936C117.767 108.48 118.393 110.357 119.936 111.128C121.48 111.9 123.357 111.275 124.129 109.731L124.349 109.291C125.962 106.065 125.962 102.268 124.349 99.0424C123.685 97.7141 122.327 96.8751 120.842 96.8751H108.897C108.877 96.8746 108.857 96.8744 108.836 96.8744C108.813 96.8743 108.79 96.8746 108.766 96.8751H98.4495L96.9496 93.1253C95.8423 90.357 93.1611 88.5417 90.1795 88.5417H83.8338ZM82.7921 95.8334C82.7921 95.2581 83.2585 94.7917 83.8338 94.7917H90.1795C90.6054 94.7917 90.9885 95.0511 91.1466 95.4465L92.8133 99.6132C92.863 99.7374 92.8878 99.8686 92.8878 100C92.8878 100.132 92.863 100.263 92.8133 100.387L91.1466 104.554C90.9884 104.949 90.6054 105.208 90.1795 105.208H83.8338C83.2585 105.208 82.7921 104.742 82.7921 104.167V95.8334Z" fill="#1573FE"/>
<path fill-rule="evenodd" clip-rule="evenodd" d="M101.688 54.2941C100.897 54.2548 100.104 54.2548 99.3124 54.2941C96.2567 54.4458 93.4436 55.3337 90.3075 56.789C87.2545 58.2058 83.7068 60.254 79.2186 62.8453L78.9644 62.9921C74.4762 65.5834 70.9286 67.6316 68.1751 69.5672C65.3467 71.5554 63.1712 73.5478 61.512 76.1182C61.0822 76.7841 60.6857 77.4708 60.3239 78.176C58.9275 80.8981 58.2898 83.7783 57.9821 87.2219C57.6826 90.5743 57.6826 94.6708 57.6826 99.8533V100.147C57.6826 105.329 57.6826 109.426 57.9821 112.778C58.2898 116.222 58.9275 119.102 60.3239 121.824C60.6857 122.529 61.0822 123.216 61.512 123.882C63.1712 126.452 65.3467 128.445 68.1751 130.433C70.9285 132.368 74.476 134.417 78.964 137.008L79.2186 137.155C83.7068 139.746 87.2545 141.794 90.3075 143.211C93.4436 144.666 96.2567 145.554 99.3124 145.706C100.104 145.745 100.897 145.745 101.688 145.706C104.744 145.554 107.557 144.666 110.693 143.211C113.746 141.794 117.294 139.746 121.782 137.155L122.037 137.008C126.525 134.417 130.072 132.369 132.826 130.433C135.654 128.445 137.83 126.452 139.489 123.882C139.919 123.216 140.315 122.529 140.677 121.824C142.073 119.102 142.711 116.222 143.019 112.778C143.318 109.426 143.318 105.329 143.318 100.147V99.8533C143.318 94.6709 143.318 90.5742 143.019 87.2219C142.711 83.7783 142.073 80.8981 140.677 78.176C140.315 77.4708 139.919 76.7841 139.489 76.1182C137.83 73.5478 135.654 71.5554 132.826 69.5672C130.072 67.6316 126.525 65.5834 122.036 62.9921L121.782 62.8453C117.294 60.254 113.746 58.2058 110.693 56.789C107.557 55.3337 104.744 54.4458 101.688 54.2941ZM99.6223 60.5364C100.207 60.5074 100.794 60.5074 101.379 60.5364C103.349 60.6342 105.346 61.1978 108.063 62.4583C110.833 63.744 114.141 65.6506 118.784 68.3314C123.428 71.0122 126.733 72.9237 129.231 74.6802C131.681 76.4023 133.168 77.8505 134.238 79.5078C134.556 79.9999 134.849 80.5075 135.116 81.0287C136.016 82.7838 136.527 84.7956 136.794 87.7781C137.065 90.8203 137.068 94.6384 137.068 100C137.068 105.362 137.065 109.18 136.794 112.222C136.527 115.205 136.016 117.216 135.116 118.971C134.849 119.493 134.556 120 134.238 120.492C133.168 122.15 131.681 123.598 129.231 125.32C126.733 127.076 123.428 128.988 118.784 131.669C114.141 134.35 110.833 136.256 108.063 137.542C105.346 138.802 103.349 139.366 101.379 139.464C100.794 139.493 100.207 139.493 99.6223 139.464C97.6522 139.366 95.6546 138.802 92.9384 137.542C90.1679 136.256 86.8598 134.35 82.2165 131.669C77.5732 128.988 74.2681 127.076 71.7694 125.32C69.3197 123.598 67.8328 122.15 66.763 120.492C66.4453 120 66.1523 119.493 65.8849 118.971C64.9845 117.216 64.4738 115.205 64.2073 112.222C63.9355 109.18 63.9326 105.362 63.9326 100C63.9326 94.6384 63.9355 90.8203 64.2073 87.7781C64.4738 84.7956 64.9845 82.7838 65.8849 81.0287C66.1523 80.5075 66.4453 79.9999 66.763 79.5078C67.8328 77.8505 69.3197 76.4023 71.7694 74.6802C74.2681 72.9237 77.5732 71.0122 82.2165 68.3314C86.8598 65.6506 90.1679 63.744 92.9384 62.4583C95.6546 61.1978 97.6522 60.6342 99.6223 60.5364Z" fill="#1573FE"/>
</svg>
