<svg width="291" height="254" viewBox="0 0 291 254" fill="none" xmlns="http://www.w3.org/2000/svg">
<g clip-path="url(#clip0_33_927)">
<path d="M219.387 14.9688C245.056 17.1007 269.457 39.5694 269.36 71.2439C269.266 101.761 245.656 124.744 219.476 126.905V115.97C222.286 115.26 225.132 114.796 227.799 113.83C244.711 107.696 254.994 95.5851 257.796 77.6212C261.183 55.9019 248.85 35.626 228.42 28.3748C225.899 27.4796 223.23 26.9897 220.605 26.4521C219.716 26.2693 219.35 26.0522 219.366 25.0723C219.423 21.738 219.387 18.401 219.387 14.9714V14.9688Z" fill="black"/>
<path d="M241.601 87.5393C240.198 89.8751 238.851 92.1156 237.455 94.4383C233.685 92.1421 230.011 89.9095 226.343 87.6717C220.663 84.2103 214.983 80.7435 209.297 77.2901C208.723 76.9405 208.298 76.6359 208.301 75.8017C208.337 65.1076 208.324 54.4161 208.327 43.722C208.327 43.5048 208.363 43.2903 208.394 42.9619H216.652C216.652 43.526 216.652 44.0398 216.652 44.5536C216.652 53.3991 216.668 62.2447 216.632 71.0876C216.626 72.0781 216.887 72.6475 217.764 73.1692C225.349 77.682 232.897 82.2558 240.456 86.8136C240.819 87.0334 241.173 87.2691 241.599 87.5393H241.601Z" fill="black"/>
<path d="M178.538 27.5565C187.425 20.2417 197.206 16.2189 208.316 15.0271C208.316 18.6633 208.337 22.175 208.274 25.6841C208.269 25.9384 207.695 26.3462 207.338 26.4098C200.802 27.5671 194.764 29.9613 189.288 33.7802C188.432 34.3761 187.605 35.0117 187.072 35.4037C184.234 32.795 181.457 30.2446 178.535 27.5565H178.538Z" fill="black"/>
<path d="M178.6 43.6982C174.773 48.7248 172.023 54.5035 170.546 60.8914C170.269 62.0885 170.115 63.3147 169.826 64.5091C169.742 64.8507 169.388 65.3883 169.15 65.391C165.69 65.4492 162.231 65.4307 158.606 65.4307C159.814 54.1433 163.788 44.2173 170.656 35.6418C173.288 38.3114 175.882 40.9439 178.6 43.7008V43.6982Z" fill="black"/>
<path d="M170.749 106.499C163.94 97.8892 159.895 87.9843 158.661 76.7605H169.748C170.849 84.838 173.862 92.1343 178.762 98.6175C176.103 101.234 173.492 103.8 170.749 106.499Z" fill="black"/>
<path d="M208.316 127.413C197.149 126.105 187.406 121.883 178.705 114.69C181.382 112.084 183.97 109.566 186.475 107.127C189.183 108.75 191.753 110.453 194.464 111.881C198.488 113.999 202.798 115.31 207.286 116.012C207.656 116.07 208.267 116.47 208.272 116.722C208.337 120.231 208.316 123.743 208.316 127.413Z" fill="black"/>
</g>
<path d="M76.7291 127.449C76.7225 89.7517 107.501 59.1178 145.393 59.1079C183.198 59.098 213.983 89.7155 213.983 127.328C213.983 165.147 183.364 195.695 145.436 195.718C107.514 195.745 76.7357 165.163 76.7291 127.449V127.449ZM153.253 174.112C153.253 171.77 153.435 169.569 153.204 167.407C152.946 164.979 153.574 163.305 156.013 162.518C156.318 162.419 156.572 162.173 156.843 161.985C170.512 152.651 169.629 132.286 155.167 124.212C150.801 121.774 146.305 119.57 141.922 117.165C139.122 115.631 137.912 112.44 138.775 109.393C139.624 106.396 142.431 104.356 145.584 104.445C148.715 104.534 151.353 106.715 152.063 109.808C152.172 110.278 152.285 110.749 152.387 111.177H167.57C167.636 110.956 167.689 110.854 167.695 110.749C167.709 110.588 167.705 110.42 167.695 110.255C167.051 101.547 162.833 95.1638 154.999 91.2552C153.67 90.5939 153.131 89.9458 153.214 88.4587C153.349 85.9121 153.25 83.3558 153.25 80.852H137.486C137.486 83.6222 137.426 86.251 137.512 88.8765C137.552 90.0379 137.125 90.5347 136.084 91.0479C127.536 95.2428 122.941 102.135 123.034 111.627C123.116 120.126 127.185 126.597 134.646 130.792C138.91 133.187 143.317 135.329 147.607 137.678C150.377 139.195 151.647 142.334 150.883 145.265C150.086 148.322 147.366 150.447 144.246 150.453C141.178 150.46 138.454 148.417 137.618 145.466C137.456 144.9 137.377 144.311 137.248 143.689H122.006C121.963 143.975 121.9 144.183 121.906 144.39C121.923 144.992 121.916 145.601 122.006 146.196C123.305 154.81 127.929 160.906 136.021 164.275C137.198 164.765 137.565 165.315 137.515 166.532C137.416 169.029 137.486 171.536 137.486 174.106H153.25L153.253 174.112Z" fill="#645ADF"/>
<path d="M234.785 229.228H171.477C171.444 228.511 171.391 227.931 171.391 227.349C171.384 217.811 171.407 208.27 171.361 198.732C171.355 197.521 171.685 196.936 172.878 196.465C183.922 192.116 193.376 185.486 201.313 176.685C201.845 176.093 202.87 175.639 203.67 175.632C213.309 175.56 222.948 175.586 232.587 175.586H234.792C234.792 174.823 234.792 174.191 234.792 173.556C234.792 167.417 234.792 161.275 234.792 155.135C234.792 154.915 234.792 154.698 234.785 154.477C234.772 152.994 235.225 151.76 236.703 151.148C238.187 150.533 239.34 151.118 240.401 152.178C251.121 162.907 261.851 173.622 272.581 184.345C278.102 189.859 283.615 195.38 289.146 200.884C289.612 201.348 290.17 201.716 291.007 202.387C289.407 203.874 288.008 205.095 286.699 206.405C271.418 221.664 256.153 236.936 240.868 252.192C240.292 252.765 239.671 253.397 238.944 253.699C236.772 254.598 234.808 252.995 234.799 250.35C234.775 243.99 234.792 237.631 234.789 231.271C234.789 230.675 234.789 230.077 234.789 229.228H234.785Z" fill="#CAC9F9"/>
<path d="M0 52.2481C5.66246 46.6978 11.2654 41.2758 16.7923 35.7748C27.8495 24.7662 38.867 13.7181 49.8977 2.68321C50.1324 2.44961 50.3638 2.21602 50.5952 1.98242C51.5869 0.975662 52.7802 0.689426 54.0727 1.20268C55.3949 1.72909 55.9205 2.8181 55.9205 4.21638C55.9106 10.6287 55.9205 17.0411 55.9205 23.4567C55.9205 24.1049 55.9205 24.753 55.9205 25.5788H119.368C119.368 26.2763 119.368 26.7961 119.368 27.316C119.368 36.9625 119.348 46.609 119.394 56.2555C119.401 57.4136 119.06 57.9597 117.943 58.3973C106.886 62.7205 97.4154 69.3302 89.5481 78.1904C88.811 79.0228 88.0606 79.2991 86.9929 79.2958C77.301 79.2629 67.609 79.2761 57.917 79.2761H55.9238C55.9238 80.0131 55.9238 80.5954 55.9238 81.1778C55.9238 87.5901 55.9039 94.0025 55.9337 100.418C55.9403 101.928 55.5238 103.142 54.0429 103.738C52.5719 104.33 51.3984 103.758 50.3373 102.695C33.7929 86.1425 17.2386 69.6 0.690866 53.0509C0.538809 52.8996 0.409892 52.7285 0 52.2481Z" fill="#CAC9F9"/>
<defs>
<clipPath id="clip0_33_927">
<rect width="110.754" height="112.444" fill="white" transform="translate(158.606 14.9688)"/>
</clipPath>
</defs>
</svg>
