<svg width="16" height="16" viewBox="0 0 24 24" fill="none" xmlns="http://www.w3.org/2000/svg">
<path d="M7.75024 11.9999C7.75024 11.3096 8.30989 10.7499 9.00024 10.7499C9.6906 10.7499 10.2502 11.3096 10.2502 11.9999C10.2502 12.6903 9.6906 13.2499 9.00024 13.2499C8.30989 13.2499 7.75024 12.6903 7.75024 11.9999Z" fill="#1573FE"/>
<path fill-rule="evenodd" clip-rule="evenodd" d="M11.7522 1.77959C10.546 1.83947 9.44303 2.47629 7.23702 3.74993C5.03101 5.02358 3.928 5.6604 3.27305 6.67504C3.18335 6.814 3.1006 6.95732 3.02511 7.10448C2.47388 8.17901 2.47388 9.45265 2.47388 11.9999C2.47388 14.5472 2.47388 15.8209 3.02511 16.8954C3.1006 17.0425 3.18335 17.1859 3.27305 17.3248C3.928 18.3395 5.03101 18.9763 7.23702 20.2499C9.44302 21.5236 10.546 22.1604 11.7522 22.2203C11.9174 22.2285 12.0829 22.2285 12.2481 22.2203C13.4543 22.1604 14.5573 21.5236 16.7633 20.2499C18.9693 18.9763 20.0723 18.3395 20.7273 17.3248C20.817 17.1859 20.8997 17.0425 20.9752 16.8954C21.5264 15.8209 21.5264 14.5472 21.5264 11.9999C21.5264 9.45265 21.5264 8.17901 20.9752 7.10448C20.8997 6.95732 20.817 6.814 20.7273 6.67504C20.0723 5.6604 18.9693 5.02358 16.7633 3.74993C14.5573 2.47629 13.4543 1.83947 12.2481 1.77959C12.0829 1.77139 11.9174 1.77139 11.7522 1.77959ZM9.00024 9.24994C7.48146 9.24994 6.25024 10.4812 6.25024 11.9999C6.25024 13.5187 7.48146 14.7499 9.00024 14.7499C10.259 14.7499 11.3203 13.9042 11.6467 12.7499H13.4889C13.5442 13.021 13.5087 13.306 13.3822 13.559L13.3294 13.6645C13.1442 14.035 13.2943 14.4855 13.6648 14.6708C14.0353 14.856 14.4858 14.7058 14.6711 14.3353L14.7239 14.2298C14.9557 13.766 15.0487 13.2531 15.0028 12.7499H16.4889C16.5442 13.021 16.5087 13.306 16.3822 13.559L16.3294 13.6645C16.1442 14.035 16.2943 14.4855 16.6648 14.6708C17.0353 14.856 17.4858 14.7058 17.6711 14.3353L17.7239 14.2298C18.111 13.4556 18.111 12.5443 17.7239 11.7701C17.5645 11.4513 17.2386 11.2499 16.8822 11.2499H14.0153C14.0049 11.2497 13.9945 11.2497 13.984 11.2499H11.6467C11.3203 10.0957 10.259 9.24994 9.00024 9.24994Z" fill="#1573FE"/>
</svg>
