<svg width="15" height="15" viewBox="0 0 16 16" fill="none" xmlns="http://www.w3.org/2000/svg">
<path fill-rule="evenodd" clip-rule="evenodd" d="M6.00008 6.16793C4.98756 6.16793 4.16675 6.98874 4.16675 8.00126C4.16675 9.01378 4.98756 9.83459 6.00008 9.83459C6.83927 9.83459 7.54676 9.27076 7.76441 8.50126H8.99254C9.02941 8.68194 9.0057 8.872 8.9214 9.0406L8.8862 9.11099C8.76271 9.35797 8.86282 9.65831 9.10981 9.78181C9.3568 9.9053 9.65714 9.80519 9.78063 9.5582L9.81582 9.48782C9.9704 9.17866 10.0324 8.83671 10.0018 8.50126H10.9925C11.0294 8.68194 11.0057 8.872 10.9214 9.0406L10.8862 9.11099C10.7627 9.35797 10.8628 9.65831 11.1098 9.78181C11.3568 9.9053 11.6571 9.80519 11.7806 9.5582L11.8158 9.48782C12.0739 8.97168 12.0739 8.36417 11.8158 7.84803C11.7096 7.63551 11.4923 7.50126 11.2547 7.50126H9.34348C9.34027 7.50119 9.33705 7.50116 9.33384 7.50115C9.33009 7.50114 9.32633 7.50118 9.32258 7.50126H7.76441C7.54676 6.73176 6.83927 6.16793 6.00008 6.16793ZM5.16675 8.00126C5.16675 7.54102 5.53985 7.16793 6.00008 7.16793C6.46032 7.16793 6.83342 7.54102 6.83342 8.00126C6.83342 8.4615 6.46032 8.83459 6.00008 8.83459C5.53985 8.83459 5.16675 8.4615 5.16675 8.00126Z" fill="#8B8B8B"/>
<path fill-rule="evenodd" clip-rule="evenodd" d="M8.19017 0.68831C8.06352 0.682022 7.93664 0.682022 7.81 0.68831C7.32109 0.712583 6.87098 0.854643 6.36921 1.08749C5.88073 1.31418 5.31311 1.6419 4.59499 2.0565L4.55432 2.07999C3.83621 2.49459 3.26858 2.8223 2.82802 3.132C2.37548 3.45012 2.0274 3.7689 1.76193 4.18017C1.69316 4.2867 1.62972 4.39658 1.57184 4.5094C1.34841 4.94495 1.24638 5.40578 1.19715 5.95675C1.14922 6.49314 1.14923 7.14857 1.14923 7.97778V8.02474C1.14923 8.85395 1.14922 9.50938 1.19715 10.0458C1.24638 10.5967 1.34841 11.0576 1.57184 11.4931C1.62972 11.6059 1.69316 11.7158 1.76193 11.8224C2.0274 12.2336 2.37548 12.5524 2.82802 12.8705C3.26857 13.1802 3.83616 13.5079 4.55425 13.9225L4.59498 13.946C5.3131 14.3606 5.88072 14.6883 6.36921 14.915C6.87098 15.1479 7.32109 15.2899 7.81 15.3142C7.93664 15.3205 8.06352 15.3205 8.19017 15.3142C8.67908 15.2899 9.12919 15.1479 9.63096 14.915C10.1194 14.6883 10.6871 14.3606 11.4052 13.946L11.4459 13.9225C12.164 13.5079 12.7316 13.1802 13.1721 12.8705C13.6247 12.5524 13.9728 12.2336 14.2382 11.8224C14.307 11.7158 14.3704 11.6059 14.4283 11.4931C14.6518 11.0576 14.7538 10.5967 14.803 10.0458C14.8509 9.50939 14.8509 8.85397 14.8509 8.02478V7.97778C14.8509 7.14859 14.8509 6.49313 14.803 5.95675C14.7538 5.40578 14.6518 4.94495 14.4283 4.5094C14.3704 4.39658 14.307 4.2867 14.2382 4.18017C13.9728 3.7689 13.6247 3.45012 13.1721 3.132C12.7316 2.8223 12.164 2.49459 11.4458 2.07999L11.4052 2.0565C10.6871 1.6419 10.1194 1.31418 9.63096 1.08749C9.12919 0.854643 8.67908 0.712583 8.19017 0.68831ZM7.85959 1.68708C7.95319 1.68243 8.04697 1.68243 8.14058 1.68708C8.4558 1.70273 8.77542 1.7929 9.21002 1.99458C9.6533 2.20029 10.1826 2.50534 10.9255 2.93427C11.6684 3.3632 12.1973 3.66905 12.5971 3.95009C12.989 4.22562 13.2269 4.45733 13.3981 4.72249C13.4489 4.80124 13.4958 4.88245 13.5386 4.96584C13.6826 5.24666 13.7643 5.56854 13.807 6.04575C13.8505 6.5325 13.8509 7.1434 13.8509 8.00126C13.8509 8.85912 13.8505 9.47002 13.807 9.95676C13.7643 10.434 13.6826 10.7559 13.5386 11.0367C13.4958 11.1201 13.4489 11.2013 13.3981 11.28C13.2269 11.5452 12.989 11.7769 12.5971 12.0524C12.1973 12.3335 11.6684 12.6393 10.9255 13.0682C10.1826 13.4972 9.6533 13.8022 9.21002 14.0079C8.77542 14.2096 8.4558 14.2998 8.14058 14.3154C8.04697 14.3201 7.95319 14.3201 7.85959 14.3154C7.54437 14.2998 7.22475 14.2096 6.79015 14.0079C6.34687 13.8022 5.81759 13.4972 5.07466 13.0682C4.33173 12.6393 3.80291 12.3335 3.40312 12.0524C3.01116 11.7769 2.77326 11.5452 2.60209 11.28C2.55126 11.2013 2.50437 11.1201 2.4616 11.0367C2.31754 10.7559 2.23582 10.434 2.19318 9.95676C2.14969 9.47002 2.14923 8.85912 2.14923 8.00126C2.14923 7.1434 2.14969 6.5325 2.19318 6.04575C2.23582 5.56854 2.31754 5.24666 2.4616 4.96584C2.50437 4.88245 2.55126 4.80124 2.60209 4.72249C2.77326 4.45733 3.01116 4.22562 3.40312 3.95009C3.80291 3.66905 4.33173 3.3632 5.07466 2.93427C5.81759 2.50534 6.34687 2.20029 6.79015 1.99458C7.22475 1.7929 7.54437 1.70273 7.85959 1.68708Z" fill="#8B8B8B"/>
</svg>
