<svg width="16" height="16" viewBox="0 0 16 16" fill="none" xmlns="http://www.w3.org/2000/svg">
<path d="M5.33333 4.83337C5.05719 4.83337 4.83333 5.05723 4.83333 5.33337C4.83333 5.60952 5.05719 5.83337 5.33333 5.83337H7.33333C7.60948 5.83337 7.83333 5.60952 7.83333 5.33337C7.83333 5.05723 7.60948 4.83337 7.33333 4.83337H5.33333Z" />
<path d="M5.33333 7.50004C5.05719 7.50004 4.83333 7.7239 4.83333 8.00004C4.83333 8.27618 5.05719 8.50004 5.33333 8.50004H10.6667C10.9428 8.50004 11.1667 8.27618 11.1667 8.00004C11.1667 7.7239 10.9428 7.50004 10.6667 7.50004H5.33333Z" />
<path d="M5.33333 10.1667C5.05719 10.1667 4.83333 10.3906 4.83333 10.6667C4.83333 10.9428 5.05719 11.1667 5.33333 11.1667H7.33333C7.60948 11.1667 7.83333 10.9428 7.83333 10.6667C7.83333 10.3906 7.60948 10.1667 7.33333 10.1667H5.33333Z" />
<path fill-rule="evenodd" clip-rule="evenodd" d="M10.0171 0.852953C9.44565 0.833374 8.78075 0.833374 8.00738 0.833374H7.96983C6.74548 0.833369 5.78574 0.833364 5.02432 0.91586C4.24729 1.00004 3.61771 1.17492 3.08016 1.56548C2.75473 1.80191 2.46854 2.0881 2.2321 2.41353C1.84155 2.95108 1.66667 3.58067 1.58249 4.35769C1.49999 5.11911 1.49999 6.07885 1.5 7.30321V8.69687C1.49999 9.92123 1.49999 10.881 1.58249 11.6424C1.66667 12.4194 1.84155 13.049 2.2321 13.5866C2.46854 13.912 2.75473 14.1982 3.08016 14.4346C3.61771 14.8252 4.24729 15 5.02432 15.0842C5.78573 15.1667 6.74544 15.1667 7.96977 15.1667H8.03018C9.25451 15.1667 10.2143 15.1667 10.9757 15.0842C11.7527 15 12.3823 14.8252 12.9198 14.4346C13.2453 14.1982 13.5315 13.912 13.7679 13.5866C14.1585 13.049 14.3333 12.4194 14.4175 11.6424C14.5 10.881 14.5 9.92126 14.5 8.69694V7.32603C14.5 6.55265 14.5 5.88773 14.4804 5.31625C14.4376 4.06729 14.3025 3.1493 13.7679 2.41353C13.5315 2.0881 13.2453 1.80191 12.9198 1.56548C12.1841 1.0309 11.2661 0.895744 10.0171 0.852953ZM3.66794 2.37449C4.00661 2.12844 4.44009 1.98501 5.13203 1.91004C5.83333 1.83406 6.73895 1.83337 8 1.83337C8.56557 1.83337 9.06119 1.83341 9.50122 1.84058C9.50413 2.15702 9.51398 2.38997 9.5472 2.59971C9.80699 4.23996 11.0934 5.52639 12.7337 5.78618C12.9434 5.8194 13.1764 5.82925 13.4928 5.83216C13.5 6.27218 13.5 6.76781 13.5 7.33337V8.66671C13.5 9.92775 13.4993 10.8334 13.4233 11.5347C13.3484 12.2266 13.2049 12.6601 12.9589 12.9988C12.7841 13.2393 12.5726 13.4508 12.3321 13.6256C11.9934 13.8716 11.5599 14.0151 10.868 14.09C10.1667 14.166 9.26105 14.1667 8 14.1667C6.73895 14.1667 5.83333 14.166 5.13203 14.09C4.44009 14.0151 4.00661 13.8716 3.66794 13.6256C3.42741 13.4508 3.21588 13.2393 3.04112 12.9988C2.79506 12.6601 2.65163 12.2266 2.57667 11.5347C2.50069 10.8334 2.5 9.92775 2.5 8.66671V7.33337C2.5 6.07233 2.50069 5.1667 2.57667 4.4654C2.65163 3.77346 2.79506 3.33999 3.04112 3.00132C3.21588 2.76078 3.42741 2.54925 3.66794 2.37449ZM10.5349 2.44327C10.5132 2.30658 10.505 2.1483 10.5019 1.87834C11.4087 1.94085 11.9324 2.08414 12.3321 2.37449C12.5726 2.54925 12.7841 2.76078 12.9589 3.00132C13.2492 3.40095 13.3925 3.92462 13.455 4.83152C13.1851 4.8284 13.0268 4.82014 12.8901 4.79849C11.6777 4.60647 10.7269 3.65563 10.5349 2.44327Z" />
</svg>
