<svg width="22" height="25" viewBox="0 0 22 25" fill="none" xmlns="http://www.w3.org/2000/svg">
<path d="M11.0681 14.3438V12.7812L18.2244 5.625L19.7869 7.1875L12.6306 14.3438H11.0681ZM20.5994 6.375L21.7556 5.21875C21.8806 5.09375 21.9431 4.96354 21.9431 4.82812C21.9431 4.69271 21.8806 4.5625 21.7556 4.4375L20.9119 3.59375C20.8077 3.48958 20.6983 3.4375 20.5837 3.4375C20.4692 3.4375 20.3598 3.48958 20.2556 3.59375L19.0369 4.8125L20.5994 6.375ZM0.943115 21.25V19.375H3.56812V9.8125C3.56812 8.04167 4.09416 6.47917 5.14624 5.125C6.19832 3.77083 7.54728 2.91667 9.19312 2.5625V1.65625C9.19312 1.17708 9.36499 0.78125 9.70874 0.46875C10.0525 0.15625 10.4639 0 10.9431 0C11.4223 0 11.8337 0.15625 12.1775 0.46875C12.5212 0.78125 12.6931 1.17708 12.6931 1.65625V2.5625C13.4639 2.6875 14.141 2.94271 14.7244 3.32812C15.3077 3.71354 15.8806 4.1875 16.4431 4.75L15.0994 6.09375C14.516 5.48958 13.891 5.03125 13.2244 4.71875C12.5577 4.40625 11.7973 4.25 10.9431 4.25C9.38062 4.25 8.07332 4.78646 7.02124 5.85938C5.96916 6.93229 5.44312 8.25 5.44312 9.8125V19.375H16.4744V13.1562L18.3494 11.2812V19.375H20.9431V21.25H0.943115ZM10.9431 25C10.2556 25 9.66707 24.7552 9.17749 24.2656C8.68791 23.776 8.44312 23.1875 8.44312 22.5H13.4431C13.4431 23.1875 13.1983 23.776 12.7087 24.2656C12.2192 24.7552 11.6306 25 10.9431 25Z" fill="#CAC9F9"/>
</svg>
