<svg width="149" height="32" viewBox="0 0 149 32" fill="none" xmlns="http://www.w3.org/2000/svg">
<path d="M34.3701 25.1752V7.66705H43.0105C44.2831 7.66705 45.3297 7.89675 46.1502 8.35615C46.9875 8.81555 47.6154 9.46211 48.034 10.2958C48.4526 11.1296 48.6619 12.1249 48.6619 13.2819C48.6619 14.4219 48.4443 15.4173 48.0089 16.268C47.5735 17.1188 46.9205 17.7823 46.0497 18.2587C45.1957 18.7181 44.1241 18.9478 42.8347 18.9478H37.6354V25.1752H34.3701ZM37.6354 16.1149H42.7342C43.5715 16.1149 44.2162 15.8682 44.6683 15.3747C45.1371 14.8643 45.3716 14.1667 45.3716 13.2819C45.3716 12.6864 45.2711 12.1845 45.0702 11.7761C44.8692 11.3678 44.5762 11.053 44.191 10.8318C43.8059 10.6106 43.3203 10.5 42.7342 10.5H37.6354V16.1149Z" fill="white"/>
<path d="M56.5528 25.4815C55.1127 25.4815 53.907 25.2348 52.9358 24.7414C51.9646 24.2309 51.2362 23.4568 50.7506 22.4189C50.265 21.381 50.0222 20.0623 50.0222 18.4629C50.0222 16.8465 50.265 15.5279 50.7506 14.507C51.2362 13.4691 51.9646 12.7034 52.9358 12.21C53.907 11.6996 55.1127 11.4443 56.5528 11.4443C58.0096 11.4443 59.2152 11.6996 60.1697 12.21C61.1409 12.7034 61.8693 13.4691 62.3549 14.507C62.8405 15.5279 63.0833 16.8465 63.0833 18.4629C63.0833 20.0623 62.8405 21.381 62.3549 22.4189C61.8693 23.4568 61.1409 24.2309 60.1697 24.7414C59.2152 25.2348 58.0096 25.4815 56.5528 25.4815ZM56.5528 22.9293C57.3565 22.9293 58.0012 22.7762 58.4868 22.4699C58.9891 22.1466 59.3492 21.6702 59.5668 21.0407C59.8013 20.3941 59.9185 19.5944 59.9185 18.6416V18.2843C59.9185 17.3314 59.8013 16.5403 59.5668 15.9107C59.3492 15.2641 58.9891 14.7877 58.4868 14.4815C58.0012 14.1582 57.3565 13.9965 56.5528 13.9965C55.749 13.9965 55.0959 14.1582 54.5936 14.4815C54.108 14.7877 53.748 15.2641 53.5135 15.9107C53.2959 16.5403 53.187 17.3314 53.187 18.2843V18.6416C53.187 19.5944 53.2959 20.3941 53.5135 21.0407C53.748 21.6702 54.108 22.1466 54.5936 22.4699C55.0959 22.7762 55.749 22.9293 56.5528 22.9293Z" fill="white"/>
<path d="M65.6869 25.1752V6.72273H68.7512V25.1752H65.6869Z" fill="white"/>
<path d="M72.0153 25.1752V6.72273H75.0796V17.4676L79.8268 11.7506H83.4186L78.9979 16.9571L83.6698 25.1752H80.1533L77.0388 19.2286L75.0796 21.1427V25.1752H72.0153Z" fill="white"/>
<path d="M88.4064 25.4815C88.038 25.4815 87.611 25.4305 87.1254 25.3284C86.6565 25.2433 86.1961 25.0732 85.7439 24.8179C85.3086 24.5627 84.9486 24.1884 84.6639 23.695C84.3792 23.1845 84.2369 22.5209 84.2369 21.7042C84.2369 20.7854 84.4378 20.0283 84.8397 19.4328C85.2416 18.8202 85.8025 18.3438 86.5226 18.0035C87.2594 17.6462 88.1301 17.3995 89.1348 17.2634C90.1562 17.1102 91.2698 17.0337 92.4754 17.0337V15.9362C92.4754 15.5449 92.4168 15.1961 92.2996 14.8898C92.1824 14.5836 91.9647 14.3453 91.6465 14.1752C91.3451 13.988 90.8846 13.8945 90.2651 13.8945C89.6455 13.8945 89.1599 13.971 88.8083 14.1242C88.4566 14.2773 88.2138 14.4645 88.0799 14.6856C87.9459 14.9068 87.8789 15.1365 87.8789 15.3747V15.7321H84.9151C84.8983 15.647 84.8899 15.5619 84.8899 15.4768C84.8899 15.3918 84.8899 15.2897 84.8899 15.1706C84.8899 14.4049 85.116 13.7413 85.5681 13.1798C86.0202 12.6183 86.6482 12.193 87.4519 11.9037C88.2557 11.5975 89.185 11.4443 90.24 11.4443C91.4456 11.4443 92.4336 11.6145 93.2038 11.9548C93.9908 12.2951 94.5769 12.78 94.962 13.4095C95.3472 14.0391 95.5397 14.8047 95.5397 15.7065V22.036C95.5397 22.3593 95.6318 22.589 95.816 22.7251C96.0002 22.8612 96.2012 22.9293 96.4189 22.9293H97.2226V25.0732C97.0552 25.1412 96.8124 25.2178 96.4942 25.3029C96.1761 25.4049 95.7826 25.456 95.3137 25.456C94.8783 25.456 94.4848 25.3794 94.1332 25.2263C93.7983 25.0902 93.5136 24.886 93.2792 24.6138C93.0447 24.3415 92.8773 24.0182 92.7768 23.6439H92.6261C92.3415 24.0012 91.9982 24.3245 91.5963 24.6138C91.2112 24.886 90.7507 25.0987 90.2148 25.2518C89.6958 25.4049 89.0929 25.4815 88.4064 25.4815ZM89.3357 22.9293C89.8381 22.9293 90.2818 22.8527 90.667 22.6996C91.0688 22.5465 91.3954 22.3338 91.6465 22.0615C91.9145 21.7893 92.1154 21.4575 92.2494 21.0662C92.4001 20.6748 92.4754 20.2495 92.4754 19.7901V19.1775C91.5544 19.1775 90.7005 19.2371 89.9134 19.3562C89.1432 19.4753 88.5236 19.6965 88.0547 20.0198C87.6026 20.3431 87.3766 20.8025 87.3766 21.398C87.3766 21.7042 87.4436 21.9765 87.5775 22.2147C87.7282 22.4359 87.9459 22.6145 88.2306 22.7506C88.532 22.8697 88.9004 22.9293 89.3357 22.9293Z" fill="white"/>
<path d="M105.679 25.4815C104.724 25.4815 103.812 25.3794 102.941 25.1752C102.07 24.9541 101.3 24.6223 100.63 24.1799C99.9604 23.7205 99.4329 23.159 99.0478 22.4954C98.6626 21.8148 98.4701 21.0151 98.4701 20.0963C98.4701 19.9943 98.4701 19.8922 98.4701 19.7901C98.4868 19.688 98.4952 19.6114 98.4952 19.5604H101.786C101.786 19.5944 101.777 19.6625 101.76 19.7646C101.76 19.8496 101.76 19.9262 101.76 19.9943C101.76 20.5557 101.92 21.0407 102.238 21.449C102.556 21.8404 103.016 22.1466 103.619 22.3678C104.222 22.572 104.934 22.6741 105.754 22.6741C106.307 22.6741 106.792 22.64 107.211 22.572C107.646 22.5039 108.015 22.4103 108.316 22.2912C108.634 22.1551 108.894 22.002 109.095 21.8318C109.296 21.6447 109.438 21.4405 109.522 21.2193C109.622 20.9981 109.672 20.7599 109.672 20.5047C109.672 20.0113 109.522 19.6029 109.22 19.2796C108.919 18.9564 108.509 18.6841 107.99 18.4629C107.487 18.2417 106.91 18.0461 106.256 17.8759C105.62 17.6888 104.959 17.5016 104.272 17.3144C103.602 17.1273 102.941 16.9061 102.288 16.6508C101.652 16.3786 101.074 16.0553 100.555 15.681C100.052 15.3067 99.6506 14.8388 99.3492 14.2773C99.0478 13.6988 98.897 13.0097 98.897 12.21C98.897 11.3933 99.0645 10.6787 99.3994 10.0661C99.751 9.4536 100.237 8.95167 100.856 8.56033C101.493 8.15197 102.229 7.85421 103.067 7.66705C103.904 7.46287 104.816 7.36079 105.804 7.36079C106.725 7.36079 107.588 7.46287 108.391 7.66705C109.212 7.85421 109.932 8.16048 110.552 8.58585C111.171 8.9942 111.657 9.52166 112.008 10.1682C112.36 10.7978 112.536 11.5549 112.536 12.4397V12.746H109.296V12.4907C109.296 11.9973 109.145 11.5804 108.844 11.2402C108.559 10.8999 108.149 10.6361 107.613 10.449C107.094 10.2618 106.483 10.1682 105.779 10.1682C105.026 10.1682 104.381 10.2448 103.845 10.3979C103.309 10.534 102.899 10.7467 102.614 11.036C102.33 11.3082 102.187 11.6485 102.187 12.0569C102.187 12.4822 102.338 12.8395 102.64 13.1288C102.941 13.418 103.343 13.6648 103.845 13.8689C104.364 14.0731 104.942 14.2603 105.578 14.4304C106.231 14.6006 106.893 14.7877 107.563 14.9919C108.249 15.1791 108.911 15.4003 109.547 15.6555C110.2 15.9107 110.778 16.234 111.28 16.6253C111.799 16.9997 112.209 17.4676 112.511 18.029C112.812 18.5905 112.963 19.2626 112.963 20.0453C112.963 21.3554 112.645 22.4103 112.008 23.21C111.389 24.0097 110.526 24.5882 109.421 24.9456C108.333 25.3029 107.085 25.4815 105.679 25.4815Z" fill="white"/>
<path d="M119.116 25.4815C118.748 25.4815 118.321 25.4305 117.835 25.3284C117.367 25.2433 116.906 25.0732 116.454 24.8179C116.019 24.5627 115.659 24.1884 115.374 23.695C115.089 23.1845 114.947 22.5209 114.947 21.7042C114.947 20.7854 115.148 20.0283 115.55 19.4328C115.952 18.8202 116.513 18.3438 117.233 18.0035C117.969 17.6462 118.84 17.3995 119.845 17.2634C120.866 17.1102 121.98 17.0337 123.185 17.0337V15.9362C123.185 15.5449 123.127 15.1961 123.01 14.8898C122.892 14.5836 122.675 14.3453 122.357 14.1752C122.055 13.988 121.595 13.8945 120.975 13.8945C120.356 13.8945 119.87 13.971 119.518 14.1242C119.167 14.2773 118.924 14.4645 118.79 14.6856C118.656 14.9068 118.589 15.1365 118.589 15.3747V15.7321H115.625C115.608 15.647 115.6 15.5619 115.6 15.4768C115.6 15.3918 115.6 15.2897 115.6 15.1706C115.6 14.4049 115.826 13.7413 116.278 13.1798C116.73 12.6183 117.358 12.193 118.162 11.9037C118.966 11.5975 119.895 11.4443 120.95 11.4443C122.156 11.4443 123.144 11.6145 123.914 11.9548C124.701 12.2951 125.287 12.78 125.672 13.4095C126.057 14.0391 126.25 14.8047 126.25 15.7065V22.036C126.25 22.3593 126.342 22.589 126.526 22.7251C126.71 22.8612 126.911 22.9293 127.129 22.9293H127.933V25.0732C127.765 25.1412 127.522 25.2178 127.204 25.3029C126.886 25.4049 126.493 25.456 126.024 25.456C125.588 25.456 125.195 25.3794 124.843 25.2263C124.508 25.0902 124.224 24.886 123.989 24.6138C123.755 24.3415 123.587 24.0182 123.487 23.6439H123.336C123.051 24.0012 122.708 24.3245 122.306 24.6138C121.921 24.886 121.461 25.0987 120.925 25.2518C120.406 25.4049 119.803 25.4815 119.116 25.4815ZM120.046 22.9293C120.548 22.9293 120.992 22.8527 121.377 22.6996C121.779 22.5465 122.105 22.3338 122.357 22.0615C122.624 21.7893 122.825 21.4575 122.959 21.0662C123.11 20.6748 123.185 20.2495 123.185 19.7901V19.1775C122.264 19.1775 121.41 19.2371 120.623 19.3562C119.853 19.4753 119.234 19.6965 118.765 20.0198C118.313 20.3431 118.087 20.8025 118.087 21.398C118.087 21.7042 118.154 21.9765 118.288 22.2147C118.438 22.4359 118.656 22.6145 118.941 22.7506C119.242 22.8697 119.61 22.9293 120.046 22.9293Z" fill="white"/>
<path d="M130.31 25.1752V14.3028H128.401V11.7506H130.31V10.0406C130.31 9.44509 130.402 8.88361 130.587 8.35615C130.788 7.81168 131.131 7.36929 131.616 7.029C132.102 6.6887 132.78 6.51855 133.651 6.51855C133.902 6.51855 134.153 6.53557 134.404 6.5696C134.672 6.60363 134.924 6.65467 135.158 6.72273C135.392 6.77378 135.593 6.83333 135.761 6.90139V9.07077H134.505C134.137 9.07077 133.852 9.17286 133.651 9.37704C133.467 9.5642 133.375 9.84494 133.375 10.2193V11.7506H135.761V14.3028H133.375V25.1752H130.31Z" fill="white"/>
<path d="M142.938 25.4815C141.532 25.4815 140.36 25.2348 139.422 24.7414C138.484 24.2309 137.781 23.4568 137.312 22.4189C136.843 21.381 136.609 20.0623 136.609 18.4629C136.609 16.8465 136.843 15.5279 137.312 14.507C137.781 13.4691 138.484 12.7034 139.422 12.21C140.36 11.6996 141.532 11.4443 142.938 11.4443C144.211 11.4443 145.274 11.691 146.128 12.1845C146.999 12.6609 147.652 13.401 148.087 14.4049C148.523 15.4088 148.74 16.7104 148.74 18.3098V19.2286H139.748C139.782 20.0623 139.908 20.7684 140.125 21.3469C140.343 21.9084 140.678 22.3338 141.13 22.623C141.599 22.8953 142.21 23.0314 142.963 23.0314C143.349 23.0314 143.709 22.9803 144.044 22.8783C144.378 22.7762 144.671 22.623 144.923 22.4189C145.174 22.1977 145.366 21.9254 145.5 21.6021C145.651 21.2789 145.726 20.9045 145.726 20.4792H148.74C148.74 21.3299 148.59 22.0701 148.288 22.6996C148.004 23.3291 147.593 23.8481 147.058 24.2565C146.539 24.6648 145.927 24.9711 145.224 25.1752C144.521 25.3794 143.759 25.4815 142.938 25.4815ZM139.799 17.0337H145.551C145.551 16.4722 145.484 15.9958 145.35 15.6044C145.232 15.2131 145.057 14.8898 144.822 14.6346C144.604 14.3794 144.337 14.2007 144.018 14.0986C143.7 13.9795 143.34 13.92 142.938 13.92C142.285 13.92 141.733 14.0306 141.281 14.2518C140.845 14.473 140.51 14.8133 140.276 15.2727C140.041 15.7321 139.882 16.3191 139.799 17.0337Z" fill="white"/>
<path d="M3.50273 31.9965H0V22.3686C0.686207 22.3372 1.28365 22.2849 1.88109 22.2849C6.20659 22.2779 10.5287 22.2884 14.8542 22.2779C17.3668 22.2709 19.009 20.8227 18.9987 18.6696C18.9885 16.5305 17.3429 15.0857 14.82 15.0543C12.659 15.0264 10.4945 15.0439 8.33349 15.0543C7.08739 15.0578 6.13148 14.6077 6.17586 13.1979C6.21341 11.9206 7.10787 11.4461 8.2891 11.4495C10.7369 11.46 13.1847 11.3867 15.6291 11.4705C19.4869 11.5996 22.5117 14.8275 22.5185 18.7115C22.5253 22.5989 19.504 25.764 15.5813 25.8478C12.1674 25.9211 8.74999 25.9525 5.34285 25.8303C3.77584 25.7745 3.3491 26.3294 3.47883 27.8229C3.5949 29.142 3.50273 30.482 3.50273 32V31.9965Z" fill="white"/>
<path d="M22.4673 0V9.57906C21.8187 9.61047 21.2212 9.65932 20.6204 9.66281C16.2983 9.66979 11.9728 9.65583 7.65071 9.67328C5.13121 9.68375 3.50616 11.1389 3.53006 13.299C3.55396 15.3823 5.15169 16.8375 7.55854 16.8864C9.77761 16.9282 11.9967 16.9108 14.2158 16.8933C15.3936 16.8829 16.3154 17.3121 16.3495 18.6033C16.387 19.9817 15.4789 20.5016 14.2089 20.4947C11.7611 20.4807 9.31331 20.547 6.87233 20.4702C3.00089 20.3516 1.96369e-05 17.1376 0.00684757 13.2292C0.0136755 9.42552 2.99748 6.22203 6.79381 6.11734C10.317 6.01963 13.8471 6.03359 17.3737 6.10338C18.613 6.12781 19.1421 5.80327 19.0431 4.45278C18.9373 3.01505 19.0192 1.56336 19.0192 0H22.4673V0Z" fill="white"/>
</svg>
