<svg width="146" height="31" viewBox="0 0 146 31" fill="none" xmlns="http://www.w3.org/2000/svg">
<path d="M0.89707 25.2772V1.47722H8.28207C10.2654 1.47722 11.9454 2.16555 13.3221 3.54222C14.6987 4.91889 15.3871 6.59889 15.3871 8.58222C15.3871 10.5656 14.6987 12.2456 13.3221 13.6222C11.9454 14.9989 10.2654 15.6872 8.28207 15.6872H3.69707V25.2772H0.89707ZM8.17707 4.03222H3.69707V13.1322H8.17707C9.3904 13.1322 10.4287 12.6889 11.2921 11.8022C12.1787 10.8922 12.6221 9.81889 12.6221 8.58222C12.6221 7.34555 12.1787 6.28389 11.2921 5.39722C10.4287 4.48722 9.3904 4.03222 8.17707 4.03222ZM19.2297 23.2122C17.9464 21.4856 17.3047 19.2572 17.3047 16.5272C17.3047 13.7972 17.9464 11.5806 19.2297 9.87722C20.513 8.15055 22.4264 7.28722 24.9697 7.28722C27.5364 7.28722 29.473 8.15055 30.7797 9.87722C32.0864 11.5806 32.7397 13.7972 32.7397 16.5272C32.7397 19.2572 32.0864 21.4856 30.7797 23.2122C29.473 24.9156 27.5364 25.7672 24.9697 25.7672C22.4264 25.7672 20.513 24.9156 19.2297 23.2122ZM21.2247 11.5922C20.3847 12.8522 19.9647 14.4972 19.9647 16.5272C19.9647 18.5572 20.3847 20.2139 21.2247 21.4972C22.0647 22.7572 23.3247 23.3872 25.0047 23.3872C26.6847 23.3872 27.9447 22.7572 28.7847 21.4972C29.648 20.2139 30.0797 18.5572 30.0797 16.5272C30.0797 14.4972 29.648 12.8522 28.7847 11.5922C27.9447 10.3089 26.6847 9.66722 25.0047 9.66722C23.3247 9.66722 22.0647 10.3089 21.2247 11.5922ZM37.1152 0.77722H39.7752V21.4272C39.7752 22.7106 40.3002 23.3522 41.3502 23.3522C42.0269 23.3522 42.6919 23.1189 43.3452 22.6522L44.3952 24.5422C43.1119 25.3589 41.8986 25.7672 40.7552 25.7672C39.6119 25.7672 38.7136 25.4522 38.0602 24.8222C37.4302 24.1922 37.1152 23.0606 37.1152 21.4272V0.77722ZM60.0296 11.8022C60.0296 14.1822 58.6179 16.0722 55.7946 17.4722L60.4146 25.2772H57.3346L53.2746 18.3822C52.2246 18.6856 50.9646 18.9072 49.4946 19.0472V25.2772H46.8346V0.77722H49.4946V10.5422C50.8946 8.37222 52.7379 7.28722 55.0246 7.28722C56.7046 7.28722 57.9529 7.70722 58.7696 8.54722C59.6096 9.38722 60.0296 10.4722 60.0296 11.8022ZM54.9546 9.66722C53.4146 9.66722 52.1196 10.3322 51.0696 11.6622C50.0196 12.9689 49.4946 14.3922 49.4946 15.9322V16.7022C52.0846 16.4922 54.0446 15.9439 55.3746 15.0572C56.7046 14.1472 57.3696 13.1206 57.3696 11.9772C57.3696 11.3006 57.1712 10.7522 56.7746 10.3322C56.3779 9.88889 55.7712 9.66722 54.9546 9.66722ZM69.893 25.7672C67.8863 25.7672 66.2413 25.0089 64.958 23.4922C63.6747 21.9756 63.033 19.7939 63.033 16.9472C63.033 14.0772 63.838 11.7556 65.448 9.98222C67.0813 8.18555 69.0997 7.28722 71.503 7.28722C73.9297 7.28722 76.1113 7.96389 78.048 9.31722V21.7772L78.398 25.2772L76.088 25.4522L75.493 22.3022C74.1863 24.6122 72.3197 25.7672 69.893 25.7672ZM65.693 16.8772C65.693 18.9772 66.1363 20.5872 67.023 21.7072C67.9097 22.8272 69.0413 23.3872 70.418 23.3872C71.818 23.3872 72.9963 22.6989 73.953 21.3222C74.9097 19.9222 75.388 17.9506 75.388 15.4072V10.5422C74.2213 9.95889 72.973 9.66722 71.643 9.66722C69.9163 9.66722 68.493 10.3439 67.373 11.6972C66.253 13.0272 65.693 14.7539 65.693 16.8772ZM83.8739 20.5172C84.5739 21.2872 85.4839 21.9289 86.6039 22.4422C87.7472 22.9556 88.9839 23.2122 90.3139 23.2122C91.6672 23.2122 92.8222 22.8622 93.7789 22.1622C94.7589 21.4622 95.2489 20.4822 95.2489 19.2222C95.2489 17.9389 94.8289 16.9356 93.9889 16.2122C93.1722 15.4889 92.1689 14.9406 90.9789 14.5672C89.8122 14.1939 88.6339 13.7972 87.4439 13.3772C86.2772 12.9572 85.2739 12.2689 84.4339 11.3122C83.6172 10.3322 83.2089 9.04889 83.2089 7.46222C83.2089 5.29222 83.9089 3.65889 85.3089 2.56222C86.7322 1.46555 88.4005 0.91722 90.3139 0.91722C92.9505 0.91722 95.1322 1.46555 96.8589 2.56222L95.4589 4.80222C94.1289 3.96222 92.4022 3.54222 90.2789 3.54222C89.1589 3.54222 88.1672 3.85722 87.3039 4.48722C86.4405 5.11722 86.0089 6.05055 86.0089 7.28722C86.0089 8.85055 86.8139 9.99389 88.4239 10.7172C89.1239 11.0439 89.8939 11.3356 90.7339 11.5922C91.5972 11.8489 92.4489 12.1522 93.2889 12.5022C94.1522 12.8522 94.9339 13.2722 95.6339 13.7622C97.2439 14.8589 98.0489 16.5739 98.0489 18.9072C98.0489 21.2172 97.3022 22.9556 95.8089 24.1222C94.3389 25.2656 92.4722 25.8372 90.2089 25.8372C87.1989 25.8372 84.5505 24.7639 82.2639 22.6172L83.8739 20.5172ZM107.525 25.7672C105.518 25.7672 103.873 25.0089 102.59 23.4922C101.307 21.9756 100.665 19.7939 100.665 16.9472C100.665 14.0772 101.47 11.7556 103.08 9.98222C104.713 8.18555 106.732 7.28722 109.135 7.28722C111.562 7.28722 113.743 7.96389 115.68 9.31722V21.7772L116.03 25.2772L113.72 25.4522L113.125 22.3022C111.818 24.6122 109.952 25.7672 107.525 25.7672ZM103.325 16.8772C103.325 18.9772 103.768 20.5872 104.655 21.7072C105.542 22.8272 106.673 23.3872 108.05 23.3872C109.45 23.3872 110.628 22.6989 111.585 21.3222C112.542 19.9222 113.02 17.9506 113.02 15.4072V10.5422C111.853 9.95889 110.605 9.66722 109.275 9.66722C107.548 9.66722 106.125 10.3439 105.005 11.6972C103.885 13.0272 103.325 14.7539 103.325 16.8772ZM120.246 10.0522V7.77722H122.521V5.99222C122.521 4.00889 122.929 2.56222 123.746 1.65222C124.586 0.74222 125.671 0.28722 127.001 0.28722C128.354 0.28722 129.754 0.753887 131.201 1.68722L130.151 3.57722C128.937 3.04055 127.992 2.77222 127.316 2.77222C125.892 2.77222 125.181 3.79889 125.181 5.85222V7.77722H129.206V10.0522H125.181V30.8772H122.521V10.0522H120.246ZM138.261 25.7672C136.161 25.7672 134.423 25.0322 133.046 23.5622C131.693 22.0922 131.016 19.9339 131.016 17.0872C131.016 14.2406 131.821 11.8956 133.431 10.0522C135.041 8.20889 137.13 7.28722 139.696 7.28722C141.33 7.28722 142.648 7.78889 143.651 8.79222C144.655 9.77222 145.156 11.0089 145.156 12.5022C145.156 13.9722 144.386 15.3256 142.846 16.5622C141.33 17.7989 139.113 18.4172 136.196 18.4172C135.426 18.4172 134.61 18.3822 133.746 18.3122C133.91 19.9689 134.411 21.2289 135.251 22.0922C136.115 22.9556 137.153 23.3872 138.366 23.3872C140.396 23.3872 142.088 22.7572 143.441 21.4972L144.701 23.2122C142.928 24.9156 140.781 25.7672 138.261 25.7672ZM139.591 9.66722C137.981 9.66722 136.64 10.2389 135.566 11.3822C134.516 12.5256 133.898 14.0422 133.711 15.9322C134.481 16.0489 135.333 16.1072 136.266 16.1072C138.273 16.1072 139.813 15.7339 140.886 14.9872C141.96 14.2406 142.496 13.3772 142.496 12.3972C142.496 11.6739 142.228 11.0439 141.691 10.5072C141.178 9.94722 140.478 9.66722 139.591 9.66722Z"  fill-opacity="0.8"/>
</svg>
