<svg width="16" height="16" viewBox="0 0 16 16" fill="none" xmlns="http://www.w3.org/2000/svg">
<path d="M9.5 2C9.5 1.72386 9.72386 1.5 10 1.5L10.6667 1.5C12.7838 1.5 14.5 3.21624 14.5 5.33333V6C14.5 6.27614 14.2761 6.5 14 6.5C13.7239 6.5 13.5 6.27614 13.5 6V5.33333C13.5 3.76853 12.2315 2.5 10.6667 2.5H10C9.72386 2.5 9.5 2.27614 9.5 2Z" />
<path d="M1.5 5.33333C1.5 3.21624 3.21624 1.5 5.33333 1.5H6C6.27614 1.5 6.5 1.72386 6.5 2C6.5 2.27614 6.27614 2.5 6 2.5H5.33333C3.76853 2.5 2.5 3.76853 2.5 5.33333V6C2.5 6.27614 2.27614 6.5 2 6.5C1.72386 6.5 1.5 6.27614 1.5 6V5.33333Z" />
<path fill-rule="evenodd" clip-rule="evenodd" d="M5.3035 3.5C5.31342 3.5 5.32336 3.5 5.33333 3.5C5.34331 3.5 5.35325 3.5 5.36317 3.5C5.65171 3.49996 5.91626 3.49993 6.13147 3.52887C6.36846 3.56073 6.61894 3.63569 6.82496 3.84171C7.03097 4.04772 7.10594 4.29821 7.1378 4.5352C7.16673 4.7504 7.1667 5.01496 7.16667 5.3035C7.16667 5.31342 7.16667 5.32336 7.16667 5.33333C7.16667 5.3433 7.16667 5.35325 7.16667 5.36316C7.1667 5.65171 7.16673 5.91626 7.1378 6.13147C7.10594 6.36846 7.03097 6.61894 6.82496 6.82496C6.61894 7.03097 6.36846 7.10594 6.13147 7.1378C5.91626 7.16673 5.65171 7.1667 5.36316 7.16667C5.35325 7.16667 5.3433 7.16667 5.33333 7.16667C5.32336 7.16667 5.31342 7.16667 5.3035 7.16667C5.01496 7.1667 4.7504 7.16673 4.5352 7.1378C4.29821 7.10594 4.04772 7.03097 3.84171 6.82496C3.63569 6.61894 3.56073 6.36846 3.52887 6.13147C3.49993 5.91626 3.49996 5.65171 3.5 5.36317C3.5 5.35325 3.5 5.34331 3.5 5.33333C3.5 5.32336 3.5 5.31342 3.5 5.3035C3.49996 5.01496 3.49993 4.7504 3.52887 4.5352C3.56073 4.29821 3.63569 4.04772 3.84171 3.84171C4.04772 3.63569 4.29821 3.56073 4.5352 3.52887C4.7504 3.49993 5.01496 3.49996 5.3035 3.5ZM4.5489 4.54871C4.549 4.54859 4.54888 4.54874 4.5489 4.54871V4.54871ZM4.55045 4.54791L4.5489 4.54871L4.54791 4.55045C4.54723 4.55174 4.54616 4.55395 4.54477 4.55731C4.5388 4.57183 4.5286 4.60407 4.51995 4.66844C4.50106 4.80892 4.5 5.00493 4.5 5.33333C4.5 5.66174 4.50106 5.85774 4.51995 5.99822C4.5286 6.0626 4.5388 6.09484 4.54477 6.10936C4.54616 6.11272 4.54723 6.11493 4.54791 6.11622L4.54883 6.11784L4.55045 6.11876C4.55174 6.11943 4.55395 6.12051 4.55731 6.12189C4.57183 6.12787 4.60407 6.13806 4.66844 6.14672C4.80892 6.16561 5.00493 6.16667 5.33333 6.16667C5.66174 6.16667 5.85774 6.16561 5.99822 6.14672C6.0626 6.13806 6.09484 6.12787 6.10936 6.12189C6.11272 6.12051 6.11493 6.11943 6.11622 6.11876L6.11784 6.11784L6.11876 6.11622C6.11943 6.11493 6.12051 6.11272 6.12189 6.10936C6.12787 6.09484 6.13806 6.0626 6.14672 5.99822C6.16561 5.85774 6.16667 5.66174 6.16667 5.33333C6.16667 5.00493 6.16561 4.80892 6.14672 4.66844C6.13806 4.60407 6.12787 4.57183 6.12189 4.55731C6.12051 4.55395 6.11943 4.55174 6.11876 4.55045L6.11784 4.54883L6.11622 4.54791C6.11493 4.54723 6.11272 4.54616 6.10936 4.54477C6.09484 4.5388 6.0626 4.5286 5.99822 4.51995C5.85774 4.50106 5.66174 4.5 5.33333 4.5C5.00493 4.5 4.80892 4.50106 4.66844 4.51995C4.60407 4.5286 4.57183 4.5388 4.55731 4.54477C4.55395 4.54616 4.55174 4.54723 4.55045 4.54791ZM4.54883 6.11784C4.54865 6.11762 4.54856 6.11757 4.54883 6.11784V6.11784ZM6.11784 6.11784C6.11781 6.11786 6.11796 6.11775 6.11784 6.11784V6.11784Z" />
<path fill-rule="evenodd" clip-rule="evenodd" d="M10.6368 3.5H10.6965C10.985 3.49996 11.2496 3.49993 11.4648 3.52887C11.7018 3.56073 11.9523 3.63569 12.1583 3.84171C12.3643 4.04772 12.4393 4.29821 12.4711 4.5352C12.5001 4.7504 12.5 5.01496 12.5 5.3035V5.36316C12.5 5.65171 12.5001 5.91626 12.4711 6.13147C12.4393 6.36846 12.3643 6.61894 12.1583 6.82496C11.9523 7.03097 11.7018 7.10594 11.4648 7.1378C11.2496 7.16673 10.985 7.1667 10.6965 7.16667H10.6368C10.3483 7.1667 10.0837 7.16673 9.86853 7.1378C9.63154 7.10594 9.38106 7.03097 9.17504 6.82496C8.96903 6.61894 8.89406 6.36846 8.8622 6.13147C8.83327 5.91626 8.8333 5.65171 8.83333 5.36316C8.83333 5.35325 8.83333 5.3433 8.83333 5.33333C8.83333 5.32336 8.83333 5.31342 8.83333 5.3035C8.8333 5.01496 8.83327 4.7504 8.8622 4.5352C8.89406 4.29821 8.96903 4.04772 9.17504 3.84171C9.38106 3.63569 9.63154 3.56073 9.86853 3.52887C10.0837 3.49993 10.3483 3.49996 10.6368 3.5ZM9.88218 4.54878C9.88241 4.5486 9.88245 4.54851 9.88218 4.54878C9.88188 4.54908 9.882 4.54901 9.88218 4.54878ZM9.88378 4.54791L9.88218 4.54878L9.88124 4.55045C9.88057 4.55174 9.87949 4.55395 9.87811 4.55731C9.87213 4.57183 9.86194 4.60407 9.85328 4.66844C9.8344 4.80892 9.83333 5.00493 9.83333 5.33333C9.83333 5.66174 9.8344 5.85774 9.85328 5.99822C9.86194 6.0626 9.87213 6.09484 9.87811 6.10936C9.87949 6.11272 9.88057 6.11493 9.88124 6.11622L9.88216 6.11784L9.88378 6.11876C9.88507 6.11943 9.88728 6.12051 9.89064 6.12189C9.90516 6.12787 9.9374 6.13806 10.0018 6.14672C10.1423 6.16561 10.3383 6.16667 10.6667 6.16667C10.9951 6.16667 11.1911 6.16561 11.3316 6.14672C11.3959 6.13806 11.4282 6.12787 11.4427 6.12189C11.4461 6.12051 11.4483 6.11943 11.4496 6.11876L11.4512 6.11784L11.4521 6.11622C11.4528 6.11493 11.4538 6.11272 11.4552 6.10936C11.4612 6.09484 11.4714 6.0626 11.4801 5.99822C11.4989 5.85774 11.5 5.66174 11.5 5.33333C11.5 5.00493 11.4989 4.80892 11.4801 4.66844C11.4714 4.60407 11.4612 4.57183 11.4552 4.55731C11.4538 4.55395 11.4528 4.55174 11.4521 4.55045L11.4512 4.54882L11.4496 4.54791C11.4483 4.54723 11.4461 4.54616 11.4427 4.54477C11.4282 4.5388 11.3959 4.5286 11.3316 4.51995C11.1911 4.50106 10.9951 4.5 10.6667 4.5C10.3383 4.5 10.1423 4.50106 10.0018 4.51995C9.9374 4.5286 9.90516 4.5388 9.89064 4.54477C9.88888 4.5455 9.88744 4.54614 9.88628 4.54668C9.88522 4.54717 9.8844 4.54759 9.88378 4.54791Z" />
<path fill-rule="evenodd" clip-rule="evenodd" d="M10.6368 8.83333H10.6965C10.985 8.8333 11.2496 8.83327 11.4648 8.8622C11.7018 8.89406 11.9523 8.96903 12.1583 9.17504C12.3643 9.38106 12.4393 9.63154 12.4711 9.86853C12.5001 10.0837 12.5 10.3483 12.5 10.6368V10.6965C12.5 10.985 12.5001 11.2496 12.4711 11.4648C12.4393 11.7018 12.3643 11.9523 12.1583 12.1583C11.9523 12.3643 11.7018 12.4393 11.4648 12.4711C11.2496 12.5001 10.985 12.5 10.6965 12.5H10.6368C10.3483 12.5 10.0837 12.5001 9.86853 12.4711C9.63154 12.4393 9.38106 12.3643 9.17504 12.1583C8.96903 11.9523 8.89406 11.7018 8.8622 11.4648C8.83327 11.2496 8.8333 10.985 8.83333 10.6965V10.6368C8.8333 10.3483 8.83327 10.0837 8.8622 9.86853C8.89406 9.63154 8.96903 9.38106 9.17504 9.17504C9.38106 8.96903 9.63154 8.89406 9.86853 8.8622C10.0837 8.83327 10.3483 8.8333 10.6368 8.83333ZM9.88378 9.88124L9.88216 9.88216L9.88124 9.88378C9.88057 9.88507 9.87949 9.88728 9.87811 9.89064C9.87213 9.90516 9.86194 9.9374 9.85328 10.0018C9.8344 10.1423 9.83333 10.3383 9.83333 10.6667C9.83333 10.9951 9.8344 11.1911 9.85328 11.3316C9.86194 11.3959 9.87213 11.4282 9.87811 11.4427C9.87949 11.4461 9.88057 11.4483 9.88124 11.4496L9.88216 11.4512L9.88378 11.4521C9.88507 11.4528 9.88728 11.4538 9.89064 11.4552C9.90516 11.4612 9.9374 11.4714 10.0018 11.4801C10.1423 11.4989 10.3383 11.5 10.6667 11.5C10.9951 11.5 11.1911 11.4989 11.3316 11.4801C11.3959 11.4714 11.4282 11.4612 11.4427 11.4552C11.4434 11.455 11.444 11.4547 11.4446 11.4544C11.4469 11.4534 11.4485 11.4526 11.4496 11.4521L11.4512 11.4512L11.4521 11.4496C11.4528 11.4483 11.4538 11.4461 11.4552 11.4427C11.4612 11.4282 11.4714 11.3959 11.4801 11.3316C11.4989 11.1911 11.5 10.9951 11.5 10.6667C11.5 10.3383 11.4989 10.1423 11.4801 10.0018C11.4714 9.9374 11.4612 9.90516 11.4552 9.89064C11.4538 9.88728 11.4528 9.88507 11.4521 9.88378L11.4512 9.88216L11.4496 9.88124C11.4483 9.88057 11.4461 9.87949 11.4427 9.87811C11.4282 9.87213 11.3959 9.86194 11.3316 9.85328C11.1911 9.8344 10.9951 9.83333 10.6667 9.83333C10.3383 9.83333 10.1423 9.8344 10.0018 9.85328C9.9374 9.86194 9.90516 9.87213 9.89064 9.87811C9.88728 9.87949 9.88507 9.88057 9.88378 9.88124ZM9.88216 11.4512C9.88198 11.451 9.88189 11.4509 9.88216 11.4512C9.88246 11.4515 9.88239 11.4514 9.88216 11.4512Z" />
<path d="M2 9.5C2.27614 9.5 2.5 9.72386 2.5 10V10.6667C2.5 12.2315 3.76853 13.5 5.33333 13.5H6C6.27614 13.5 6.5 13.7239 6.5 14C6.5 14.2761 6.27614 14.5 6 14.5H5.33333C3.21624 14.5 1.5 12.7838 1.5 10.6667L1.5 10C1.5 9.72386 1.72386 9.5 2 9.5Z" />
<path d="M14 9.5C14.2761 9.5 14.5 9.72386 14.5 10V10.6667C14.5 12.7838 12.7838 14.5 10.6667 14.5H10C9.72386 14.5 9.5 14.2761 9.5 14C9.5 13.7239 9.72386 13.5 10 13.5H10.6667C12.2315 13.5 13.5 12.2315 13.5 10.6667V10C13.5 9.72386 13.7239 9.5 14 9.5Z" />
</svg>
