<svg width="26" height="26" viewBox="0 0 26 26" fill="none" xmlns="http://www.w3.org/2000/svg">
<path d="M0.441406 5.40918V0.00292969H5.84766V1.87793H2.31641V5.40918H0.441406ZM0.441406 25.0029V19.5967H2.31641V23.1279H5.84766V25.0029H0.441406ZM20.0352 25.0029V23.1279H23.5664V19.5967H25.4414V25.0029H20.0352ZM23.5664 5.40918V1.87793H20.0352V0.00292969H25.4414V5.40918H23.5664ZM20.0664 19.6592H22.0352V21.6279H20.0664V19.6592ZM20.0664 15.7217H22.0352V17.6904H20.0664V15.7217ZM18.0977 17.6904H20.0664V19.6592H18.0977V17.6904ZM16.1289 19.6592H18.0977V21.6279H16.1289V19.6592ZM14.1602 17.6904H16.1289V19.6592H14.1602V17.6904ZM18.0977 13.7529H20.0664V15.7217H18.0977V13.7529ZM16.1289 15.7217H18.0977V17.6904H16.1289V15.7217ZM14.1602 13.7529H16.1289V15.7217H14.1602V13.7529ZM22.0352 3.37793V11.2529H14.1602V3.37793H22.0352ZM11.6914 13.7529V21.6279H3.81641V13.7529H11.6914ZM11.6914 3.37793V11.2529H3.81641V3.37793H11.6914ZM10.1289 20.0654V15.3154H5.37891V20.0654H10.1289ZM10.1289 9.69043V4.94043H5.37891V9.69043H10.1289ZM20.4727 9.69043V4.94043H15.7227V9.69043H20.4727Z" fill="#CAC9F9"/>
</svg>
