<svg width="19" height="25" viewBox="0 0 19 25" fill="none" xmlns="http://www.w3.org/2000/svg">
<path d="M1.9458 24.8225C1.4958 24.8225 1.10205 24.66 0.764551 24.335C0.427051 24.01 0.258301 23.6308 0.258301 23.1975V9.41205C0.258301 8.97872 0.427051 8.59955 0.764551 8.27455C1.10205 7.94955 1.4958 7.78705 1.9458 7.78705H6.69893V9.41205H1.9458V23.1975H16.5708V9.41205H11.7614V7.78705H16.5708C17.0208 7.78705 17.4146 7.94955 17.7521 8.27455C18.0896 8.59955 18.2583 8.97872 18.2583 9.41205V23.1975C18.2583 23.6308 18.0896 24.01 17.7521 24.335C17.4146 24.66 17.0208 24.8225 16.5708 24.8225H1.9458ZM8.38643 16.5079V4.1308L5.91143 6.51414L4.70205 5.34955L9.23018 0.989136L13.7583 5.34955L12.5489 6.51414L10.0739 4.1308V16.5079H8.38643Z" fill="#645ADF"/>
</svg>
