<svg width="16" height="16" viewBox="0 0 16 16" fill="none" xmlns="http://www.w3.org/2000/svg">
<path d="M8.5625 5C8.5625 4.68934 8.31066 4.4375 8 4.4375C7.68934 4.4375 7.4375 4.68934 7.4375 5V10.2022C7.42684 10.1938 7.41596 10.1852 7.40487 10.1763C7.1629 9.982 6.87525 9.69299 6.4479 9.26181L5.39952 8.20403C5.18083 7.98338 4.82468 7.98179 4.60403 8.20048C4.38338 8.41917 4.38179 8.77532 4.60048 8.99597L5.67175 10.0768C6.07028 10.479 6.40267 10.8144 6.70043 11.0535C7.01275 11.3043 7.34098 11.4951 7.74088 11.5461C7.82691 11.557 7.91345 11.5625 8 11.5625C8.08655 11.5625 8.17309 11.557 8.25912 11.5461C8.65902 11.4951 8.98725 11.3043 9.29957 11.0535C9.59733 10.8144 9.92971 10.479 10.3282 10.0768L11.3995 8.99597C11.6182 8.77532 11.6166 8.41917 11.396 8.20048C11.1753 7.98179 10.8192 7.98338 10.6005 8.20403L9.5521 9.26181C9.12475 9.69299 8.8371 9.98201 8.59513 10.1763C8.58404 10.1852 8.57316 10.1938 8.5625 10.2022V5Z" fill="#505050"/>
<path fill-rule="evenodd" clip-rule="evenodd" d="M11.3476 0.780296C10.491 0.687489 9.41134 0.687494 8.03394 0.6875H7.96606C6.58866 0.687494 5.50896 0.687489 4.65236 0.780296C3.7782 0.875005 3.06992 1.07174 2.46518 1.51111C2.09907 1.77711 1.77711 2.09907 1.51111 2.46518C1.07174 3.06992 0.875005 3.7782 0.780296 4.65236C0.687489 5.50896 0.687494 6.58866 0.6875 7.96606V8.03394C0.687494 9.41134 0.687489 10.491 0.780296 11.3476C0.875005 12.2218 1.07174 12.9301 1.51111 13.5348C1.77711 13.9009 2.09907 14.2229 2.46518 14.4889C3.06992 14.9283 3.7782 15.125 4.65236 15.2197C5.50894 15.3125 6.58862 15.3125 7.96599 15.3125H8.03395C9.41132 15.3125 10.4911 15.3125 11.3476 15.2197C12.2218 15.125 12.9301 14.9283 13.5348 14.4889C13.9009 14.2229 14.2229 13.9009 14.4889 13.5348C14.9283 12.9301 15.125 12.2218 15.2197 11.3476C15.3125 10.4911 15.3125 9.41138 15.3125 8.03401V7.96605C15.3125 6.58868 15.3125 5.50894 15.2197 4.65236C15.125 3.7782 14.9283 3.06992 14.4889 2.46518C14.2229 2.09907 13.9009 1.77711 13.5348 1.51111C12.9301 1.07174 12.2218 0.875005 11.3476 0.780296ZM3.12643 2.42126C3.50744 2.14444 3.9951 1.98309 4.77353 1.89875C5.56249 1.81327 6.58132 1.8125 8 1.8125C9.41868 1.8125 10.4375 1.81327 11.2265 1.89875C12.0049 1.98309 12.4926 2.14444 12.8736 2.42126C13.1442 2.61786 13.3821 2.85583 13.5787 3.12643C13.8556 3.50744 14.0169 3.9951 14.1012 4.77353C14.1867 5.56249 14.1875 6.58132 14.1875 8C14.1875 9.41868 14.1867 10.4375 14.1012 11.2265C14.0169 12.0049 13.8556 12.4926 13.5787 12.8736C13.3821 13.1442 13.1442 13.3821 12.8736 13.5787C12.4926 13.8556 12.0049 14.0169 11.2265 14.1012C10.4375 14.1867 9.41868 14.1875 8 14.1875C6.58132 14.1875 5.56249 14.1867 4.77353 14.1012C3.9951 14.0169 3.50744 13.8556 3.12643 13.5787C2.85583 13.3821 2.61786 13.1442 2.42126 12.8736C2.14444 12.4926 1.98309 12.0049 1.89875 11.2265C1.81327 10.4375 1.8125 9.41868 1.8125 8C1.8125 6.58132 1.81327 5.56249 1.89875 4.77353C1.98309 3.9951 2.14444 3.50744 2.42126 3.12643C2.61786 2.85583 2.85583 2.61786 3.12643 2.42126Z" fill="#505050"/>
</svg>
