<?xml version="1.0" encoding="UTF-8"?><svg id="Layer_2" xmlns="http://www.w3.org/2000/svg" viewBox="0 0 368.58 322.94"><defs><style>.cls-1{fill:#fefefe;}.cls-2{fill:#c9c8f5;}.cls-3{fill:#625ad7;}</style></defs><g id="Layer_1-2"><g id="KV2ex1.tif"><g><path class="cls-3" d="M215.61,79.78c4.51,2.45,9.35,4.27,13.7,7.04,23.78,15.14,38.16,36.47,41.42,64.6,4.25,36.66-13.92,70.4-46.6,87.67-32.52,17.18-74.71,10.77-100.83-15.17-14.44-14.34-23.09-31.5-25.73-51.64-4.57-34.86,13.17-69.83,44.12-86.93,18.09-10,37.38-13.26,57.78-9.71,.98,.17,2.1,.67,2.73-.68,3.58,1.76,7.62,2.12,11.25,3.7,.74,.33,1.62,.39,2.15,1.13Z"/><path class="cls-2" d="M110.85,31.32c12.48,0,24.97,0,37.45,0,3.13,0,2.89,.02,2.75,3.01-.2,4.22-.2,8.45,.1,12.7,.26,3.62-.16,7.28-.21,10.92-.06,3.88,.22,7.75,.07,11.64-.09,2.28-.84,3.51-2.91,4.29-7.76,2.91-14.74,7.2-21.34,12.15-4.73,3.54-8.91,7.68-12.89,12.02-1.39,1.52-2.95,2.18-5.04,2.16-11.9-.07-23.8,.01-35.7-.08-2.05-.02-2.7,.53-2.67,2.64,.12,7.99,.04,15.98,.05,23.97,0,1.93-.27,3.58-2.35,4.48-2.11,.91-3.47-.1-4.83-1.46C42.56,108.97,21.81,88.18,1,67.45c-1.45-1.45-1.24-2.21,.1-3.54C21.8,43.3,42.45,22.64,63.1,1.98c1.32-1.32,2.61-2.52,4.76-1.73,2.33,.86,2.68,2.61,2.66,4.78-.06,7.91,.05,15.81-.07,23.72-.03,2.14,.68,2.62,2.7,2.61,12.57-.08,25.13-.04,37.7-.04Z"/><path class="cls-2" d="M257.53,291.45c-12.48,0-24.96-.05-37.44,.05-2.1,.02-2.87-.41-2.85-2.71,.12-11.81,.09-23.63,.02-35.45-.01-2.03,.68-3.18,2.61-3.96,12.74-5.1,23.91-12.65,33.23-22.68,2.69-2.9,5.32-3.8,9.05-3.73,10.98,.2,21.96,.02,32.95,.11,2.08,.02,2.69-.57,2.66-2.65-.11-7.82-.04-15.64-.05-23.46,0-2.08,.28-4.08,2.42-5.05,2.29-1.05,3.9,.24,5.46,1.8,20.69,20.73,41.39,41.45,62.14,62.11,1.22,1.22,1.05,1.79-.06,2.89-20.8,20.74-41.57,41.51-62.32,62.29-1.39,1.39-2.85,2.32-4.86,1.76-1.96-.54-2.22-2.27-2.57-3.91-.43-1.98-.18-3.98-.19-5.97-.04-6.32-.09-12.65,.03-18.97,.04-1.99-.58-2.53-2.54-2.52-12.56,.08-25.13,.04-37.69,.04Z"/><path d="M341.78,89.43c.01,33.46-22.06,62-54.1,69.89-2.57,.63-5.23,.89-7.85,1.34-1.06,.18-1.49-.17-1.48-1.31,.05-3.74,.07-7.49,0-11.23-.04-2.04,1.65-1.65,2.65-1.85,7.68-1.48,14.74-4.47,21.3-8.66,14.45-9.23,22.21-22.78,24.77-39.42,3.82-24.84-7.21-47.17-29.12-59.52-5.25-2.96-10.9-4.88-16.83-5.8-2.34-.36-3.02-1.37-2.9-3.62,.17-3.24,.09-6.49,.02-9.73-.03-1.31,.28-1.67,1.7-1.5,30.31,3.58,55.9,28.13,60.74,58.26,.7,4.37,1.11,8.74,1.11,13.15Z"/><path d="M264.24,75.03c0-6.49,.05-12.98-.04-19.46-.02-1.57,.42-2.01,1.95-1.92,2.24,.13,4.5,.14,6.73,0,1.57-.1,1.93,.4,1.92,1.93-.07,10.73,.05,21.46-.1,32.19-.04,2.71,.91,4.19,3.2,5.52,8.95,5.23,17.77,10.68,26.68,15.99,1.45,.87,2.08,1.57,.89,3.2-1.27,1.73-2.31,3.64-3.32,5.55-.64,1.2-1.23,1.18-2.31,.52-11.29-6.97-22.6-13.91-33.95-20.79-1.35-.82-1.7-1.8-1.69-3.25,.05-6.49,.02-12.98,.02-19.46,.01,0,.02,0,.04,0Z"/><path d="M226.39,34c6.28-5.32,13.19-9.33,20.79-12.12,4.99-1.84,10.15-3.07,15.46-3.73,1.44-.18,1.64,.22,1.62,1.47-.07,3.58-.11,7.16-.03,10.73,.03,1.51-.69,2.1-1.99,2.33-8.73,1.56-16.63,5.03-23.71,10.35-1.01,.76-1.59,.75-2.5-.12-3.13-2.98-6.34-5.88-9.64-8.92Z"/><path d="M215.61,79.78c-4.23-1.17-8.45-2.38-12.69-3.49-.88-.23-.57-.85-.71-1.34,2.03-10.79,6.49-20.49,13.03-29.28,.92-1.24,1.47-1.1,2.43-.08,2.49,2.68,5.04,5.3,7.67,7.85,.9,.88,.91,1.4,.18,2.42-5.11,7.21-8.51,15.15-9.89,23.91Z"/><path class="cls-1" d="M184.23,221.07c-2.41,0-4.83-.13-7.24,.04-2.09,.15-3.07-.32-2.8-2.68,.23-2.05-.06-4.16,.08-6.23,.13-1.95-.59-3.1-2.38-3.86-3.07-1.3-5.91-3.02-8.41-5.27-5.34-4.78-8.01-10.92-9.04-17.85-.43-2.92-.24-3.01,2.82-3.01,4.83,0,9.65,.05,14.48-.03,1.49-.03,2.18,.39,2.57,1.9,1.08,4.17,4.51,6.87,8.42,6.86,3.83,0,7.49-2.85,8.46-6.56,1.05-4.02-.65-7.87-4.61-10.04-5.47-2.99-11.02-5.81-16.48-8.82-17.73-9.8-17.2-31.72-8.45-42.2,2.87-3.44,6.35-6.1,10.35-8.06,1.64-.81,2.33-1.93,2.27-3.73-.09-2.58,.03-5.16-.04-7.74-.04-1.3,.42-1.74,1.73-1.73,5.57,.05,11.15,.04,16.72,0,1.17,0,1.64,.39,1.61,1.59-.06,2.33,.15,4.67-.06,6.98-.23,2.51,.7,3.93,2.95,5.1,8.18,4.23,13.22,10.89,14.95,20.01,.93,4.92,.93,4.98-4.05,4.98-4.08,0-8.16-.11-12.23,.05-1.96,.08-2.85-.45-3.43-2.45-1.43-4.95-6.49-7.35-11.29-5.64-4.41,1.57-6.77,6.73-5.13,11.25,.81,2.22,2.39,3.72,4.46,4.81,5.22,2.74,10.43,5.52,15.61,8.33,18.71,10.14,20.53,35.92,3.07,48.07-3.93,2.74-5.33,5.25-4.95,9.85,.5,6.04,.16,6.07-5.97,6.07-1.33,0-2.66,0-3.99,0Z"/></g></g></g></svg>