<svg width="171" height="140" viewBox="0 0 171 140" fill="none" xmlns="http://www.w3.org/2000/svg">
<circle cx="86" cy="70" r="70" fill="#24272E"/>
<rect x="1" y="12.5" width="129" height="31" rx="5.5" fill="#1B2028"/>
<rect x="4.5" y="16" width="24" height="24" rx="4" fill="#1A2A42"/>
<path fill-rule="evenodd" clip-rule="evenodd" d="M16.875 24.5C16.875 24.2929 16.7071 24.125 16.5 24.125C16.2929 24.125 16.125 24.2929 16.125 24.5V24.654C15.9616 24.695 15.8013 24.7591 15.6487 24.8472C14.2877 25.6329 14.4607 27.6494 15.9356 28.1919L16.125 28.2616V30.6097C15.8576 30.5343 15.6186 30.3585 15.469 30.0994L15.2812 29.7741C15.1777 29.5948 14.9483 29.5333 14.769 29.6369C14.5896 29.7404 14.5282 29.9698 14.6317 30.1491L14.8195 30.4744C15.1087 30.9753 15.5963 31.2898 16.125 31.3767V31.5C16.125 31.7071 16.2929 31.875 16.5 31.875C16.7071 31.875 16.875 31.7071 16.875 31.5V31.346C17.0384 31.305 17.1988 31.241 17.3514 31.1528C18.7124 30.3671 18.5394 28.3505 17.0645 27.8081L16.875 27.7384L16.875 25.3903C17.1425 25.4657 17.3815 25.6415 17.5311 25.9006L17.7189 26.2259C17.8224 26.4052 18.0518 26.4667 18.2311 26.3631C18.4105 26.2596 18.4719 26.0302 18.3684 25.8509L18.1806 25.5256C17.8914 25.0246 17.4037 24.7102 16.875 24.6232V24.5ZM16.0237 25.4967C16.0569 25.4775 16.0908 25.4602 16.125 25.4449L16.125 27.46C15.3115 27.1007 15.2353 25.9519 16.0237 25.4967ZM16.9764 30.5033C16.9431 30.5225 16.9093 30.5398 16.875 30.5552V28.54C17.6886 28.8992 17.7648 30.0481 16.9764 30.5033Z" fill="#1573FE"/>
<path fill-rule="evenodd" clip-rule="evenodd" d="M16.5 22.625C13.5315 22.625 11.125 25.0315 11.125 28C11.125 30.9685 13.5315 33.375 16.5 33.375C19.4685 33.375 21.875 30.9685 21.875 28C21.875 25.0315 19.4685 22.625 16.5 22.625ZM11.875 28C11.875 25.4457 13.9457 23.375 16.5 23.375C19.0543 23.375 21.125 25.4457 21.125 28C21.125 30.5543 19.0543 32.625 16.5 32.625C13.9457 32.625 11.875 30.5543 11.875 28Z" fill="#1573FE"/>
<rect x="40.5" y="22" width="40" height="4" rx="2" fill="#8B8B8B"/>
<rect x="40.5" y="30" width="60" height="4" rx="2" fill="#505050"/>
<rect x="1" y="12.5" width="129" height="31" rx="5.5" stroke="#1A2A42"/>
<rect x="1" y="96.5" width="129" height="31" rx="5.5" fill="#1B2028"/>
<rect x="4.5" y="100" width="24" height="24" rx="4" fill="#1A2A42"/>
<path fill-rule="evenodd" clip-rule="evenodd" d="M16.875 108.5C16.875 108.293 16.7071 108.125 16.5 108.125C16.2929 108.125 16.125 108.293 16.125 108.5V108.654C15.9616 108.695 15.8013 108.759 15.6487 108.847C14.2877 109.633 14.4607 111.649 15.9356 112.192L16.125 112.262V114.61C15.8576 114.534 15.6186 114.358 15.469 114.099L15.2812 113.774C15.1777 113.595 14.9483 113.533 14.769 113.637C14.5896 113.74 14.5282 113.97 14.6317 114.149L14.8195 114.474C15.1087 114.975 15.5963 115.29 16.125 115.377V115.5C16.125 115.707 16.2929 115.875 16.5 115.875C16.7071 115.875 16.875 115.707 16.875 115.5V115.346C17.0384 115.305 17.1988 115.241 17.3514 115.153C18.7124 114.367 18.5394 112.351 17.0645 111.808L16.875 111.738L16.875 109.39C17.1425 109.466 17.3815 109.641 17.5311 109.901L17.7189 110.226C17.8224 110.405 18.0518 110.467 18.2311 110.363C18.4105 110.26 18.4719 110.03 18.3684 109.851L18.1806 109.526C17.8914 109.025 17.4037 108.71 16.875 108.623V108.5ZM16.0237 109.497C16.0569 109.478 16.0908 109.46 16.125 109.445L16.125 111.46C15.3115 111.101 15.2353 109.952 16.0237 109.497ZM16.9764 114.503C16.9431 114.523 16.9093 114.54 16.875 114.555V112.54C17.6886 112.899 17.7648 114.048 16.9764 114.503Z" fill="#1573FE"/>
<path fill-rule="evenodd" clip-rule="evenodd" d="M16.5 106.625C13.5315 106.625 11.125 109.031 11.125 112C11.125 114.969 13.5315 117.375 16.5 117.375C19.4685 117.375 21.875 114.969 21.875 112C21.875 109.031 19.4685 106.625 16.5 106.625ZM11.875 112C11.875 109.446 13.9457 107.375 16.5 107.375C19.0543 107.375 21.125 109.446 21.125 112C21.125 114.554 19.0543 116.625 16.5 116.625C13.9457 116.625 11.875 114.554 11.875 112Z" fill="#1573FE"/>
<rect x="40.5" y="106" width="40" height="4" rx="2" fill="#8B8B8B"/>
<rect x="40.5" y="114" width="60" height="4" rx="2" fill="#505050"/>
<rect x="1" y="96.5" width="129" height="31" rx="5.5" stroke="#1A2A42"/>
<rect x="41" y="54.5" width="129" height="31" rx="5.5" fill="#1B2028"/>
<rect x="44.5" y="58" width="24" height="24" rx="4" fill="#1A2A42"/>
<path fill-rule="evenodd" clip-rule="evenodd" d="M56.875 66.5C56.875 66.2929 56.7071 66.125 56.5 66.125C56.2929 66.125 56.125 66.2929 56.125 66.5V66.654C55.9616 66.695 55.8013 66.7591 55.6487 66.8472C54.2877 67.6329 54.4607 69.6494 55.9356 70.1919L56.125 70.2616V72.6097C55.8576 72.5343 55.6186 72.3585 55.469 72.0994L55.2812 71.7741C55.1777 71.5948 54.9483 71.5333 54.769 71.6369C54.5896 71.7404 54.5282 71.9698 54.6317 72.1491L54.8195 72.4744C55.1087 72.9753 55.5963 73.2898 56.125 73.3767V73.5C56.125 73.7071 56.2929 73.875 56.5 73.875C56.7071 73.875 56.875 73.7071 56.875 73.5V73.346C57.0384 73.305 57.1988 73.241 57.3514 73.1528C58.7124 72.3671 58.5394 70.3505 57.0645 69.8081L56.875 69.7384L56.875 67.3903C57.1425 67.4657 57.3815 67.6415 57.5311 67.9006L57.7189 68.2259C57.8224 68.4052 58.0518 68.4667 58.2311 68.3631C58.4105 68.2596 58.4719 68.0302 58.3684 67.8509L58.1806 67.5256C57.8914 67.0246 57.4037 66.7102 56.875 66.6232V66.5ZM56.0237 67.4967C56.0569 67.4775 56.0908 67.4602 56.125 67.4449L56.125 69.46C55.3115 69.1007 55.2353 67.9519 56.0237 67.4967ZM56.9764 72.5033C56.9431 72.5225 56.9093 72.5398 56.875 72.5552V70.54C57.6886 70.8992 57.7648 72.0481 56.9764 72.5033Z" fill="#1573FE"/>
<path fill-rule="evenodd" clip-rule="evenodd" d="M56.5 64.625C53.5315 64.625 51.125 67.0315 51.125 70C51.125 72.9685 53.5315 75.375 56.5 75.375C59.4685 75.375 61.875 72.9685 61.875 70C61.875 67.0315 59.4685 64.625 56.5 64.625ZM51.875 70C51.875 67.4457 53.9457 65.375 56.5 65.375C59.0543 65.375 61.125 67.4457 61.125 70C61.125 72.5543 59.0543 74.625 56.5 74.625C53.9457 74.625 51.875 72.5543 51.875 70Z" fill="#1573FE"/>
<rect x="80.5" y="64" width="40" height="4" rx="2" fill="#8B8B8B"/>
<rect x="80.5" y="72" width="60" height="4" rx="2" fill="#505050"/>
<rect x="41" y="54.5" width="129" height="31" rx="5.5" stroke="#1A2A42"/>
<circle cx="131" cy="115" r="25" fill="#1A2A42"/>
<path d="M124.469 104.836C124.792 104.577 124.844 104.105 124.586 103.782C124.327 103.458 123.855 103.406 123.531 103.664L121.031 105.664C120.708 105.923 120.656 106.395 120.914 106.719C121.173 107.042 121.645 107.094 121.969 106.836L124.469 104.836Z" fill="#1573FE"/>
<path d="M137.469 103.664C137.145 103.406 136.673 103.458 136.414 103.782C136.156 104.105 136.208 104.577 136.531 104.836L139.031 106.836C139.355 107.094 139.827 107.042 140.086 106.719C140.344 106.395 140.292 105.923 139.969 105.664L137.469 103.664Z" fill="#1573FE"/>
<path d="M131.25 111C131.25 110.586 130.914 110.25 130.5 110.25C130.086 110.25 129.75 110.586 129.75 111L129.75 114.5C129.75 115.743 130.757 116.75 132 116.75H133.5C133.914 116.75 134.25 116.414 134.25 116C134.25 115.586 133.914 115.25 133.5 115.25H132C131.586 115.25 131.25 114.914 131.25 114.5L131.25 111Z" fill="#1573FE"/>
<path fill-rule="evenodd" clip-rule="evenodd" d="M130.5 104.25C124.563 104.25 119.75 109.063 119.75 115C119.75 120.937 124.563 125.75 130.5 125.75C136.437 125.75 141.25 120.937 141.25 115C141.25 109.063 136.437 104.25 130.5 104.25ZM121.25 115C121.25 109.891 125.391 105.75 130.5 105.75C135.609 105.75 139.75 109.891 139.75 115C139.75 120.109 135.609 124.25 130.5 124.25C125.391 124.25 121.25 120.109 121.25 115Z" fill="#1573FE"/>
</svg>
