<svg width="34" height="36" viewBox="0 0 34 36" fill="none" xmlns="http://www.w3.org/2000/svg">
<path d="M18.3225 14.8304C18.2979 14.8106 18.2737 14.7914 18.25 14.773V26.3333C18.25 27.0237 17.6904 27.5833 17 27.5833C16.3096 27.5833 15.75 27.0237 15.75 26.3333V14.773C15.7263 14.7914 15.7021 14.8106 15.6775 14.8304C15.1398 15.2622 14.5006 15.9045 13.5509 16.8626L11.2212 19.2132C10.7352 19.7036 9.94373 19.7071 9.4534 19.2211C8.96307 18.7352 8.95954 17.9437 9.44552 17.4534L11.8261 15.0515C12.7117 14.1579 13.4504 13.4125 14.1121 12.8811C14.8061 12.3238 15.5355 11.8998 16.4242 11.7865C16.8065 11.7378 17.1935 11.7378 17.5758 11.7865C18.4645 11.8998 19.1939 12.3238 19.8879 12.8811C20.5496 13.4125 21.2883 14.1578 22.1739 15.0514L24.5545 17.4534C25.0405 17.9437 25.0369 18.7352 24.5466 19.2211C24.0563 19.7071 23.2648 19.7036 22.7788 19.2132L20.4491 16.8626C19.4995 15.9045 18.8602 15.2622 18.3225 14.8304Z" fill="#1573FE"/>
<path fill-rule="evenodd" clip-rule="evenodd" d="M29.2996 1.91357C27.9557 0.937187 26.3818 0.49999 24.4392 0.289527C22.5356 0.0832888 20.1363 0.0832996 17.0754 0.0833132H16.9815C15.0481 0.0833132 13.3859 0.0833132 11.9572 0.132261C8.83479 0.239238 6.53983 0.57714 4.70039 1.91357C3.88682 2.50466 3.17135 3.22013 2.58025 4.0337C1.24383 5.87314 0.905926 8.1681 0.798948 11.2905C0.75 12.7192 0.75 14.3815 0.75 16.3149V19.7421C0.749987 22.803 0.749976 25.2023 0.956213 27.1059C1.16668 29.0484 1.60387 30.6224 2.58025 31.9663C3.17135 32.7798 3.88682 33.4953 4.70039 34.0864C6.04427 35.0628 7.61823 35.5 9.56079 35.7104C11.4643 35.9167 13.8636 35.9167 16.9244 35.9166H17.0755C20.1363 35.9167 22.5357 35.9167 24.4392 35.7104C26.3818 35.5 27.9557 35.0628 29.2996 34.0864C30.1132 33.4953 30.8287 32.7798 31.4197 31.9663C32.3961 30.6224 32.8333 29.0484 33.0438 27.1059C33.25 25.2023 33.25 22.803 33.25 19.7422V16.2579C33.25 13.197 33.25 10.7976 33.0438 8.89411C32.8333 6.95154 32.3961 5.37758 31.4197 4.0337C30.8287 3.22013 30.1132 2.50466 29.2996 1.91357ZM17 2.58331C20.1526 2.58331 22.4167 2.58503 24.1699 2.77498C25.8998 2.9624 26.9835 3.32097 27.8301 3.93611C28.4315 4.37301 28.9603 4.90183 29.3972 5.50317C30.0123 6.34984 30.3709 7.43354 30.5583 9.16339C30.7483 10.9166 30.75 13.1807 30.75 16.3333V19.6666C30.75 22.8193 30.7483 25.0833 30.5583 26.8366C30.3709 28.5664 30.0123 29.6501 29.3972 30.4968C28.9603 31.0981 28.4315 31.627 27.8301 32.0639C26.9835 32.679 25.8998 33.0376 24.1699 33.225C22.4167 33.4149 20.1526 33.4166 17 33.4166C13.8474 33.4166 11.5833 33.4149 9.83007 33.225C8.10022 33.0376 7.01653 32.679 6.16986 32.0639C5.56852 31.627 5.03969 31.0981 4.6028 30.4968C3.98765 29.6501 3.62909 28.5664 3.44167 26.8366C3.25172 25.0833 3.25 22.8193 3.25 19.6666V16.3333C3.25 14.9194 3.25008 13.6803 3.26803 12.5803C4.05911 12.573 4.64149 12.5484 5.16583 12.4653C9.26647 11.8158 12.4825 8.59978 13.132 4.49914C13.2151 3.9748 13.2397 3.39242 13.247 2.60134C14.347 2.5834 15.5861 2.58331 17 2.58331ZM4.77475 9.99611C4.43302 10.0502 4.03731 10.0709 3.3624 10.0787C3.51869 7.81144 3.87692 6.50226 4.6028 5.50317C5.03969 4.90183 5.56852 4.37301 6.16986 3.93611C7.16894 3.21023 8.47813 2.852 10.7454 2.69572C10.7376 3.37062 10.7169 3.76634 10.6628 4.10806C10.1827 7.13896 7.80565 9.51606 4.77475 9.99611Z" fill="#1573FE"/>
</svg>
