<svg width="14" height="16" viewBox="0 0 14 16" fill="none" xmlns="http://www.w3.org/2000/svg">
<path d="M7.5 6.66665C7.5 6.3905 7.27614 6.16665 7 6.16665C6.72386 6.16665 6.5 6.3905 6.5 6.66665V8.16665H5C4.72386 8.16665 4.5 8.3905 4.5 8.66665C4.5 8.94279 4.72386 9.16665 5 9.16665H6.5V10.6666C6.5 10.9428 6.72386 11.1666 7 11.1666C7.27614 11.1666 7.5 10.9428 7.5 10.6666V9.16665H9C9.27614 9.16665 9.5 8.94279 9.5 8.66665C9.5 8.3905 9.27614 8.16665 9 8.16665H7.5V6.66665Z" fill="white"/>
<path fill-rule="evenodd" clip-rule="evenodd" d="M9.01712 0.852892C8.44565 0.833313 7.78075 0.833313 7.00738 0.833313H6.96983C5.74548 0.833308 4.78574 0.833303 4.02432 0.915798C3.24729 0.999984 2.61771 1.17486 2.08016 1.56541C1.75473 1.80185 1.46854 2.08804 1.2321 2.41347C0.841549 2.95102 0.666671 3.58061 0.582485 4.35763C0.49999 5.11905 0.499995 6.07879 0.5 7.30315V8.69681C0.499995 9.92117 0.49999 10.8809 0.582485 11.6423C0.666671 12.4194 0.841549 13.0489 1.2321 13.5865C1.46854 13.9119 1.75473 14.1981 2.08016 14.4345C2.61771 14.8251 3.24729 15 4.02432 15.0842C4.78573 15.1667 5.74544 15.1667 6.96977 15.1666H7.03018C8.25451 15.1667 9.21427 15.1667 9.97568 15.0842C10.7527 15 11.3823 14.8251 11.9198 14.4345C12.2453 14.1981 12.5315 13.9119 12.7679 13.5865C13.1585 13.0489 13.3333 12.4194 13.4175 11.6423C13.5 10.8809 13.5 9.9212 13.5 8.69688V7.32597C13.5 6.55259 13.5 5.88767 13.4804 5.31619C13.4376 4.06723 13.3025 3.14924 12.7679 2.41347C12.5315 2.08804 12.2453 1.80185 11.9198 1.56541C11.1841 1.03084 10.2661 0.895683 9.01712 0.852892ZM2.66794 2.37443C3.00661 2.12837 3.44009 1.98495 4.13203 1.90998C4.83333 1.834 5.73895 1.83331 7 1.83331C7.56557 1.83331 8.06119 1.83335 8.50122 1.84052C8.50413 2.15696 8.51398 2.38991 8.5472 2.59965C8.80699 4.2399 10.0934 5.52633 11.7337 5.78612C11.9434 5.81934 12.1764 5.82918 12.4928 5.8321C12.5 6.27212 12.5 6.76775 12.5 7.33331V8.66665C12.5 9.92769 12.4993 10.8333 12.4233 11.5346C12.3484 12.2266 12.2049 12.66 11.9589 12.9987C11.7841 13.2392 11.5726 13.4508 11.3321 13.6255C10.9934 13.8716 10.5599 14.015 9.86797 14.09C9.16667 14.166 8.26105 14.1666 7 14.1666C5.73895 14.1666 4.83333 14.166 4.13203 14.09C3.44009 14.015 3.00661 13.8716 2.66794 13.6255C2.42741 13.4508 2.21588 13.2392 2.04112 12.9987C1.79506 12.66 1.65163 12.2266 1.57667 11.5346C1.50069 10.8333 1.5 9.92769 1.5 8.66665V7.33331C1.5 6.07226 1.50069 5.16664 1.57667 4.46534C1.65163 3.7734 1.79506 3.33992 2.04112 3.00125C2.21588 2.76072 2.42741 2.54919 2.66794 2.37443ZM9.53488 2.44321C9.51323 2.30652 9.50498 2.14824 9.50186 1.87827C10.4087 1.94079 10.9324 2.08408 11.3321 2.37443C11.5726 2.54919 11.7841 2.76072 11.9589 3.00125C12.2492 3.40089 12.3925 3.92456 12.455 4.83146C12.1851 4.82834 12.0268 4.82008 11.8901 4.79843C10.6777 4.60641 9.7269 3.65557 9.53488 2.44321Z" fill="white"/>
</svg>
