<svg width="328" height="213" viewBox="0 0 328 213" fill="none" xmlns="http://www.w3.org/2000/svg">
<g clip-path="url(#clip0_515_208)">
<path d="M253.116 212.331H38.5802C38.5802 212.331 -26.3232 163.609 22.1032 65.5639C70.5296 -32.4816 164.1 2.80675 207.034 23.3248C249.968 43.8428 335.77 95.9734 314.336 144.094C292.902 192.214 253.116 212.331 253.116 212.331Z" fill="#24272E"/>
<path d="M241.797 81.2034H328C328 81.2034 321.436 70.7105 307.437 70.7773C298.663 70.8442 293.238 75.9904 293.238 75.9904C293.238 75.9904 291.161 62.8909 276.292 60.5517C259.346 57.8115 255.059 70.911 255.059 70.911C255.059 70.911 252.38 65.8984 247.222 67.4356C242.132 68.906 241.864 73.8517 241.864 73.8517C241.864 73.8517 234.831 74.7874 234.697 81.2703H241.797V81.2034Z" fill="#505050"/>
<path d="M243.941 33.0159C243.807 26.533 236.774 25.5973 236.774 25.5973C236.774 25.5973 236.506 20.7184 231.415 19.1812C226.258 17.7109 223.579 22.6566 223.579 22.6566C223.579 22.6566 219.292 9.55713 202.346 12.2973C187.477 14.7033 185.4 27.736 185.4 27.736C185.4 27.736 179.975 22.5898 171.2 22.5229C157.202 22.4561 150.638 32.949 150.638 32.949H236.841H243.941V33.0159Z" fill="#505050"/>
<path d="M248.763 93.7013L250.236 108.405C250.236 108.405 251.174 110.076 253.987 109.808C256.8 109.541 258.475 108.071 258.475 108.071V93.7013C258.475 93.7013 254.456 90.5601 248.763 93.7013Z" fill="#1573FE"/>
<path d="M272.608 130.861C268.12 113.351 261.556 113.484 261.556 113.484L260.685 105.13C262.695 104.395 263.766 100.318 263.766 100.318H254.054H244.342C244.342 100.318 245.414 104.395 247.423 105.13L246.553 113.484C246.553 113.484 239.989 113.351 235.501 130.861C232.42 142.824 239.587 209.792 239.587 209.792H254.121H268.656C268.522 209.792 275.689 142.824 272.608 130.861Z" fill="#1B2028"/>
<path d="M268.857 210.193H239.118V209.859C238.85 207.119 231.951 142.691 235.032 130.794C239.051 115.289 244.61 113.351 246.151 113.15L246.954 105.331C245.012 104.328 243.94 100.518 243.94 100.385L243.806 99.917H264.302L264.168 100.385C264.101 100.518 263.096 104.328 261.154 105.331L261.958 113.15C263.431 113.351 269.058 115.289 273.076 130.794C276.157 142.691 269.259 207.119 268.991 209.859L268.857 210.193ZM239.854 209.458H268.187C268.723 204.245 275.153 142.29 272.273 130.995C267.919 114.086 261.623 113.885 261.556 113.885H261.221L261.154 113.551L260.283 104.863L260.551 104.729C261.824 104.261 262.828 101.922 263.23 100.652H244.811C245.213 101.922 246.218 104.261 247.49 104.729L247.758 104.863L246.82 113.885H246.485C246.418 113.885 240.189 114.086 235.769 130.995C232.822 142.29 239.319 204.245 239.854 209.458Z" fill="#1A2A42"/>
<path d="M239.854 152.582C239.854 152.582 239.854 158.196 239.854 162.741C239.854 167.286 243.136 207.72 243.136 207.72H264.503C264.503 207.72 267.718 157.26 267.852 149.575C267.986 141.889 266.847 138.012 265.508 137.344C264.168 136.676 259.011 138.346 257.202 142.022C255.461 145.698 249.567 148.572 245.883 147.503C242.199 146.433 239.854 149.641 239.854 152.582Z" fill="#1573FE"/>
<path d="M58.2723 207.586L23.5768 120.234C21.6344 115.289 25.2513 109.875 30.5427 109.875H154.053C157.134 109.875 159.881 111.746 161.019 114.62L195.715 201.972C197.657 206.918 194.04 212.332 188.749 212.332H65.2382C62.1572 212.332 59.411 210.46 58.2723 207.586Z" fill="#1B2028"/>
<path d="M64.0996 202.374L33.2889 124.846C31.5474 120.435 34.7624 115.623 39.451 115.623H149.03C151.776 115.623 154.187 117.294 155.192 119.834L186.003 197.361C187.744 201.772 184.529 206.584 179.841 206.584H70.2617C67.5155 206.584 65.1043 204.913 64.0996 202.374Z" fill="#1A2A42"/>
<path d="M42.398 130.594L39.5179 123.376C39.3839 122.975 39.6518 122.507 40.1207 122.507H50.3686C50.6365 122.507 50.8375 122.64 50.9714 122.908L53.8516 130.126C53.9855 130.527 53.7176 130.995 53.2487 130.995H43.0008C42.7329 130.995 42.532 130.861 42.398 130.594Z" fill="#1573FE"/>
<path d="M58.0043 130.995L54.6553 122.507H150.369L153.718 130.995H58.0043Z" fill="#1573FE"/>
<path d="M101.809 143.827L98.4604 135.339H146.284L149.7 143.827H101.809Z" fill="#1573FE"/>
<path d="M136.907 157.528L134.964 152.582H162.426L164.368 157.528H136.907Z" fill="#1573FE"/>
<path d="M140.925 166.149L138.983 161.271H166.512L168.454 166.149H140.925Z" fill="#1573FE"/>
<path d="M148.159 183.727L146.217 178.848H173.745L175.688 183.727H148.159Z" fill="#1573FE"/>
<path d="M144.944 174.838L143.002 169.959H170.531L172.473 174.838H144.944Z" fill="#1B2028"/>
<path d="M68.0515 190.611L52.9141 152.582H64.4346L79.572 190.611H68.0515Z" fill="#1B2028"/>
<path d="M90.2218 190.611L75.1514 152.582H86.6719L101.742 190.611H90.2218Z" fill="#1B2028"/>
<path d="M110.249 190.61L99.7998 163.743H111.32L121.769 190.61H110.249Z" fill="#1B2028"/>
<path d="M132.419 190.611L124.046 169.491H135.567L143.939 190.611H132.419Z" fill="#1B2028"/>
<path d="M48.4262 143.827L45.0103 135.339H92.9008L96.2498 143.827H48.4262Z" fill="#1573FE"/>
<path d="M225.99 146.433H222.306V212.398H225.99V146.433Z" fill="#1573FE"/>
<path d="M279.5 211.5H176.053L176.053 196.5H279.5V211.5Z" fill="#24272E" stroke="#1B2028"/>
<path d="M53.5 196H176L175.663 212H59L53.5 196Z" fill="#1B2028"/>
<path d="M133.022 174.169L109.445 170.828L85.0642 158.998L62.9609 172.231L62.2241 170.961L84.9972 157.394L109.847 169.424L133.223 172.766L133.022 174.169Z" fill="#1573FE"/>
<g style="mix-blend-mode:multiply" opacity="0.1">
<path d="M97.8573 196.425L41.9292 109.875H62.626L118.554 196.425H97.8573Z" fill="#1A2A42"/>
</g>
<g opacity="0.1">
<g style="mix-blend-mode:multiply">
<path d="M124.649 196.425L68.7212 109.875H109.11L165.038 196.425H124.649Z" fill="#1A2A42"/>
</g>
</g>
<path d="M238.85 133C241.217 133 243.136 131.085 243.136 128.722C243.136 126.36 241.217 124.445 238.85 124.445C236.482 124.445 234.563 126.36 234.563 128.722C234.563 131.085 236.482 133 238.85 133Z" fill="#1573FE"/>
<path d="M224.181 129.257H198.796C197.256 129.257 196.653 131.262 197.992 132.131L221.167 146.3C221.435 146.433 221.703 146.5 221.971 146.5H224.181H226.392C226.66 146.5 226.928 146.433 227.196 146.3L250.37 132.131C251.71 131.329 251.107 129.257 249.567 129.257H224.181Z" fill="#1B2028"/>
<path d="M226.392 146.901H221.971C221.636 146.901 221.301 146.834 220.966 146.634L197.791 132.465C197.055 131.997 196.72 131.128 196.921 130.326C197.189 129.458 197.858 128.923 198.796 128.923H249.634C250.505 128.923 251.241 129.458 251.509 130.326C251.777 131.195 251.442 131.997 250.639 132.465L227.463 146.634C227.062 146.834 226.727 146.901 226.392 146.901ZM198.796 129.658C198.126 129.658 197.791 130.059 197.657 130.527C197.524 130.928 197.591 131.463 198.193 131.797L221.368 145.966C221.569 146.099 221.77 146.166 221.971 146.166H226.392C226.593 146.166 226.794 146.099 226.995 145.966L250.17 131.797C250.705 131.463 250.772 130.928 250.705 130.527C250.572 130.126 250.237 129.658 249.567 129.658H198.796Z" fill="#1A2A42"/>
<path d="M207.972 134.27L222.842 142.624H226.86L242.333 133.802C242.333 133.802 237.376 132.599 232.822 133.802C228.267 135.005 225.588 136.275 221.971 135.874C218.354 135.406 213.063 133.133 207.972 134.27Z" fill="#1573FE"/>
<path d="M239.185 126.784H238.515C238.515 126.717 238.783 119.9 246.62 117.695L246.821 118.363C239.453 120.368 239.185 126.517 239.185 126.784Z" fill="#8B8B8B"/>
<path d="M251.107 141.621C251.107 141.621 248.227 141.22 246.218 142.022C244.208 142.824 244.61 145.097 247.758 144.963C250.906 144.829 254.791 141.822 251.107 141.621Z" fill="#1573FE"/>
<path d="M114.937 153.25H103.015C100.804 153.25 98.795 151.847 98.0582 149.842L78.5671 98.9143C77.9643 97.2434 78.1652 95.4389 79.1699 93.9686C80.1746 92.4982 81.7821 91.6294 83.5906 91.6294H115.004V92.9661H83.5906C82.251 92.9661 81.0454 93.5676 80.3086 94.7038C79.5718 95.8399 79.3709 97.1766 79.8397 98.3796L99.3308 149.374C99.9337 150.911 101.407 151.914 103.082 151.914H115.004V153.25H114.937Z" fill="#1573FE"/>
<path d="M98.2591 97.9786L92.7668 84.0772C92.4319 83.2752 93.0347 82.4731 93.8385 82.4731H182.654C183.123 82.4731 183.591 82.7405 183.725 83.2083L189.218 97.1098C189.553 97.9118 188.95 98.7138 188.146 98.7138H99.3308C98.8619 98.7806 98.3931 98.4465 98.2591 97.9786Z" fill="#1B2028"/>
<path d="M188.146 99.1149H99.3308C98.661 99.1149 98.1251 98.7139 97.8572 98.1124L92.3649 84.211C92.1639 83.7431 92.2309 83.2084 92.4988 82.7406C92.7668 82.3396 93.3026 82.0723 93.7715 82.0723H182.587C183.256 82.0723 183.792 82.4733 184.06 83.0748L189.553 96.9763C189.753 97.4441 189.686 97.9788 189.419 98.4466C189.151 98.9144 188.682 99.1149 188.146 99.1149ZM93.8384 82.9411C93.5705 82.9411 93.3026 83.0748 93.1686 83.2753C93.0347 83.4758 92.9677 83.7431 93.1017 84.0104L98.594 97.9119C98.728 98.2461 98.9959 98.3798 99.3308 98.3798H188.146C188.414 98.3798 188.682 98.2461 188.816 98.0456C188.95 97.8451 189.017 97.5778 188.883 97.3104L183.39 83.4089C183.256 83.0748 182.989 82.9411 182.654 82.9411H93.8384Z" fill="#8B8B8B"/>
<path d="M103.417 92.7657L101.742 88.4883H125.855L127.596 92.7657H103.417Z" fill="#1573FE"/>
<path d="M130.879 92.7657L129.204 88.4883H153.317L155.058 92.7657H130.879Z" fill="#1573FE"/>
<path d="M158.541 92.7657L156.867 88.4883H162.158L163.833 92.7657H158.541Z" fill="#1573FE"/>
<path d="M186.338 83.7433C187.142 87.7533 184.597 90.694 180.846 90.3599C177.162 90.0257 173.679 86.7508 172.875 82.9413C172.071 79.1317 174.282 76.1242 177.966 76.191C181.716 76.3247 185.601 79.7332 186.338 83.7433Z" fill="#1B2028"/>
<path d="M181.448 90.6938C181.247 90.6938 181.046 90.6938 180.846 90.6938C177.028 90.3596 173.411 86.9511 172.54 83.0079C172.138 81.0028 172.473 79.0647 173.612 77.6611C174.616 76.4581 176.224 75.7898 177.965 75.8566C181.984 75.9903 185.869 79.4657 186.74 83.6762C187.142 85.8149 186.74 87.6862 185.534 89.0229C184.529 90.1591 183.056 90.6938 181.448 90.6938ZM177.764 76.5918C176.291 76.5918 175.018 77.1265 174.148 78.1958C173.143 79.3988 172.808 81.0697 173.21 82.8742C173.947 86.4832 177.43 89.6913 180.846 89.9586C182.52 90.0923 183.927 89.6244 184.931 88.5551C186.003 87.4189 186.338 85.6812 186.003 83.8099C185.266 80.0003 181.582 76.6586 177.965 76.5918C177.898 76.5918 177.831 76.5918 177.764 76.5918Z" fill="#8B8B8B"/>
<path d="M180.042 85.9485C179.908 85.9485 179.774 85.8817 179.64 85.8148L176.157 83.342C175.889 83.1415 175.755 82.7405 176.023 82.4063C176.224 82.0722 176.626 82.0053 176.961 82.2727L179.841 84.2777L184.128 76.7254C184.328 76.3913 184.73 76.3244 185.065 76.4581C185.4 76.6586 185.467 77.0596 185.333 77.3938L180.712 85.5475C180.645 85.6812 180.444 85.8149 180.243 85.8817C180.176 85.9485 180.109 85.9485 180.042 85.9485Z" fill="#1573FE"/>
<path d="M82.4523 201.638H66.2432V206.985H82.4523V201.638Z" fill="#505050"/>
<path d="M101.006 206.985H90.1548C88.6812 206.985 87.4756 205.782 87.4756 204.312C87.4756 202.841 88.6812 201.638 90.1548 201.638H101.006C102.479 201.638 103.685 202.841 103.685 204.312C103.685 205.849 102.479 206.985 101.006 206.985Z" fill="#505050"/>
<path d="M121.234 206.584C122.602 206.584 123.712 205.477 123.712 204.111C123.712 202.745 122.602 201.638 121.234 201.638C119.865 201.638 118.755 202.745 118.755 204.111C118.755 205.477 119.865 206.584 121.234 206.584Z" fill="#505050"/>
<path d="M93.5038 213C46.417 213 10.4489 212.933 9.37719 212.733C8.84135 212.599 8.50645 212.064 8.57343 211.53C8.70739 210.995 9.17625 210.661 9.71209 210.728C14.8695 211.329 314.604 210.728 317.685 210.728C318.221 210.728 318.69 211.196 318.69 211.73C318.69 212.265 318.221 212.733 317.685 212.733C297.658 212.733 177.764 213 93.5038 213Z" fill="#1573FE"/>
<path d="M7.16684 58.7469H93.3698C93.3698 58.7469 86.8058 48.2539 72.807 48.3208C64.0327 48.3876 58.6073 53.5338 58.6073 53.5338C58.6073 53.5338 56.5309 40.5012 41.6614 38.0952C24.7155 35.355 20.4288 48.4544 20.4288 48.4544C20.4288 48.4544 17.7496 43.4419 12.5922 44.9791C7.50174 46.4494 7.23382 51.3951 7.23382 51.3951C7.23382 51.3951 0.13396 52.264 0 58.7469H7.16684Z" fill="#505050"/>
<path d="M139.452 16.842C141.19 16.842 142.6 15.4356 142.6 13.7008C142.6 11.9659 141.19 10.5596 139.452 10.5596C137.713 10.5596 136.304 11.9659 136.304 13.7008C136.304 15.4356 137.713 16.842 139.452 16.842Z" fill="#8B8B8B"/>
<path d="M211.12 61.8884C212.859 61.8884 214.268 60.482 214.268 58.7472C214.268 57.0123 212.859 55.606 211.12 55.606C209.382 55.606 207.972 57.0123 207.972 58.7472C207.972 60.482 209.382 61.8884 211.12 61.8884Z" fill="#8B8B8B"/>
<path d="M62.6261 79.3322C64.3647 79.3322 65.7741 77.9258 65.7741 76.191C65.7741 74.4562 64.3647 73.0498 62.6261 73.0498C60.8875 73.0498 59.478 74.4562 59.478 76.191C59.478 77.9258 60.8875 79.3322 62.6261 79.3322Z" fill="#8B8B8B"/>
<path d="M178.769 126.784C179.99 126.784 180.979 125.797 180.979 124.579C180.979 123.36 179.99 122.373 178.769 122.373C177.548 122.373 176.559 123.36 176.559 124.579C176.559 125.797 177.548 126.784 178.769 126.784Z" fill="#8B8B8B"/>
<path d="M186.003 151.045C186.743 151.045 187.342 150.446 187.342 149.708C187.342 148.97 186.743 148.372 186.003 148.372C185.263 148.372 184.663 148.97 184.663 149.708C184.663 150.446 185.263 151.045 186.003 151.045Z" fill="#8B8B8B"/>
<path d="M282.119 122.507C283.377 122.507 284.396 121.489 284.396 120.234C284.396 118.979 283.377 117.962 282.119 117.962C280.861 117.962 279.842 118.979 279.842 120.234C279.842 121.489 280.861 122.507 282.119 122.507Z" fill="#8B8B8B"/>
<path d="M223.713 133.868C222.708 133.668 218.354 132.665 217.684 133.2C217.015 133.735 219.895 134.604 221.368 134.804C222.842 135.005 224.449 135.138 224.449 134.604C224.516 134.136 223.713 133.868 223.713 133.868Z" fill="#1573FE"/>
</g>
<defs>
<clipPath id="clip0_515_208">
<rect width="328" height="213" fill="white"/>
</clipPath>
</defs>
</svg>
