<svg width="16" height="16" viewBox="0 0 16 16" fill="none" xmlns="http://www.w3.org/2000/svg">
<path d="M10.424 8.07581C10.1478 8.07581 9.92398 8.29967 9.92398 8.57581C9.92398 8.85195 10.1478 9.07581 10.424 9.07581H12.2422C12.5183 9.07581 12.7422 8.85195 12.7422 8.57581C12.7422 8.29967 12.5183 8.07581 12.2422 8.07581H10.424Z"/>
<path fill-rule="evenodd" clip-rule="evenodd" d="M13.0981 2.25169C13.1497 2.54766 13.1621 2.89939 13.1656 3.3018C13.2235 3.33197 13.2802 3.36408 13.336 3.39826C13.8518 3.71434 14.2854 4.148 14.6015 4.6638C14.9495 5.2317 15.0761 5.88988 15.1284 6.72644C15.1664 7.33503 15.1664 8.07525 15.1664 8.9844V9.00322C15.1664 9.52456 15.1664 9.98896 15.1595 10.4023C15.1382 11.6875 15.055 12.5963 14.6015 13.3363C14.2854 13.8521 13.8518 14.2858 13.336 14.6018C12.8434 14.9037 12.2847 15.0382 11.6023 15.1031C10.9329 15.1667 10.0949 15.1667 9.02603 15.1667H6.97349C5.90459 15.1667 5.06659 15.1667 4.39714 15.1031C3.71478 15.0382 3.15604 14.9037 2.66349 14.6018C2.1477 14.2858 1.71403 13.8521 1.39795 13.3363C1.09612 12.8437 0.961596 12.285 0.896716 11.6026C0.833064 10.9332 0.833067 10.0952 0.833071 9.02628L0.833124 8.6758C0.82434 8.34635 0.827038 7.97805 0.829946 7.58094C0.83148 7.37163 0.833071 7.15431 0.833071 6.93046L0.833071 6.90156C0.833066 5.76007 0.833062 4.86418 0.906953 4.15316C0.982318 3.42796 1.13904 2.83646 1.49249 2.32928C1.70604 2.02285 1.96511 1.75253 2.26065 1.52867C2.75286 1.15584 3.32885 0.990108 4.03126 0.910769C4.71654 0.833365 5.57865 0.83337 6.67071 0.833377L10.3161 0.833375C10.8485 0.833352 11.2997 0.833332 11.6594 0.883755C12.0437 0.937611 12.3963 1.05742 12.6784 1.35156C12.9233 1.60688 13.0394 1.9149 13.0981 2.25169ZM10.2809 1.83338C10.8581 1.83338 11.2385 1.83453 11.5206 1.87407C11.7862 1.91129 11.8895 1.97364 11.9568 2.04379C12.019 2.10868 12.0751 2.20663 12.1129 2.42342C12.1382 2.56836 12.152 2.74553 12.1593 2.97217C11.8841 2.9218 11.5871 2.89077 11.2637 2.87081C10.657 2.83337 9.91971 2.83338 9.01518 2.83338H6.9735C5.90458 2.83337 5.0666 2.83337 4.39714 2.89702C3.71478 2.9619 3.15604 3.09642 2.66349 3.39826C2.39797 3.56097 2.15422 3.75484 1.93706 3.97503C2.01023 3.49015 2.13007 3.16341 2.31291 2.90103C2.4673 2.6795 2.65358 2.48553 2.86445 2.32581C3.15627 2.10477 3.5315 1.97358 4.1435 1.90445C4.76613 1.83412 5.57178 1.83338 6.70179 1.83338H10.2809ZM3.18599 4.2509C3.49501 4.06153 3.88263 3.95045 4.4918 3.89253C5.10841 3.8339 5.89891 3.83338 6.99974 3.83338H8.99974C9.92282 3.83338 10.6297 3.83359 11.2021 3.86891C11.7739 3.9042 12.1737 3.97299 12.4889 4.09268C12.6069 4.1375 12.7137 4.18978 12.8135 4.2509C13.1947 4.48452 13.5153 4.80506 13.7489 5.1863C13.9133 5.45459 14.0181 5.78071 14.0808 6.25763H10.424C9.14368 6.25763 8.1058 7.29551 8.1058 8.57581C8.1058 9.85611 9.14368 10.894 10.424 10.894H14.146C14.1075 11.8675 14.0012 12.402 13.7489 12.8138C13.5153 13.195 13.1947 13.5156 12.8135 13.7492C12.5045 13.9386 12.1168 14.0496 11.5077 14.1076C10.8911 14.1662 10.1006 14.1667 8.99974 14.1667H6.99974C5.89891 14.1667 5.10841 14.1662 4.4918 14.1076C3.88263 14.0496 3.49501 13.9386 3.18599 13.7492C2.80475 13.5156 2.48422 13.195 2.25059 12.8138C2.06123 12.5048 1.95015 12.1172 1.89223 11.508C1.8336 10.8914 1.83307 10.1009 1.83307 9.00004C1.83307 7.89922 1.8336 7.10871 1.89223 6.4921C1.95015 5.88293 2.06123 5.49531 2.25059 5.1863C2.48422 4.80506 2.80475 4.48452 3.18599 4.2509ZM9.1058 8.57581C9.1058 7.8478 9.69597 7.25763 10.424 7.25763H14.1515C14.1663 7.74024 14.1664 8.30965 14.1664 9.00004C14.1664 9.32265 14.1664 9.61938 14.1648 9.89399H10.424C9.69597 9.89399 9.1058 9.30382 9.1058 8.57581Z"/>
</svg>
