<svg width="51" height="64" viewBox="0 0 51 64" fill="none" xmlns="http://www.w3.org/2000/svg">
<path d="M5.61987 63.1194C4.36987 63.1194 3.27612 62.6506 2.33862 61.7131C1.40112 60.7756 0.932373 59.6819 0.932373 58.4319V5.30688C0.932373 4.05688 1.40112 2.96314 2.33862 2.02563C3.27612 1.08813 4.36987 0.619385 5.61987 0.619385H46.2449C47.4949 0.619385 48.5886 1.08813 49.5261 2.02563C50.4636 2.96314 50.9324 4.05688 50.9324 5.30688V58.4319C50.9324 59.6819 50.4636 60.7756 49.5261 61.7131C48.5886 62.6506 47.4949 63.1194 46.2449 63.1194H5.61987ZM5.61987 58.4319H46.2449V5.30688H41.5574V26.0881L33.9792 21.7131L26.4011 26.0881V5.30688H5.61987V58.4319ZM5.61987 58.4319V5.30688V58.4319ZM26.4011 26.0881L33.9792 21.7131L41.5574 26.0881L33.9792 21.7131L26.4011 26.0881Z" fill="#B3B3B3"/>
</svg>
