<svg width="13" height="12" viewBox="0 0 13 12" fill="none" xmlns="http://www.w3.org/2000/svg">
<path fill-rule="evenodd" clip-rule="evenodd" d="M3.93008 0.180595C3.72701 0.16674 3.47965 0.166743 3.18335 0.166748H3.14967C2.85337 0.166743 2.606 0.16674 2.40293 0.180595C2.19153 0.195019 1.99184 0.226114 1.79825 0.306303C1.34903 0.492375 0.992131 0.849277 0.806059 1.2985C0.72587 1.49209 0.694775 1.69177 0.680351 1.90317C0.666495 2.10625 0.666499 2.3536 0.666504 2.64991V2.68358C0.666499 2.97989 0.666495 3.22725 0.680351 3.43033C0.694775 3.64173 0.72587 3.84141 0.806059 4.035C0.992131 4.48422 1.34903 4.84112 1.79825 5.02719C1.99184 5.10738 2.19153 5.13848 2.40293 5.1529C2.606 5.16676 2.85336 5.16675 3.14967 5.16675H3.18334C3.47965 5.16675 3.72701 5.16676 3.93008 5.1529C4.14148 5.13848 4.34117 5.10738 4.53476 5.02719C4.98398 4.84112 5.34088 4.48422 5.52695 4.035C5.60714 3.84141 5.63823 3.64173 5.65266 3.43033C5.66651 3.22725 5.66651 2.97989 5.6665 2.68359V2.64991C5.66651 2.3536 5.66651 2.10625 5.65266 1.90317C5.63823 1.69177 5.60714 1.49209 5.52695 1.2985C5.34088 0.849277 4.98398 0.492375 4.53476 0.306303C4.34117 0.226114 4.14148 0.195019 3.93008 0.180595ZM2.18093 1.23018C2.23237 1.20888 2.31051 1.18923 2.471 1.17828C2.63597 1.16702 2.84904 1.16675 3.1665 1.16675C3.48397 1.16675 3.69703 1.16702 3.86201 1.17828C4.02249 1.18923 4.10064 1.20888 4.15207 1.23018C4.35626 1.31476 4.51849 1.47699 4.60307 1.68118C4.62438 1.73261 4.64403 1.81076 4.65498 1.97124C4.66623 2.13622 4.6665 2.34928 4.6665 2.66675C4.6665 2.98422 4.66623 3.19728 4.65498 3.36225C4.64403 3.52274 4.62438 3.60088 4.60307 3.65232C4.51849 3.85651 4.35626 4.01874 4.15207 4.10332C4.10064 4.12462 4.02249 4.14427 3.86201 4.15522C3.69703 4.16648 3.48397 4.16675 3.1665 4.16675C2.84904 4.16675 2.63597 4.16648 2.471 4.15522C2.31051 4.14427 2.23237 4.12462 2.18093 4.10332C1.97674 4.01874 1.81452 3.85651 1.72994 3.65232C1.70863 3.60088 1.68898 3.52274 1.67803 3.36225C1.66678 3.19728 1.6665 2.98422 1.6665 2.66675C1.6665 2.34928 1.66678 2.13622 1.67803 1.97124C1.68898 1.81076 1.70863 1.73261 1.72994 1.68118C1.81452 1.47699 1.97674 1.31476 2.18093 1.23018Z" fill="white"/>
<path d="M10.3332 0.666749C10.3332 0.390606 10.1093 0.166748 9.83317 0.166748C9.55703 0.166748 9.33317 0.390606 9.33317 0.666749V2.16675H7.83317C7.55703 2.16675 7.33317 2.39061 7.33317 2.66675C7.33317 2.94289 7.55703 3.16675 7.83317 3.16675H9.33317V4.66675C9.33317 4.94289 9.55703 5.16675 9.83317 5.16675C10.1093 5.16675 10.3332 4.94289 10.3332 4.66675V3.16675H11.8332C12.1093 3.16675 12.3332 2.94289 12.3332 2.66675C12.3332 2.39061 12.1093 2.16675 11.8332 2.16675H10.3332V0.666749Z" fill="white"/>
<path fill-rule="evenodd" clip-rule="evenodd" d="M3.93008 6.84726C3.72701 6.83341 3.47965 6.83341 3.18334 6.83342H3.14967C2.85336 6.83341 2.606 6.83341 2.40293 6.84726C2.19153 6.86169 1.99184 6.89278 1.79825 6.97297C1.34903 7.15904 0.992131 7.51595 0.806059 7.96516C0.72587 8.15876 0.694775 8.35844 0.680351 8.56984C0.666495 8.77291 0.666499 9.02027 0.666504 9.31657V9.35025C0.666499 9.64655 0.666495 9.89392 0.680351 10.097C0.694775 10.3084 0.72587 10.5081 0.806059 10.7017C0.992131 11.1509 1.34903 11.5078 1.79825 11.6939C1.99184 11.774 2.19153 11.8051 2.40293 11.8196C2.606 11.8334 2.85336 11.8334 3.14967 11.8334H3.18334C3.47965 11.8334 3.72701 11.8334 3.93008 11.8196C4.14148 11.8051 4.34117 11.774 4.53476 11.6939C4.98398 11.5078 5.34088 11.1509 5.52695 10.7017C5.60714 10.5081 5.63823 10.3084 5.65266 10.097C5.66651 9.89392 5.66651 9.64656 5.6665 9.35025V9.31658C5.66651 9.02027 5.66651 8.77291 5.65266 8.56984C5.63823 8.35844 5.60714 8.15876 5.52695 7.96516C5.34088 7.51595 4.98398 7.15904 4.53476 6.97297C4.34117 6.89278 4.14148 6.86169 3.93008 6.84726ZM2.18093 7.89685C2.23237 7.87554 2.31051 7.85589 2.471 7.84494C2.63597 7.83369 2.84904 7.83342 3.1665 7.83342C3.48397 7.83342 3.69703 7.83369 3.86201 7.84494C4.02249 7.85589 4.10064 7.87554 4.15207 7.89685C4.35626 7.98143 4.51849 8.14366 4.60307 8.34785C4.62438 8.39928 4.64403 8.47743 4.65498 8.63791C4.66623 8.80289 4.6665 9.01595 4.6665 9.33342C4.6665 9.65088 4.66623 9.86395 4.65498 10.0289C4.64403 10.1894 4.62438 10.2675 4.60307 10.319C4.51849 10.5232 4.35626 10.6854 4.15207 10.77C4.10064 10.7913 4.02249 10.8109 3.86201 10.8219C3.69703 10.8331 3.48397 10.8334 3.1665 10.8334C2.84904 10.8334 2.63597 10.8331 2.471 10.8219C2.31051 10.8109 2.23237 10.7913 2.18093 10.77C1.97675 10.6854 1.81452 10.5232 1.72994 10.319C1.70863 10.2675 1.68898 10.1894 1.67803 10.0289C1.66678 9.86395 1.6665 9.65088 1.6665 9.33342C1.6665 9.01595 1.66678 8.80289 1.67803 8.63791C1.68898 8.47743 1.70863 8.39928 1.72994 8.34785C1.81452 8.14366 1.97675 7.98143 2.18093 7.89685Z" fill="white"/>
<path fill-rule="evenodd" clip-rule="evenodd" d="M10.5967 6.84726C10.3937 6.83341 10.1463 6.83341 9.85001 6.83342H9.81633C9.52003 6.83341 9.27267 6.83341 9.06959 6.84726C8.8582 6.86169 8.65851 6.89278 8.46492 6.97297C8.0157 7.15904 7.6588 7.51594 7.47273 7.96516C7.39254 8.15876 7.36144 8.35844 7.34702 8.56984C7.33316 8.77291 7.33317 9.02027 7.33317 9.31658V9.35025C7.33317 9.64656 7.33316 9.89392 7.34702 10.097C7.36144 10.3084 7.39254 10.5081 7.47273 10.7017C7.6588 11.1509 8.0157 11.5078 8.46492 11.6939C8.65851 11.774 8.8582 11.8051 9.06959 11.8196C9.27267 11.8334 9.52003 11.8334 9.81633 11.8334H9.85001C10.1463 11.8334 10.3937 11.8334 10.5967 11.8196C10.8081 11.8051 11.0078 11.774 11.2014 11.6939C11.6506 11.5078 12.0075 11.1509 12.1936 10.7017C12.2738 10.5081 12.3049 10.3084 12.3193 10.097C12.3332 9.89392 12.3332 9.64656 12.3332 9.35025V9.31658C12.3332 9.02027 12.3332 8.77291 12.3193 8.56984C12.3049 8.35844 12.2738 8.15876 12.1936 7.96516C12.0075 7.51594 11.6506 7.15904 11.2014 6.97297C11.0078 6.89278 10.8081 6.86169 10.5967 6.84726ZM8.8476 7.89685C8.89904 7.87554 8.97718 7.85589 9.13767 7.84494C9.30264 7.83369 9.5157 7.83342 9.83317 7.83342C10.1506 7.83342 10.3637 7.83369 10.5287 7.84494C10.6892 7.85589 10.7673 7.87554 10.8187 7.89685C11.0229 7.98143 11.1852 8.14366 11.2697 8.34785C11.291 8.39928 11.3107 8.47743 11.3216 8.63791C11.3329 8.80289 11.3332 9.01595 11.3332 9.33342C11.3332 9.65088 11.3329 9.86395 11.3216 10.0289C11.3107 10.1894 11.291 10.2675 11.2697 10.319C11.1852 10.5232 11.0229 10.6854 10.8187 10.77C10.7673 10.7913 10.6892 10.8109 10.5287 10.8219C10.3637 10.8331 10.1506 10.8334 9.83317 10.8334C9.5157 10.8334 9.30264 10.8331 9.13767 10.8219C8.97718 10.8109 8.89904 10.7913 8.8476 10.77C8.64341 10.6854 8.48118 10.5232 8.3966 10.319C8.3753 10.2675 8.35565 10.1894 8.3447 10.0289C8.33344 9.86395 8.33317 9.65088 8.33317 9.33342C8.33317 9.01595 8.33344 8.80289 8.3447 8.63791C8.35565 8.47743 8.3753 8.39928 8.3966 8.34785C8.48118 8.14366 8.64341 7.98143 8.8476 7.89685Z" fill="white"/>
</svg>
