<svg width="12" height="10" viewBox="0 0 12 10" fill="none" xmlns="http://www.w3.org/2000/svg">
<path fill-rule="evenodd" clip-rule="evenodd" d="M3.94501 0.894117C3.20144 1.05933 2.63523 1.24134 1.93485 1.54031C1.81904 1.58974 1.80069 1.60988 1.63921 1.86511C0.864927 3.08883 0.364114 4.34766 0.13745 5.63984C0.0195825 6.31175 -0.0027066 6.60331 0.000246525 7.43408C0.00176996 7.85947 0.0119184 8.26519 0.0228403 8.33569L0.0426684 8.46387L0.347356 8.67099C1.10893 9.18873 1.9015 9.58819 2.73048 9.87216C2.90104 9.93057 3.05357 9.97339 3.06944 9.9673C3.12679 9.94529 3.71064 9.0128 3.71064 8.94324C3.71064 8.93476 3.65001 8.90389 3.57587 8.87466C3.39231 8.80229 2.79247 8.5043 2.75279 8.4658C2.71225 8.42644 2.72254 8.41074 2.84769 8.32088L2.94953 8.24773L3.1836 8.34765C4.42 8.87541 5.8349 9.04644 7.14423 8.82636C7.7474 8.72499 8.29466 8.55887 8.93847 8.28174C9.02081 8.24628 9.02299 8.24684 9.12597 8.32833C9.18327 8.37369 9.23017 8.42305 9.23017 8.438C9.23017 8.47086 8.74138 8.72719 8.48017 8.83135C8.37705 8.87246 8.28306 8.91463 8.27134 8.92503C8.22499 8.96612 8.8327 9.97374 8.90531 9.97616C8.91998 9.97665 9.05709 9.93397 9.20999 9.88133C10.0732 9.58407 10.8542 9.19201 11.6208 8.67108L11.9255 8.46404L11.941 8.33579C11.9496 8.26524 11.9641 7.96494 11.9733 7.66845C12.0373 5.60152 11.5027 3.71597 10.3275 1.8641L10.1542 1.59101L9.83282 1.45744C9.23992 1.21104 8.46716 0.977016 7.89599 0.870891L7.68679 0.832031L7.64491 0.886969C7.62187 0.917156 7.54743 1.06172 7.47951 1.20818L7.35602 1.47448L7.23841 1.46006C7.17372 1.45214 7.0206 1.43302 6.89814 1.41759C6.60766 1.38101 5.38708 1.38082 5.08173 1.41731C4.95283 1.43273 4.79462 1.45139 4.73017 1.45877L4.61298 1.47223L4.46064 1.16018C4.28303 0.796359 4.31373 0.812203 3.94501 0.894117ZM4.42412 4.75925C4.72907 4.90995 4.95226 5.20266 5.03734 5.56343C5.08394 5.76097 5.06943 6.08602 5.00556 6.27619C4.73465 7.08272 3.85075 7.32729 3.27719 6.75439C2.9019 6.37955 2.8105 5.77132 3.05472 5.27396C3.18772 5.00309 3.40661 4.80671 3.68383 4.70949C3.81409 4.66381 3.87332 4.65647 4.04605 4.66465C4.22505 4.67314 4.27539 4.68575 4.42412 4.75925ZM8.41277 4.76135C8.81378 4.95954 9.055 5.36946 9.05404 5.85111C9.05336 6.20248 8.94332 6.49426 8.72202 6.7314C8.11202 7.38512 7.1271 7.04337 6.93084 6.10986C6.82778 5.61964 7.04191 5.07446 7.43711 4.82084C7.62977 4.69723 7.79167 4.65478 8.03043 4.66533C8.21132 4.67332 8.25873 4.68523 8.41277 4.76135Z" fill="#8B8B8B"/>
</svg>
