<svg width="16" height="16" viewBox="0 0 16 16" fill="none" xmlns="http://www.w3.org/2000/svg">
<path d="M6.66667 11.3798C6.39053 11.3798 6.16667 11.6037 6.16667 11.8798C6.16667 12.156 6.39053 12.3798 6.66667 12.3798H9.33334C9.60948 12.3798 9.83334 12.156 9.83334 11.8798C9.83334 11.6037 9.60948 11.3798 9.33334 11.3798H6.66667Z" />
<path fill-rule="evenodd" clip-rule="evenodd" d="M8.14053 0.835951C8.04688 0.832515 7.95313 0.832515 7.85947 0.835951C7.24122 0.858631 6.68451 1.06886 6.0741 1.41882C5.47926 1.75986 4.79443 2.25743 3.92551 2.88874L3.87828 2.92306C3.00934 3.55437 2.32451 4.05193 1.81634 4.51227C1.29488 4.98466 0.922902 5.44916 0.710281 6.03014C0.678072 6.11815 0.649102 6.20731 0.623429 6.29745C0.453948 6.89245 0.481857 7.48688 0.626064 8.17556C0.766596 8.84668 1.02818 9.65174 1.36009 10.6732L1.37813 10.7288C1.71002 11.7502 1.9716 12.5553 2.25239 13.1809C2.54051 13.8228 2.86733 14.3201 3.35418 14.7018C3.42793 14.7597 3.50377 14.8148 3.58156 14.867C4.09507 15.2121 4.66903 15.3692 5.36856 15.4449C6.05026 15.5186 6.89676 15.5186 7.97081 15.5186H8.0292C9.10325 15.5186 9.94975 15.5186 10.6314 15.4449C11.331 15.3692 11.9049 15.2121 12.4184 14.867C12.4962 14.8148 12.5721 14.7597 12.6458 14.7018C13.1327 14.3201 13.4595 13.8228 13.7476 13.1809C14.0284 12.5553 14.29 11.7502 14.6219 10.7287L14.6399 10.6732C14.9718 9.65178 15.2334 8.84665 15.3739 8.17556C15.5181 7.48688 15.5461 6.89245 15.3766 6.29745C15.3509 6.20732 15.3219 6.11816 15.2897 6.03014C15.0771 5.44916 14.7051 4.98466 14.1837 4.51227C13.6755 4.05192 12.9907 3.55436 12.1217 2.92305L12.0745 2.88873C11.2056 2.25742 10.5207 1.75986 9.92591 1.41882C9.3155 1.06886 8.75879 0.858631 8.14053 0.835951ZM7.89613 1.83528C7.96536 1.83274 8.03465 1.83274 8.10387 1.83528C8.50083 1.84984 8.89619 1.98116 9.42853 2.28636C9.97104 2.59739 10.6126 3.06268 11.5103 3.71492C12.4081 4.36716 13.0488 4.83354 13.5123 5.25339C13.9671 5.66536 14.2141 6.00079 14.3506 6.37382C14.3744 6.43887 14.3959 6.50477 14.4148 6.57139C14.5237 6.95342 14.5209 7.37001 14.3952 7.9706C14.267 8.58268 14.0227 9.33663 13.6798 10.392C13.3369 11.4473 13.0914 12.2008 12.8353 12.7714C12.584 13.3312 12.3414 13.6698 12.0288 13.9149C11.9743 13.9576 11.9182 13.9984 11.8607 14.037C11.531 14.2586 11.134 14.3847 10.5239 14.4507C9.90219 14.5179 9.10966 14.5186 8 14.5186C6.89035 14.5186 6.09782 14.5179 5.4761 14.4507C4.86603 14.3847 4.469 14.2586 4.13929 14.037C4.08179 13.9984 4.02574 13.9576 3.97123 13.9149C3.65864 13.6698 3.41597 13.3312 3.1647 12.7714C2.90862 12.2008 2.66307 11.4473 2.32017 10.392C1.97726 9.33663 1.733 8.58268 1.60484 7.9706C1.47907 7.37001 1.47636 6.95342 1.58517 6.57139C1.60415 6.50477 1.62556 6.43887 1.64937 6.37382C1.78589 6.00079 2.03295 5.66536 2.48771 5.25339C2.95117 4.83354 3.59194 4.36716 4.48967 3.71492C5.3874 3.06268 6.02897 2.59739 6.57148 2.28636C7.10382 1.98116 7.49918 1.84984 7.89613 1.83528Z" />
</svg>
