<svg width="25" height="28" viewBox="0 0 25 28" fill="none" xmlns="http://www.w3.org/2000/svg">
<path d="M18.8418 21.3862C19.4251 21.3862 19.9199 21.183 20.3262 20.7768C20.7324 20.3705 20.9355 19.8758 20.9355 19.2924C20.9355 18.7091 20.7324 18.2195 20.3262 17.8237C19.9199 17.4278 19.4251 17.2299 18.8418 17.2299C18.2793 17.2299 17.7949 17.433 17.3887 17.8393C16.9824 18.2455 16.7793 18.7299 16.7793 19.2924C16.7793 19.8758 16.9824 20.3705 17.3887 20.7768C17.7949 21.183 18.2793 21.3862 18.8418 21.3862ZM18.8418 25.5424C19.5293 25.5424 20.1751 25.381 20.7793 25.058C21.3835 24.7351 21.873 24.2924 22.248 23.7299C21.7064 23.4383 21.1543 23.2039 20.5918 23.0268C20.0293 22.8497 19.446 22.7612 18.8418 22.7612C18.2376 22.7612 17.6543 22.8497 17.0918 23.0268C16.5293 23.2039 15.9772 23.4383 15.4355 23.7299C15.8105 24.2924 16.3001 24.7351 16.9043 25.058C17.5085 25.381 18.1543 25.5424 18.8418 25.5424ZM6.24805 9.35492H14.373V6.44867C14.373 5.26117 13.9824 4.27159 13.2012 3.47992C12.4199 2.68825 11.4564 2.29242 10.3105 2.29242C9.16471 2.29242 8.20117 2.68825 7.41992 3.47992C6.63867 4.27159 6.24805 5.26117 6.24805 6.44867V9.35492ZM12.7168 26.6674H2.18555C1.70638 26.6674 1.27409 26.4747 0.888672 26.0893C0.503255 25.7039 0.310547 25.2716 0.310547 24.7924V11.2299C0.310547 10.7508 0.503255 10.3185 0.888672 9.93304C1.27409 9.54763 1.70638 9.35492 2.18555 9.35492H4.37305V6.44867C4.37305 4.76117 4.94596 3.33409 6.0918 2.16742C7.23763 1.00075 8.64388 0.417419 10.3105 0.417419C11.9772 0.417419 13.3835 1.00075 14.5293 2.16742C15.6751 3.33409 16.248 4.76117 16.248 6.44867V9.35492H18.4355C18.9147 9.35492 19.347 9.54763 19.7324 9.93304C20.1178 10.3185 20.3105 10.7508 20.3105 11.2299V13.9487C20.0397 13.8862 19.7585 13.8445 19.4668 13.8237C19.1751 13.8028 18.8314 13.7924 18.4355 13.7924V11.2299H2.18555V24.7924H11.5918C11.7376 25.1466 11.8939 25.4643 12.0605 25.7455C12.2272 26.0268 12.446 26.3341 12.7168 26.6674ZM18.8418 27.7299C17.196 27.7299 15.7793 27.1362 14.5918 25.9487C13.4043 24.7612 12.8105 23.3445 12.8105 21.6987C12.8105 20.0528 13.4043 18.6362 14.5918 17.4487C15.7793 16.2612 17.196 15.6674 18.8418 15.6674C20.4876 15.6674 21.9043 16.2612 23.0918 17.4487C24.2793 18.6362 24.873 20.0528 24.873 21.6987C24.873 23.3445 24.2793 24.7612 23.0918 25.9487C21.9043 27.1362 20.4876 27.7299 18.8418 27.7299ZM2.18555 11.2299V24.7924V11.2299Z" fill="black" fill-opacity="0.85"/>
</svg>
