<svg width="16" height="14" viewBox="0 0 16 14" fill="none" xmlns="http://www.w3.org/2000/svg">
<path fill-rule="evenodd" clip-rule="evenodd" d="M11.6422 0.582485C10.8808 0.49999 9.92103 0.499995 8.69667 0.5H7.303C6.07865 0.499995 5.11891 0.49999 4.35749 0.582485C3.58046 0.666671 2.95088 0.841549 2.41333 1.2321C2.0879 1.46854 1.80171 1.75473 1.56527 2.08016C1.4622 2.22203 1.37325 2.37156 1.29676 2.53031C1.04994 3.04253 0.939931 3.63671 0.886344 4.34603C0.833167 5.04991 0.833169 5.91384 0.833171 6.98064V7C0.833171 7.27614 1.05703 7.5 1.33317 7.5C1.60931 7.5 1.83317 7.27614 1.83317 7C1.83317 5.90988 1.8335 5.08329 1.8835 4.42136C1.90481 4.13927 1.93471 3.89574 1.97498 3.68225L2.9593 4.66657C4.04747 5.75476 4.90025 6.60754 5.65509 7.18347C6.42771 7.77295 7.1562 8.11929 7.99984 8.11929C8.84347 8.11929 9.57196 7.77295 10.3446 7.18347C11.0994 6.60755 11.9522 5.75477 13.0403 4.6666L14.0247 3.68225C14.065 3.89574 14.0949 4.13927 14.1162 4.42136C14.1662 5.08329 14.1665 5.90988 14.1665 7C14.1665 8.26105 14.1658 9.16667 14.0898 9.86797C14.0149 10.5599 13.8714 10.9934 13.6254 11.3321C13.4506 11.5726 13.2391 11.7841 12.9986 11.9589C12.6599 12.2049 12.2264 12.3484 11.5345 12.4233C10.8332 12.4993 9.92755 12.5 8.6665 12.5H7.33317C7.05703 12.5 6.83317 12.7239 6.83317 13C6.83317 13.2761 7.05703 13.5 7.33317 13.5H8.69669C9.92101 13.5 10.8808 13.5 11.6422 13.4175C12.4192 13.3333 13.0488 13.1585 13.5863 12.7679C13.9118 12.5315 14.198 12.2453 14.4344 11.9198C14.825 11.3823 14.9998 10.7527 15.084 9.97568C15.1665 9.21427 15.1665 8.25456 15.1665 7.03023V6.98067C15.1665 5.91386 15.1665 5.04992 15.1133 4.34603C15.0597 3.63671 14.9497 3.04253 14.7029 2.53031C14.6264 2.37156 14.5375 2.22203 14.4344 2.08016C14.198 1.75473 13.9118 1.46854 13.5863 1.2321C13.0488 0.841549 12.4192 0.666671 11.6422 0.582485ZM3.63935 3.9324L2.37454 2.6676C2.54925 2.4272 2.76069 2.21579 3.00111 2.04112C3.33978 1.79506 3.77326 1.65163 4.4652 1.57667C5.1665 1.50069 6.07212 1.5 7.33317 1.5H8.6665C9.92755 1.5 10.8332 1.50069 11.5345 1.57667C12.2264 1.65163 12.6599 1.79506 12.9986 2.04112C13.239 2.21579 13.4504 2.42721 13.6251 2.6676L12.3603 3.9324C11.2392 5.05351 10.4332 5.85802 9.738 6.38844C9.05433 6.91007 8.53691 7.11929 7.99984 7.11929C7.46276 7.11929 6.94534 6.91007 6.26167 6.38844C5.56646 5.85802 4.76045 5.05351 3.63935 3.9324Z" fill="white"/>
<path d="M0.666504 9.16667C0.390362 9.16667 0.166504 9.39052 0.166504 9.66667C0.166504 9.94281 0.390362 10.1667 0.666504 10.1667H2.6665C2.94265 10.1667 3.1665 9.94281 3.1665 9.66667C3.1665 9.39052 2.94265 9.16667 2.6665 9.16667H0.666504Z" fill="white"/>
<path d="M0.666504 11.1667C0.390362 11.1667 0.166504 11.3905 0.166504 11.6667C0.166504 11.9428 0.390362 12.1667 0.666504 12.1667H4.6665C4.94265 12.1667 5.1665 11.9428 5.1665 11.6667C5.1665 11.3905 4.94265 11.1667 4.6665 11.1667H0.666504Z" fill="white"/>
</svg>
