<svg width="12" height="16" viewBox="0 0 12 16" fill="none" xmlns="http://www.w3.org/2000/svg">
<path fill-rule="evenodd" clip-rule="evenodd" d="M5.39982 0.833374C3.13612 0.833374 1.38466 2.81739 1.66544 5.06362L1.71834 5.48685C1.79576 6.10615 1.56954 6.72475 1.11087 7.148C0.160413 8.02507 -0.103651 9.42103 0.460783 10.5847L0.529683 10.7267C1.0558 11.8113 2.15533 12.5 3.36082 12.5H8.84136C9.88117 12.5 10.8489 11.9688 11.4072 11.0916C12.1953 9.85331 11.9866 8.22885 10.911 7.23002L10.8818 7.20284C10.3894 6.7456 10.147 6.07946 10.2304 5.41271L10.2734 5.06809C10.5545 2.81949 8.8012 0.833374 6.5351 0.833374H5.39982ZM2.65772 4.93958C2.45155 3.29021 3.73762 1.83337 5.39982 1.83337H6.5351C8.1997 1.83337 9.48763 3.29231 9.28116 4.94406L9.23808 5.28868C9.11485 6.27454 9.47327 7.2595 10.2013 7.93559L10.2305 7.96277C10.9524 8.63319 11.0925 9.72354 10.5636 10.5547C10.1888 11.1435 9.53929 11.5 8.84136 11.5H3.36082C2.53843 11.5 1.78833 11.0302 1.42942 10.2903L1.36052 10.1482C0.988467 9.38121 1.16253 8.46104 1.78903 7.88291C2.48487 7.2408 2.82806 6.30234 2.71062 5.36281L2.65772 4.93958Z"/>
<path d="M4.5221 13.7C4.35641 13.4791 4.04301 13.4344 3.8221 13.6C3.60119 13.7657 3.55641 14.0791 3.7221 14.3L3.9221 14.5667C5.0221 16.0334 7.2221 16.0334 8.3221 14.5667L8.5221 14.3C8.68779 14.0791 8.64301 13.7657 8.4221 13.6C8.20119 13.4344 7.88779 13.4791 7.7221 13.7L7.5221 13.9667C6.8221 14.9 5.4221 14.9 4.7221 13.9667L4.5221 13.7Z"/>
</svg>
