<svg width="12" height="12" viewBox="0 0 12 12" fill="none" xmlns="http://www.w3.org/2000/svg">
<path fill-rule="evenodd" clip-rule="evenodd" d="M7.34861 1.14844L7.40866 1.1831C7.92741 1.48258 8.35998 1.73231 8.67672 1.97674C9.01104 2.23473 9.27639 2.53086 9.38753 2.94565C9.49868 3.36044 9.41694 3.74957 9.25641 4.14016C9.10431 4.51022 8.85456 4.94277 8.55505 5.46149L5.97137 9.93664C5.77341 10.2802 5.61688 10.5518 5.37865 10.7565C5.14041 10.9612 4.84831 11.075 4.47889 11.219L4.37906 11.258C3.69358 11.5258 3.12854 11.7466 2.66584 11.8547C2.18191 11.9678 1.71467 11.9818 1.27916 11.7304C0.843642 11.4789 0.622205 11.0673 0.478158 10.5916C0.340425 10.1369 0.249105 9.53716 0.138314 8.80959L0.122142 8.70365C0.0621231 8.31174 0.0146649 8.00184 0.0728214 7.69318C0.080091 7.65459 0.0889047 7.61659 0.0991505 7.57896C0.170871 7.31554 0.312768 7.07024 0.486476 6.76993L3.07022 2.29483C3.3697 1.77608 3.61942 1.34351 3.86385 1.02677C4.12185 0.692449 4.41798 0.427097 4.83277 0.315955C5.24756 0.204812 5.63669 0.286549 6.02728 0.447083C6.39733 0.599174 6.82989 0.848928 7.34861 1.14844ZM3.66891 3.25787L7.42169 5.42453L5.1394 9.37758C4.89076 9.80823 4.81967 9.91835 4.72694 9.99802C4.63422 10.0777 4.51465 10.1314 4.05147 10.3124C3.32049 10.5979 2.82265 10.7911 2.43833 10.8809C2.06708 10.9677 1.89862 10.9333 1.77916 10.8644C1.65969 10.7954 1.54573 10.6667 1.43523 10.3018C1.32083 9.92405 1.23921 9.39632 1.12104 8.62047C1.04617 8.12886 1.0329 7.99847 1.05553 7.87833C1.07817 7.75819 1.13798 7.64157 1.38662 7.21091L3.66891 3.25787ZM8.33148 3.76002C8.24313 3.97498 8.10802 4.22773 7.92064 4.5579L4.16996 2.39244C4.36222 2.06509 4.51355 1.8217 4.65553 1.63771C4.84517 1.39196 4.97291 1.31368 5.09159 1.28188C5.21026 1.25008 5.36003 1.25401 5.64713 1.37201C5.94766 1.49553 6.32206 1.71046 6.87864 2.0318C7.43521 2.35313 7.80855 2.56991 8.06578 2.76841C8.31152 2.95805 8.38981 3.08579 8.42161 3.20447C8.45341 3.32315 8.44948 3.47291 8.33148 3.76002Z" fill="#1573FE"/>
<path d="M6.43994 11.5006C6.43994 11.2245 6.6638 11.0006 6.93994 11.0006H10.9399C11.2161 11.0006 11.4399 11.2245 11.4399 11.5006C11.4399 11.7768 11.2161 12.0006 10.9399 12.0006H6.93994C6.6638 12.0006 6.43994 11.7768 6.43994 11.5006Z" fill="#1573FE"/>
</svg>
