<?xml version="1.0" encoding="UTF-8"?><svg id="Layer_2" xmlns="http://www.w3.org/2000/svg" viewBox="0 0 104.39 107.97"><defs><style>.cls-1{fill:#d44da7;}.cls-2{fill:#4d4d4d;}</style></defs><g id="Layer_1-2"><g id="Zgiwh5.tif"><g><path class="cls-2" d="M30.19,11.5c4.21-.03,7.51,3.04,7.49,6.96-.02,3.82-3.24,6.93-7.26,6.99-4.17,.07-7.54-3-7.58-6.89-.04-4.03,3.08-7.03,7.35-7.06Z"/><path class="cls-2" d="M30.32,48.92c-4.24,.01-7.48-3.01-7.47-6.96,.01-3.97,3.27-7.04,7.45-7.02,4.13,.02,7.43,3.2,7.38,7.13-.04,3.8-3.32,6.85-7.37,6.86Z"/><path class="cls-2" d="M7.47,23.47c4.23,.02,7.47,3.09,7.41,7.04-.05,3.82-3.3,6.89-7.33,6.92C3.38,37.46,.04,34.38,0,30.47c-.04-3.91,3.28-7.02,7.47-7Z"/><path class="cls-2" d="M96.94,37.42c-4.15,.03-7.45-3.1-7.43-7.04,.01-3.84,3.19-6.84,7.29-6.91,4.19-.06,7.56,3,7.59,6.9,.03,3.91-3.26,7.02-7.45,7.05Z"/><path class="cls-2" d="M7.28,60.88C3.29,60.88,.03,57.77,0,53.93c-.03-3.85,3.38-7.04,7.5-7.03,4.1,.01,7.43,3.23,7.38,7.14-.05,3.93-3.28,6.82-7.61,6.83Z"/><path class="cls-2" d="M96.84,60.88c-4.04,.02-7.29-3.01-7.34-6.85-.05-3.94,3.23-7.11,7.37-7.13,4.08-.02,7.5,3.19,7.52,7.05,.02,3.89-3.27,6.91-7.55,6.93Z"/><path class="cls-2" d="M30.11,72.38c-4.22-.05-7.35-3.13-7.27-7.15,.08-3.81,3.36-6.82,7.42-6.8,4.11,.02,7.48,3.23,7.44,7.09-.05,3.92-3.35,6.91-7.59,6.86Z"/><path class="cls-2" d="M74.97,72.38c-4.27-.01-7.4-3-7.37-7.03,.04-3.9,3.19-6.89,7.27-6.89,4.2,0,7.57,3.08,7.58,6.93,.01,3.9-3.3,7-7.48,6.99Z"/><path class="cls-2" d="M74.95,11.49c4.22,0,7.53,3.08,7.5,6.98-.03,3.9-3.42,7.01-7.56,6.96-4.09-.06-7.25-3.04-7.31-6.91-.06-4.01,3.1-7.02,7.37-7.02Z"/><path class="cls-2" d="M52.24,37.42c-4.15,0-7.48-3.11-7.5-7.01-.02-3.9,3.31-6.97,7.52-6.94,4.1,.04,7.32,3.03,7.36,6.85,.04,3.94-3.24,7.1-7.38,7.1Z"/><path class="cls-2" d="M74.92,48.89c-4.26-.04-7.38-3.06-7.3-7.08,.08-3.9,3.22-6.86,7.3-6.88,3.97-.02,7.49,3.14,7.52,6.75,.04,4.12-3.21,7.24-7.52,7.21Z"/><path class="cls-2" d="M52.05,93.93c4.17-.05,7.53,3.01,7.6,6.93,.07,3.81-3.38,7.1-7.45,7.12-3.96,.01-7.36-3.1-7.47-6.84-.11-3.88,3.22-7.15,7.32-7.2Z"/><path class="cls-2" d="M7.57,84.43c-4.17,.06-7.51-3.01-7.56-6.95-.05-3.9,3.3-7.06,7.46-7.05,4.12,.02,7.3,2.94,7.41,6.82,.11,3.92-3.14,7.11-7.31,7.18Z"/><path class="cls-2" d="M96.88,84.43c-4.2-.07-7.42-3.18-7.37-7.12,.04-3.88,3.47-6.99,7.6-6.89,4.15,.1,7.36,3.3,7.27,7.24-.09,3.71-3.56,6.84-7.5,6.77Z"/><path class="cls-1" d="M52.27,60.9c-3.99,.04-7.43-3.03-7.54-6.7-.11-4.03,3.16-7.21,7.48-7.27,3.92-.06,7.36,3.11,7.41,6.83,.06,3.9-3.24,7.1-7.36,7.14Z"/><path class="cls-2" d="M52.36,70.52c4.08,0,7.27,3.04,7.26,6.89-.01,3.97-3.29,7.04-7.47,6.99-4.2-.05-7.46-3.15-7.41-7.07,.04-3.9,3.31-6.82,7.62-6.82Z"/><path class="cls-2" d="M74.88,81.98c4.21-.05,7.55,3.02,7.52,6.91-.03,3.82-3.22,6.96-7.2,7.08-4.14,.12-7.5-2.92-7.58-6.87-.08-4.05,3-7.08,7.26-7.13Z"/><path class="cls-2" d="M52.37,0c4.24,.06,7.36,3.15,7.25,7.17-.11,3.8-3.43,6.8-7.48,6.76-4.13-.04-7.44-3.23-7.4-7.12C44.77,2.91,48.11-.06,52.37,0Z"/><path class="cls-2" d="M30.26,81.99c4.22,0,7.41,3.02,7.42,7.05,0,3.76-3.26,6.87-7.32,6.95-4.23,.08-7.53-3.1-7.51-7.24,.01-3.79,3.26-6.75,7.41-6.75Z"/></g></g></g></svg>