<svg width="249" height="54" viewBox="0 0 249 54" fill="none" xmlns="http://www.w3.org/2000/svg">
<path d="M25.1509 0C30.4634 0 34.7383 2.52337 34.7383 5.67757C34.7383 8.78973 30.4219 11.3551 25.1509 11.3551C19.8799 11.3551 15.5634 8.83178 15.5634 5.67757C15.5634 2.56542 19.8384 0 25.1509 0ZM25.1509 42.6449C30.4634 42.6449 34.7383 45.1683 34.7383 48.3225C34.7383 51.4767 30.4219 54 25.1509 54C19.8799 54 15.5634 51.4767 15.5634 48.3225C15.5634 45.1683 19.8384 42.6449 25.1509 42.6449ZM2.07459 13.5C4.73086 8.83178 9.04729 6.35048 11.7036 7.90656C14.3598 9.46263 14.4013 14.5094 11.7451 19.1776C9.08879 23.8458 4.77236 26.3271 2.1161 24.771C-0.540165 23.215 -0.58167 18.1682 2.07459 13.5ZM38.5152 34.8225C41.1715 30.1542 45.4879 27.6729 48.1442 29.229C50.8004 30.7851 50.8419 35.8318 48.1857 40.5C45.5294 45.1683 41.213 47.6496 38.5567 46.0935C35.9005 44.5374 35.9005 39.4907 38.5152 34.8225ZM2.1161 29.229C4.77236 27.6729 9.08879 30.1542 11.7451 34.8225C14.4013 39.4907 14.3598 44.5374 11.7036 46.0935C9.04729 47.6496 4.73086 45.1683 2.07459 40.5C-0.58167 35.8318 -0.540165 30.7851 2.1161 29.229ZM38.5567 7.90656C41.213 6.35048 45.5294 8.83178 48.1857 13.5C50.8419 18.1682 50.8419 23.215 48.1442 24.771C45.4879 26.3271 41.1715 23.8458 38.5152 19.1776C35.9005 14.5094 35.9005 9.46263 38.5567 7.90656Z" fill="#E6007A"/>
<path d="M77.2349 7.73828C74.3297 7.73828 71.5074 8.11679 70.3453 8.41118C68.6851 8.8738 68.2701 9.63081 67.938 11.1448L61.3804 42.0561C61.2559 42.6869 61.1729 43.2336 61.1729 43.7383C61.1729 45.2523 62.169 46.2617 63.7876 46.2617C65.5723 46.2617 66.2779 45.0841 66.6514 43.3177L68.5191 34.528C69.8057 34.6962 71.5489 34.8645 73.9976 34.8645C84.7887 34.8645 91.4709 28.9766 91.4709 20.0607C91.4294 12.1962 86.0753 7.73828 77.2349 7.73828ZM73.7071 29.7757C72.0469 29.7757 70.7188 29.7336 69.5567 29.5654L73.043 13.1635C74.1221 12.9953 75.7408 12.785 77.401 12.785C83.1285 12.785 86.0338 15.5187 86.0338 20.0607C86.0338 25.8645 81.8834 29.7757 73.7071 29.7757ZM246.779 36.0841C245.908 36.0841 245.327 36.6308 244.248 37.8084C242.338 39.8271 241.135 40.9205 239.599 40.9205C238.229 40.9205 237.524 39.8271 237.524 38.0187C237.524 37.0093 237.731 35.7897 237.98 34.486L239.89 25.3177H245.659C247.485 25.3177 248.564 24.2663 248.564 22.3738C248.564 21.3224 247.9 20.5233 246.323 20.5233H240.886L241.84 16.2336C241.965 15.6028 242.048 15.014 242.048 14.5093C242.048 13.0374 241.052 11.9859 239.433 11.9859C237.731 11.9859 236.943 13.1635 236.569 14.9299L235.366 20.5233H232.917C231.049 20.5233 229.97 21.5747 229.97 23.4673C229.97 24.5187 230.717 25.3177 232.253 25.3177H234.37L232.46 34.4018C232.253 35.4112 232.004 37.0514 232.004 38.7336C232.004 43.0233 234.204 46.1355 238.894 46.1355C241.591 46.1355 243.999 44.7477 245.825 43.1075C247.609 41.5093 248.896 39.5747 248.896 38.3131C248.937 37.0934 247.983 36.0841 246.779 36.0841ZM127.081 10.8504C127.081 9.33641 126.044 8.32706 124.425 8.32706C122.723 8.32706 121.935 9.50463 121.561 11.271L115.045 41.8878C114.879 42.5187 114.796 43.0654 114.796 43.5701C114.796 45.0841 115.834 46.0934 117.411 46.0934C119.196 46.0934 119.943 44.9159 120.316 43.1495L126.832 12.5327C126.915 11.9018 127.081 11.3551 127.081 10.8504ZM219.968 20.0187C211.625 20.0187 205.981 28.3878 205.981 36.3785C205.981 36.5467 205.981 36.6729 205.981 36.8411C204.694 38.8598 202.992 40.9205 201.872 40.9205C201.042 40.9205 200.71 40.1215 200.71 38.9019C200.71 37.4299 201.125 34.9486 201.581 32.8037L205.898 12.5327C206.022 11.9018 206.105 11.3551 206.105 10.8504C206.105 9.33641 205.109 8.32706 203.49 8.32706C201.706 8.32706 201 9.50463 200.627 11.271L198.302 22.2476C197.057 20.9439 195.231 20.0187 192.492 20.0187C186.972 20.0187 181.41 24.3504 179.252 30.9532C176.845 37.2196 174.728 40.9205 173.026 40.9205C172.404 40.9205 172.03 40.3738 172.03 39.4906C172.03 36.8411 173.483 30.4065 174.106 27.2944C174.313 26.1168 174.438 25.6542 174.438 24.9813C174.438 22.6682 170.619 19.9346 165.68 19.9346C159.953 19.9346 154.765 23.5934 152.191 29.0607C148.331 35.9579 144.804 40.9205 143.06 40.9205C142.272 40.9205 142.023 39.9112 141.815 38.986L140.529 31.7103L148.498 25.1074C149.245 24.4766 150.158 23.5934 150.158 22.4159C150.158 20.986 149.203 20.0607 147.833 20.0607C146.796 20.0607 145.924 20.6916 145.011 21.4486L133.058 31.4579L137.084 12.5747C137.208 11.9439 137.333 11.3972 137.333 10.8925C137.333 9.37847 136.295 8.36912 134.677 8.36912C132.975 8.36912 132.186 9.54669 131.813 11.313L125.297 41.9299C125.131 42.5607 125.048 43.1075 125.048 43.6121C125.048 45.1262 126.085 46.1355 127.662 46.1355C129.447 46.1355 130.194 44.9579 130.568 43.1916L131.398 39.2383L136.295 35.243L137.499 41.3411C137.955 43.7804 139.201 46.1355 142.438 46.1355C145.634 46.1355 148.165 43.1495 150.697 39.1542C151.444 43.3598 154.433 46.1355 158.5 46.1355C162.609 46.1355 165.431 43.6542 167.257 40.3318V40.4579C167.257 43.9065 168.959 46.1355 171.989 46.1355C174.728 46.1355 176.969 44.4533 179.003 40.9205C180.165 43.9906 182.738 46.1355 186.308 46.1355C190.541 46.1355 193.529 43.5701 195.48 39.9533V40.2897C195.48 44.0747 197.348 46.1355 200.419 46.1355C203.117 46.1355 205.441 44.5374 207.392 41.9299C208.886 44.5374 211.584 46.1355 215.195 46.1355C223.537 46.1355 229.182 37.7663 229.182 29.7336C229.14 24.056 225.778 20.0187 219.968 20.0187ZM168.087 30.743C166.593 37.3458 163.356 41.0888 159.704 41.0888C157.255 41.0888 155.885 39.1962 155.885 36.3364C155.885 30.743 159.911 24.7289 165.265 24.7289C166.884 24.7289 168.129 25.1916 169.208 25.9065L168.087 30.743ZM197.099 27.9252C195.439 35.6635 191.62 41.0467 187.47 41.0467C185.187 41.0467 183.818 39.2383 183.818 36.2944C183.818 30.6589 187.677 24.8131 192.824 24.8131C194.816 24.8131 196.31 25.486 197.389 26.4112L197.099 27.9252ZM215.776 41.0467C212.746 41.0467 211.501 38.8177 211.501 36.042C211.501 30.9112 214.987 25.0654 219.345 25.0654C222.375 25.0654 223.62 27.2944 223.62 30.0701C223.62 35.243 220.134 41.0467 215.776 41.0467ZM104.42 20.0187C96.0778 20.0187 90.4333 28.3878 90.4333 36.3785C90.4333 42.0561 93.8366 46.1355 99.6057 46.1355C107.948 46.1355 113.593 37.7663 113.593 29.7336C113.551 24.056 110.189 20.0187 104.42 20.0187ZM100.187 41.0467C97.1569 41.0467 95.9118 38.8177 95.9118 36.042C95.9118 30.9112 99.3981 25.0654 103.756 25.0654C106.786 25.0654 108.031 27.2944 108.031 30.0701C108.031 35.243 104.545 41.0467 100.187 41.0467Z" fill="white"/>
</svg>
