<svg width="26" height="26" viewBox="0 0 26 26" fill="none" xmlns="http://www.w3.org/2000/svg">
<path d="M9.93555 25.6476L9.31055 21.7101C8.91471 21.5643 8.49805 21.3664 8.06055 21.1164C7.62305 20.8664 7.23763 20.606 6.9043 20.3351L3.2168 22.0226L0.310547 16.8976L3.68555 14.4289C3.64388 14.2414 3.61784 14.0279 3.60742 13.7883C3.597 13.5487 3.5918 13.3351 3.5918 13.1476C3.5918 12.9601 3.597 12.7466 3.60742 12.507C3.61784 12.2674 3.64388 12.0539 3.68555 11.8664L0.310547 9.39764L3.2168 4.27264L6.9043 5.96014C7.23763 5.68931 7.62305 5.42889 8.06055 5.17889C8.49805 4.92889 8.91471 4.74139 9.31055 4.61639L9.93555 0.647644H15.6855L16.3105 4.58514C16.7064 4.73098 17.1283 4.92369 17.5762 5.16327C18.0241 5.40285 18.4043 5.66848 18.7168 5.96014L22.4043 4.27264L25.3105 9.39764L21.9355 11.8039C21.9772 12.0122 22.0033 12.2362 22.0137 12.4758C22.0241 12.7154 22.0293 12.9393 22.0293 13.1476C22.0293 13.356 22.0241 13.5747 22.0137 13.8039C22.0033 14.0331 21.9772 14.2518 21.9355 14.4601L25.3105 16.8976L22.4043 22.0226L18.7168 20.3351C18.3835 20.606 18.0033 20.8716 17.5762 21.132C17.1491 21.3924 16.7272 21.5851 16.3105 21.7101L15.6855 25.6476H9.93555ZM12.8105 17.2101C13.9355 17.2101 14.8939 16.8143 15.6855 16.0226C16.4772 15.231 16.873 14.2726 16.873 13.1476C16.873 12.0226 16.4772 11.0643 15.6855 10.2726C14.8939 9.48098 13.9355 9.08514 12.8105 9.08514C11.6855 9.08514 10.7272 9.48098 9.93555 10.2726C9.14388 11.0643 8.74805 12.0226 8.74805 13.1476C8.74805 14.2726 9.14388 15.231 9.93555 16.0226C10.7272 16.8143 11.6855 17.2101 12.8105 17.2101ZM12.8105 15.3351C12.2064 15.3351 11.6908 15.1216 11.2637 14.6945C10.8366 14.2674 10.623 13.7518 10.623 13.1476C10.623 12.5435 10.8366 12.0279 11.2637 11.6008C11.6908 11.1737 12.2064 10.9601 12.8105 10.9601C13.4147 10.9601 13.9303 11.1737 14.3574 11.6008C14.7845 12.0279 14.998 12.5435 14.998 13.1476C14.998 13.7518 14.7845 14.2674 14.3574 14.6945C13.9303 15.1216 13.4147 15.3351 12.8105 15.3351ZM11.4355 23.7726H14.1855L14.623 20.2726C15.3105 20.106 15.9616 19.8456 16.5762 19.4914C17.1908 19.1372 17.748 18.7101 18.248 18.2101L21.5605 19.6476L22.8105 17.3976L19.873 15.2414C19.9564 14.8872 20.0241 14.5383 20.0762 14.1945C20.1283 13.8508 20.1543 13.5018 20.1543 13.1476C20.1543 12.7935 20.1335 12.4445 20.0918 12.1008C20.0501 11.757 19.9772 11.4081 19.873 11.0539L22.8105 8.89764L21.5605 6.64764L18.248 8.08514C17.7689 7.54348 17.2272 7.09035 16.623 6.72577C16.0189 6.36119 15.3522 6.12681 14.623 6.02264L14.1855 2.52264H11.4355L10.998 6.02264C10.2897 6.16848 9.62825 6.41848 9.01367 6.77264C8.39909 7.12681 7.85221 7.56431 7.37305 8.08514L4.06055 6.64764L2.81055 8.89764L5.74805 11.0539C5.66471 11.4081 5.59701 11.757 5.54492 12.1008C5.49284 12.4445 5.4668 12.7935 5.4668 13.1476C5.4668 13.5018 5.49284 13.8508 5.54492 14.1945C5.59701 14.5383 5.66471 14.8872 5.74805 15.2414L2.81055 17.3976L4.06055 19.6476L7.37305 18.2101C7.87305 18.7101 8.43034 19.1372 9.04492 19.4914C9.65951 19.8456 10.3105 20.106 10.998 20.2726L11.4355 23.7726Z" />
</svg>
