<svg width="16" height="16" viewBox="0 0 16 16" fill="none" xmlns="http://www.w3.org/2000/svg">
<path d="M11.9808 1.16806C12.6524 1.16506 13.1138 1.16376 13.4653 1.20214C13.5796 1.21462 13.675 1.23069 13.7561 1.25012L6.67045 8.33577C6.47519 8.53103 6.47519 8.84761 6.67045 9.04287C6.86571 9.23814 7.18229 9.23814 7.37755 9.04287L14.4632 1.95723C14.4826 2.0383 14.4987 2.13377 14.5112 2.248C14.5496 2.59949 14.5483 3.06092 14.5453 3.7325L14.5379 5.38726C14.5367 5.6634 14.7595 5.88825 15.0356 5.88948C15.3118 5.89072 15.5366 5.66786 15.5379 5.39172L15.5454 3.70716C15.5482 3.07268 15.5506 2.55412 15.5053 2.13944C15.4582 1.70822 15.3545 1.32644 15.1002 0.997918C15.0452 0.926802 14.9858 0.85928 14.9224 0.79572C14.8575 0.730542 14.7883 0.669537 14.7154 0.613099C14.3869 0.358858 14.0051 0.255145 13.5739 0.208053C13.1592 0.162767 12.6406 0.16509 12.0062 0.167933L10.3216 0.175449C10.0455 0.176681 9.82261 0.401535 9.82384 0.677674C9.82507 0.953814 10.0499 1.17667 10.3261 1.17544L11.9808 1.16806Z" fill="#8B8B8B"/>
<path d="M8.67282 2.29466C8.26907 2.28982 7.82434 2.28982 7.33566 2.28982H7.30333C6.07897 2.28982 5.11924 2.28981 4.35781 2.37231C3.58079 2.45649 2.9512 2.63137 2.41365 3.02192C2.08822 3.25836 1.80204 3.54455 1.5656 3.86998C1.17505 4.40753 1.00017 5.03712 0.915982 5.81414C0.833486 6.57556 0.833491 7.5353 0.833496 8.75966V8.81999C0.833491 10.0443 0.833486 11.0041 0.915982 11.7655C1.00017 12.5425 1.17505 13.1721 1.5656 13.7097C1.80204 14.0351 2.08822 14.3213 2.41365 14.5577C2.9512 14.9483 3.58079 15.1232 4.35781 15.2073C5.11922 15.2898 6.07894 15.2898 7.30327 15.2898H7.36368C8.588 15.2898 9.54777 15.2898 10.3092 15.2073C11.0862 15.1232 11.7158 14.9483 12.2533 14.5577C12.5788 14.3213 12.865 14.0351 13.1014 13.7097C13.4919 13.1721 13.6668 12.5425 13.751 11.7655C13.8335 11.0041 13.8335 10.0444 13.8335 8.82005V8.78752C13.8335 8.29889 13.8335 7.85421 13.8287 7.4505C13.8253 7.17437 13.5988 6.95321 13.3227 6.95652C13.0466 6.95983 12.8254 7.18636 12.8287 7.46248C12.8335 7.85966 12.8335 8.2987 12.8335 8.78982C12.8335 10.0509 12.8328 10.9565 12.7568 11.6578C12.6819 12.3497 12.5384 12.7832 12.2924 13.1219C12.1176 13.3624 11.9061 13.5739 11.6656 13.7487C11.3269 13.9948 10.8934 14.1382 10.2015 14.2132C9.50017 14.2891 8.59454 14.2898 7.3335 14.2898C6.07245 14.2898 5.16683 14.2891 4.46553 14.2132C3.77359 14.1382 3.34011 13.9948 3.00144 13.7487C2.7609 13.5739 2.54937 13.3624 2.37462 13.1219C2.12856 12.7832 1.98513 12.3497 1.91016 11.6578C1.83418 10.9565 1.8335 10.0509 1.8335 8.78982C1.8335 7.52877 1.83418 6.62315 1.91016 5.92185C1.98513 5.22991 2.12856 4.79643 2.37462 4.45776C2.54937 4.21723 2.7609 4.0057 3.00144 3.83094C3.34011 3.58488 3.77359 3.44146 4.46553 3.36649C5.16683 3.29051 6.07245 3.28982 7.3335 3.28982C7.82462 3.28982 8.26366 3.28983 8.66084 3.29459C8.93696 3.2979 9.16348 3.07674 9.16679 2.80062C9.1701 2.5245 8.94895 2.29797 8.67282 2.29466Z" fill="#8B8B8B"/>
</svg>
