<svg width="14" height="15" viewBox="0 0 14 15" fill="none" xmlns="http://www.w3.org/2000/svg">
<path d="M0.333496 9.2787C0.333496 9.63232 0.473972 9.97146 0.72402 10.2215C0.974069 10.4716 1.31321 10.612 1.66683 10.612C2.02045 10.612 2.35959 10.4716 2.60964 10.2215C2.85969 9.97146 3.00016 9.63232 3.00016 9.2787V7.94536H1.66683C1.31321 7.94536 0.974069 8.08584 0.72402 8.33589C0.473972 8.58594 0.333496 8.92508 0.333496 9.2787ZM8.76016 7.05203C9.11378 7.05203 9.45292 6.91156 9.70297 6.66151C9.95302 6.41146 10.0935 6.07232 10.0935 5.7187V2.16536C10.0935 1.81174 9.95302 1.4726 9.70297 1.22256C9.45292 0.972507 9.11378 0.832031 8.76016 0.832031C8.40654 0.832031 8.0674 0.972507 7.81735 1.22256C7.56731 1.4726 7.42683 1.81174 7.42683 2.16536V5.7187C7.42682 5.89492 7.46175 6.0694 7.52958 6.23204C7.59742 6.39468 7.69683 6.54227 7.82206 6.66625C7.94728 6.79024 8.09585 6.88817 8.25916 6.95439C8.42247 7.02061 8.59728 7.05379 8.7735 7.05203H8.76016ZM13.6402 5.7187C13.6402 5.36508 13.4997 5.02594 13.2496 4.77589C12.9996 4.52584 12.6605 4.38536 12.3068 4.38536C11.9532 4.38536 11.6141 4.52584 11.364 4.77589C11.114 5.02594 10.9735 5.36508 10.9735 5.7187V7.05203H12.3068C12.4842 7.05558 12.6604 7.02371 12.8253 6.95829C12.9901 6.89288 13.1403 6.79523 13.2669 6.67106C13.3936 6.5469 13.4942 6.39871 13.5628 6.23518C13.6315 6.07165 13.6669 5.89606 13.6668 5.7187H13.6402ZM5.22683 7.94536C4.87321 7.94536 4.53407 8.08584 4.28402 8.33589C4.03397 8.58594 3.8935 8.92508 3.8935 9.2787V12.832C3.8935 13.1857 4.03397 13.5248 4.28402 13.7748C4.53407 14.0249 4.87321 14.1654 5.22683 14.1654C5.58045 14.1654 5.91959 14.0249 6.16964 13.7748C6.41969 13.5248 6.56016 13.1857 6.56016 12.832V9.2787C6.56016 8.92508 6.41969 8.58594 6.16964 8.33589C5.91959 8.08584 5.58045 7.94536 5.22683 7.94536ZM8.7735 11.4987H7.44016V12.832C7.44016 13.0957 7.51836 13.3535 7.66487 13.5728C7.81138 13.7921 8.01962 13.963 8.26325 14.0639C8.50689 14.1648 8.77497 14.1912 9.03362 14.1397C9.29226 14.0883 9.52983 13.9613 9.7163 13.7748C9.90277 13.5884 10.0298 13.3508 10.0812 13.0922C10.1327 12.8335 10.1063 12.5654 10.0053 12.3218C9.90442 12.0782 9.73352 11.8699 9.51426 11.7234C9.29499 11.5769 9.0372 11.4987 8.7735 11.4987ZM12.3335 7.94536H8.7735C8.41987 7.94536 8.08074 8.08584 7.83069 8.33589C7.58064 8.58594 7.44016 8.92508 7.44016 9.2787C7.44016 9.63232 7.58064 9.97146 7.83069 10.2215C8.08074 10.4716 8.41987 10.612 8.7735 10.612H12.3335C12.6871 10.612 13.0263 10.4716 13.2763 10.2215C13.5264 9.97146 13.6668 9.63232 13.6668 9.2787C13.6668 8.92508 13.5264 8.58594 13.2763 8.33589C13.0263 8.08584 12.6871 7.94536 12.3335 7.94536ZM5.22683 4.38536H1.66683C1.31321 4.38536 0.974069 4.52584 0.72402 4.77589C0.473972 5.02594 0.333496 5.36508 0.333496 5.7187C0.333496 6.07232 0.473972 6.41146 0.72402 6.66151C0.974069 6.91156 1.31321 7.05203 1.66683 7.05203H5.22683C5.58045 7.05203 5.91959 6.91156 6.16964 6.66151C6.41969 6.41146 6.56016 6.07232 6.56016 5.7187C6.56016 5.36508 6.41969 5.02594 6.16964 4.77589C5.91959 4.52584 5.58045 4.38536 5.22683 4.38536ZM5.22683 0.832031C4.87321 0.832031 4.53407 0.972507 4.28402 1.22256C4.03397 1.4726 3.8935 1.81174 3.8935 2.16536C3.8935 2.51899 4.03397 2.85813 4.28402 3.10817C4.53407 3.35822 4.87321 3.4987 5.22683 3.4987H6.56016V2.16536C6.56016 1.81174 6.41969 1.4726 6.16964 1.22256C5.91959 0.972507 5.58045 0.832031 5.22683 0.832031Z" fill="#8B8B8B"/>
</svg>
