<svg width="13" height="11" viewBox="0 0 13 11" fill="none" xmlns="http://www.w3.org/2000/svg">
<path fill-rule="evenodd" clip-rule="evenodd" d="M6.03749 2.41682C2.83352 3.65325 0.185379 4.68238 0.152723 4.70376C0.0735964 4.75562 9.60296e-05 4.88002 2.63597e-07 4.96228C-0.000143385 5.06341 0.0584414 5.1823 0.134863 5.23598C0.172571 5.26246 0.833667 5.51847 1.60398 5.80488C2.3743 6.09131 3.01625 6.33789 3.03054 6.35285C3.04481 6.36781 3.29653 7.15575 3.58991 8.10384C3.88329 9.05192 4.14008 9.86392 4.16055 9.90826C4.18105 9.9526 4.23099 10.0091 4.27155 10.0339C4.35465 10.0845 4.52478 10.0935 4.60345 10.0515C4.63177 10.0363 5.00006 9.74211 5.42186 9.39768C6.34296 8.64561 6.3121 8.66864 6.43684 8.6406C6.63388 8.59634 6.6723 8.61889 7.83035 9.45938C9.86246 10.9342 9.7144 10.8332 9.84292 10.8332C9.97601 10.8332 10.07 10.7745 10.1337 10.6517C10.1971 10.5292 12.2653 0.537291 12.2472 0.440663C12.2196 0.293543 12.0653 0.165934 11.9175 0.167993C11.8875 0.1684 9.24146 1.18036 6.03749 2.41682ZM9.59565 2.39858C9.61146 2.41438 9.62438 2.44483 9.62438 2.46626C9.62438 2.48769 8.74396 3.3232 7.66786 4.32292C5.05051 6.75459 4.94689 6.85296 4.87717 6.97193C4.7849 7.12937 4.74949 7.28805 4.66727 7.9123C4.62418 8.23946 4.57699 8.5101 4.55767 8.54077C4.52257 8.5965 4.42329 8.61298 4.3609 8.57345C4.34313 8.5622 4.18787 8.06407 4.01587 7.46651C3.68359 6.3122 3.66451 6.21114 3.74416 6.02744C3.76545 5.97833 3.81783 5.90517 3.86057 5.86487C3.95645 5.77442 9.47827 2.37059 9.52981 2.37016C9.55024 2.36999 9.57985 2.38277 9.59565 2.39858Z" fill="#8B8B8B"/>
</svg>
