<svg width="14" height="12" viewBox="0 0 14 12" fill="none" xmlns="http://www.w3.org/2000/svg">
<path d="M9.13703 0.741638C9.40644 0.47119 9.70546 0.246995 10.0876 0.186114C10.169 0.173144 10.2511 0.166626 10.3334 0.166626C10.4156 0.166626 10.4977 0.173143 10.5791 0.186114C10.9612 0.246995 11.2603 0.47119 11.5297 0.741639C11.7922 1.00518 12.0855 1.37512 12.441 1.82344L13.3918 3.02265C13.5634 3.23903 13.527 3.55352 13.3107 3.72508C13.0943 3.89665 12.7798 3.86032 12.6082 3.64394L11.6763 2.46863C11.3042 1.99928 11.0485 1.67794 10.8334 1.45964L10.8334 9.99996C10.8334 10.2761 10.6095 10.5 10.3334 10.5C10.0572 10.5 9.83335 10.2761 9.83335 9.99996L9.83335 1.45964C9.61825 1.67794 9.36252 1.99928 8.99037 2.46863L8.05847 3.64394C7.88691 3.86032 7.57242 3.89665 7.35604 3.72508C7.13966 3.55352 7.10333 3.23903 7.2749 3.02265L8.22574 1.82343C8.58119 1.37512 8.8745 1.00518 9.13703 0.741638Z"/>
<path d="M4.16669 1.33329C4.16669 1.05715 3.94283 0.833293 3.66669 0.833293C3.39054 0.833293 3.16669 1.05715 3.16669 1.33329L3.16669 9.87361C2.95158 9.65531 2.69585 9.33398 2.32371 8.86463L1.39181 7.68931C1.22024 7.47293 0.905752 7.4366 0.689373 7.60817C0.472994 7.77974 0.436665 8.09423 0.608231 8.31061L1.55907 9.50981C1.91452 9.95813 2.20783 10.3281 2.47036 10.5916C2.73977 10.8621 3.03879 11.0863 3.42091 11.1471C3.50231 11.1601 3.58443 11.1666 3.66669 11.1666C3.74894 11.1666 3.83106 11.1601 3.91247 11.1471C4.29458 11.0863 4.5936 10.8621 4.86301 10.5916C5.12554 10.3281 5.41885 9.95812 5.77431 9.5098L6.72514 8.31061C6.89671 8.09423 6.86038 7.77974 6.644 7.60817C6.42762 7.4366 6.11313 7.47293 5.94156 7.68931L5.00967 8.86463C4.63752 9.33398 4.38179 9.65531 4.16669 9.87361L4.16669 1.33329Z"/>
</svg>
