<svg width="12" height="16" viewBox="0 0 12 16" fill="none" xmlns="http://www.w3.org/2000/svg">
<path fill-rule="evenodd" clip-rule="evenodd" d="M5.99984 0.833313C4.25094 0.833313 2.83317 2.25108 2.83317 3.99998V4.16665H0.666504C0.390362 4.16665 0.166504 4.3905 0.166504 4.66665C0.166504 4.94279 0.390362 5.16665 0.666504 5.16665H11.3332C11.6093 5.16665 11.8332 4.94279 11.8332 4.66665C11.8332 4.3905 11.6093 4.16665 11.3332 4.16665H9.1665V3.99998C9.1665 2.25108 7.74874 0.833313 5.99984 0.833313ZM5.99984 1.83331C7.19645 1.83331 8.1665 2.80336 8.1665 3.99998V4.16665H3.83317V3.99998C3.83317 2.80336 4.80322 1.83331 5.99984 1.83331Z" fill="#E63946"/>
<path d="M1.83093 5.95269C1.80481 5.67778 1.56078 5.4761 1.28588 5.50222C1.01097 5.52834 0.809293 5.77237 0.835412 6.04727C0.898392 6.71013 1.01205 7.52685 1.15816 8.57669L1.34585 9.92541C1.5253 11.2152 1.62707 11.9467 1.84723 12.546C2.25697 13.6612 2.98787 14.5552 3.92788 14.9519C4.43832 15.1673 5.02219 15.167 5.89139 15.1667H6.10829C6.97749 15.167 7.56135 15.1673 8.0718 14.9519C9.0118 14.5552 9.7427 13.6612 10.1524 12.546C10.3726 11.9467 10.4744 11.2152 10.6538 9.92538L10.8415 8.5767C10.9876 7.52686 11.1013 6.71013 11.1643 6.04727C11.1904 5.77237 10.9887 5.52834 10.7138 5.50222C10.4389 5.4761 10.1949 5.67778 10.1687 5.95269C10.1081 6.59133 9.99749 7.38666 9.84941 8.45072L9.67452 9.70741C9.48083 11.0991 9.39213 11.7157 9.21379 12.2011C8.86986 13.1372 8.29797 13.771 7.68301 14.0305C7.38288 14.1572 7.01928 14.1666 5.99984 14.1666C4.98039 14.1666 4.61679 14.1572 4.31666 14.0305C3.7017 13.771 3.12981 13.1372 2.78588 12.2011C2.60754 11.7157 2.51884 11.0992 2.32516 9.70741L2.15027 8.45073C2.00218 7.38667 1.89161 6.59133 1.83093 5.95269Z" fill="#E63946"/>
<path d="M5.1665 6.66665C5.1665 6.3905 4.94265 6.16665 4.6665 6.16665C4.39036 6.16665 4.1665 6.3905 4.1665 6.66665V12C4.1665 12.2761 4.39036 12.5 4.6665 12.5C4.94265 12.5 5.1665 12.2761 5.1665 12V6.66665Z" fill="#E63946"/>
<path d="M7.83317 6.66665C7.83317 6.3905 7.60931 6.16665 7.33317 6.16665C7.05703 6.16665 6.83317 6.3905 6.83317 6.66665V12C6.83317 12.2761 7.05703 12.5 7.33317 12.5C7.60931 12.5 7.83317 12.2761 7.83317 12V6.66665Z" fill="#E63946"/>
</svg>
