<svg width="16" height="15" viewBox="0 0 16 15" fill="none" xmlns="http://www.w3.org/2000/svg">
<path d="M8.50019 4.66683C8.50019 4.39069 8.27633 4.16683 8.00019 4.16683C7.72405 4.16683 7.50019 4.39069 7.50019 4.66683V8.66683C7.50019 8.94297 7.72405 9.16683 8.00019 9.16683C8.27633 9.16683 8.50019 8.94297 8.50019 8.66683V4.66683Z" fill="#E63946"/>
<path fill-rule="evenodd" clip-rule="evenodd" d="M9.55935 1.1649C8.56687 0.723027 7.43351 0.723027 6.44103 1.1649C5.82048 1.44119 5.31937 1.97067 4.80189 2.70311C4.28604 3.43325 3.70834 4.43386 2.96201 5.72654L2.93474 5.77378C2.18841 7.06646 1.6107 8.06707 1.23631 8.87888C0.860733 9.69326 0.652749 10.392 0.723753 11.0675C0.837313 12.148 1.40399 13.1295 2.28291 13.7681C2.83245 14.1673 3.54155 14.3366 4.43461 14.4185C5.32484 14.5002 6.48024 14.5002 7.97287 14.5002H8.02747C9.52011 14.5002 10.6755 14.5002 11.5658 14.4185C12.4588 14.3366 13.1679 14.1673 13.7175 13.7681C14.5964 13.1295 15.1631 12.148 15.2766 11.0675C15.3476 10.392 15.1396 9.69326 14.7641 8.87888C14.3897 8.06707 13.812 7.06644 13.0656 5.77375L13.0383 5.72649C12.292 4.43383 11.7143 3.43324 11.1985 2.70311C10.681 1.97067 10.1799 1.44119 9.55935 1.1649ZM6.84777 2.07845C7.58134 1.75184 8.41904 1.75184 9.15261 2.07845C9.52149 2.24269 9.89403 2.5898 10.3818 3.28014C10.868 3.96835 11.4232 4.92897 12.186 6.25016C12.9488 7.57135 13.5031 8.53248 13.856 9.29767C14.21 10.0652 14.3243 10.5614 14.2821 10.963C14.1982 11.7616 13.7793 12.4871 13.1297 12.959C12.803 13.1964 12.3161 13.3455 11.4744 13.4227C10.6353 13.4997 9.52577 13.5002 8.00019 13.5002C6.47461 13.5002 5.36509 13.4997 4.52596 13.4227C3.68425 13.3455 3.19737 13.1964 2.87069 12.959C2.22106 12.4871 1.80221 11.7616 1.71827 10.963C1.67607 10.5614 1.79041 10.0652 2.14439 9.29767C2.49728 8.53248 3.05161 7.57135 3.8144 6.25016C4.57719 4.92897 5.13239 3.96835 5.61862 3.28014C6.10635 2.5898 6.47889 2.24269 6.84777 2.07845Z" fill="#E63946"/>
<path d="M8.66688 10.6668C8.66688 11.035 8.36841 11.3335 8.00022 11.3335C7.63203 11.3335 7.33355 11.035 7.33355 10.6668C7.33355 10.2986 7.63203 10.0002 8.00022 10.0002C8.36841 10.0002 8.66688 10.2986 8.66688 10.6668Z" fill="#E63946"/>
</svg>
