<?xml version="1.0" encoding="UTF-8"?><svg id="Layer_1" xmlns="http://www.w3.org/2000/svg" viewBox="0 0 169.9 69.18"><g id="rG82KK.tif"><g><path d="m113.01,43.07c-1.42.06-2.78-.16-4.02-.86-1.41-.79-2.18-1.96-2.22-3.6,0-.44.12-.66.59-.64.61.02,1.21,0,1.82,0,.29,0,.48.09.49.43.06,1.19.8,1.79,1.86,2.02,1.16.25,2.33.26,3.48-.1.93-.29,1.34-1,1.15-1.89-.14-.65-.67-.94-1.2-1.19-.73-.35-1.51-.52-2.28-.75-1.33-.39-2.69-.69-3.87-1.48-2.42-1.62-2.28-5.17.33-6.46,2.4-1.18,4.91-1.2,7.37-.14,1.39.6,2.1,1.75,2.29,3.24.06.51-.09.79-.66.74-.31-.03-.63-.02-.94,0-.7.03-1.35.1-1.44-.92-.05-.49-.57-.78-1.03-.96-1.26-.49-2.53-.41-3.78.03-.51.18-.87.56-.9,1.12-.02.56.3.95.77,1.22,1.13.63,2.39.83,3.6,1.21,1.02.32,2.06.6,2.98,1.2,1.31.85,1.86,2.07,1.74,3.59-.12,1.58-.86,2.78-2.32,3.47-1.21.57-2.49.78-3.81.71Z"/><path d="m52.57,35.36c0-2.25.01-4.49-.01-6.74,0-.54.18-.73.71-.71,2.42.05,4.85-.06,7.27.08,2.2.12,3.72,1.37,4.14,3.53.29,1.48.16,2.93-.71,4.22-.83,1.23-2.07,1.77-3.51,1.82-1.46.05-2.93.03-4.4,0-.46,0-.62.14-.61.6.02,1.35,0,2.69.02,4.04,0,.49-.17.66-.65.64-.53-.03-1.06-.03-1.58,0-.53.03-.67-.19-.67-.69.02-2.26,0-4.53,0-6.79Zm5.43-.32c.64,0,1.29.01,1.93,0,.92-.02,1.55-.49,1.81-1.38.19-.65.19-1.31-.05-1.95-.27-.73-.82-1.16-1.59-1.18-1.38-.04-2.77-.02-4.16-.03-.35,0-.49.14-.49.49,0,1.19.01,2.38,0,3.57,0,.35.15.49.49.48.68-.01,1.37,0,2.05,0Z"/><path d="m87.22,35.97c.77-.92,1.64-1.74,2.24-2.72.97-1.56,2.27-2.18,4.05-1.85.17.03.4-.07.49.1.11.21-.12.35-.24.49-.95,1.12-1.88,2.25-2.86,3.34-.37.41-.37.72-.1,1.18,1.12,1.9,2.19,3.83,3.28,5.75.3.54.28.58-.33.58-.59,0-1.18-.04-1.76.01-.54.04-.82-.19-1.05-.64-.64-1.27-1.34-2.52-1.97-3.8-.24-.49-.39-.39-.74-.11-.87.68-1.3,1.5-1.13,2.62.07.46,0,.94.01,1.4,0,.33-.12.51-.48.51-.61-.01-1.21,0-1.82,0-.33,0-.46-.17-.45-.47,0-.12,0-.23,0-.35,0-4.67,0-9.33,0-14,0-.84,0-.84.85-.84.41,0,.82.03,1.23,0,.51-.04.68.16.68.67-.02,2.48,0,4.96,0,7.44,0,.21-.05.42.08.69Z"/><path d="m127.9,41.58c-1.29,1.44-2.9,1.69-4.64,1.4-1.29-.21-2.23-.9-2.47-2.23-.27-1.47-.02-2.81,1.31-3.74.99-.69,2.15-.9,3.32-1.04.58-.07,1.17-.1,1.75-.12.34,0,.5-.12.5-.48,0-.69.05-1.43-.69-1.8-.86-.42-1.75-.34-2.59.1-.27.14-.4.42-.43.73-.03.34-.21.47-.54.46-.55-.02-1.09-.02-1.64,0-.47.02-.57-.24-.54-.63.09-1.18.7-2.02,1.75-2.51,1.69-.78,3.45-.81,5.2-.23,1.48.49,2.2,1.65,2.22,3.36.02,1.66,0,3.32,0,4.97,0,.79.08.9.85.94.43.02.6.2.57.61,0,.08,0,.16,0,.23,0,1.2-.18,1.38-1.41,1.44-1.14.06-2.02-.33-2.52-1.49Zm-2.82-.79c1.57,0,2.6-.99,2.58-2.48,0-.37-.12-.54-.51-.52-.84.06-1.67.11-2.48.37-.04.01-.07.03-.11.04-.8.32-1.18.93-1.04,1.69.11.61.62.9,1.56.9Z"/><path d="m104.39,37.16c0,.9-.01,1.8,0,2.69.01.71.18.9.9.93.43.02.57.21.58.62.06,1.39-.18,1.64-1.6,1.67-.96.02-1.73-.29-2.17-1.19-.16-.33-.28-.22-.46-.04-1.48,1.44-3.24,1.49-5.07.93-1.02-.31-1.59-1.08-1.77-2.13-.34-2.04.52-3.51,2.48-4.2,1.23-.43,2.52-.56,3.81-.57.53,0,.7-.19.64-.69-.08-.66-.06-1.39-.84-1.66-.86-.3-1.73-.3-2.53.22-.2.13-.37.34-.38.57-.02.52-.33.58-.75.56-.47-.02-.94-.02-1.41,0-.41.02-.56-.17-.55-.56.03-1.18.61-2.02,1.63-2.51,1.76-.85,3.59-.88,5.41-.24,1.32.46,2.04,1.58,2.06,2.97,0,.88,0,1.76,0,2.63h0Zm-5.25,3.63c1.57,0,2.59-1.03,2.58-2.57,0-.25-.06-.43-.35-.42-1.01.04-2.04.06-2.98.51-.42.2-.75.49-.82.99-.15,1,.37,1.5,1.57,1.49Z"/><path d="m145.54,37.87c-.96,0-1.92,0-2.87,0-.91,0-.91,0-.75.88.33,1.75,1.58,2.51,3.33,2.05.79-.21,1.27-.7,1.4-1.48.08-.46.29-.57.71-.56.51.02,1.02.02,1.52,0,.41-.01.57.16.52.56-.17,1.22-.62,2.29-1.73,2.91-2.1,1.18-4.28,1.2-6.39.11-1.49-.77-1.99-2.26-2.17-3.82-.15-1.32-.15-2.65.21-3.95.58-2.08,2.15-3.31,4.38-3.42.6-.03,1.21-.06,1.81.04,2.25.39,3.54,1.81,3.8,4.2.07.6.13,1.2.13,1.81,0,.48-.2.66-.67.65-1.07-.01-2.15,0-3.23,0Zm-1.39-2.03c.64,0,1.29,0,1.93,0,.25,0,.5-.03.46-.36-.07-.69-.24-1.35-.86-1.78-1.42-.97-3.55.01-3.76,1.72-.04.36.09.44.41.43.6-.02,1.21,0,1.81,0Z"/><path d="m65.83,37.08c-.04-.64.02-1.3.15-1.95.46-2.36,2.12-3.81,4.57-3.95.66-.04,1.33-.07,1.99.03,2.64.42,3.93,1.71,4.34,4.39.2,1.28.16,2.56-.16,3.83-.53,2.13-2.03,3.44-4.22,3.61-.87.07-1.75.1-2.63-.07-2.26-.43-3.58-1.79-3.93-4.06-.09-.6-.14-1.2-.11-1.83Zm8.33.02c.03-.6-.03-1.25-.22-1.89-.36-1.21-1.13-1.75-2.5-1.76-1.47,0-2.26.51-2.61,1.76-.27.97-.27,1.95-.17,2.95.24,2.33,1.49,2.78,3.34,2.6.82-.08,1.43-.49,1.77-1.25.33-.75.41-1.54.39-2.41Z"/><path d="m136.41,38.23c0,1.23,0,2.46,0,3.69q0,.92-.95.92c-.27,0-.55,0-.82,0q-.98,0-.98-.95c0-2.46,0-4.92,0-7.38q0-.81-.81-.81c-.78,0-.81-.04-.82-.84,0-.12,0-.23,0-.35,0-1.06,0-1.08,1.08-1.1.41,0,.56-.15.55-.55,0-.51-.02-1.01.07-1.52.28-1.58,1.3-2.42,2.91-2.36.12,0,.23.02.35.04,1.51.22,1.52.24,1.42,1.76-.02.35-.15.5-.5.48-.16,0-.31,0-.47,0-.78.05-1.03.31-1.04,1.1,0,.2,0,.39,0,.59-.01.32.13.46.45.45.37,0,.74,0,1.11,0,.29,0,.43.14.43.43,0,.04,0,.08,0,.12-.03.52.19,1.14-.09,1.55-.31.45-.95.15-1.44.18-.41.02-.48.23-.48.57,0,1.33,0,2.66,0,3.98Z"/><path d="m81.75,35.04c0,2.3,0,4.61,0,6.91q0,.88-.91.88c-.43,0-.86,0-1.29,0-.32,0-.47-.13-.46-.45,0-.27,0-.55,0-.82,0-4.49,0-8.98,0-13.47q0-.91.94-.91c.35,0,.71.02,1.06,0,.51-.04.68.15.68.66-.02,2.4,0,4.8,0,7.2Z"/></g></g><g><path d="m35.46,29.37c-1.93,0-3.71,0-5.48,0-.49,0-.97.04-1.44.2-1.2.41-1.91,1.35-1.98,2.63-.06,1.17.62,2.25,1.74,2.74.54.24,1.12.35,1.71.35,1.88,0,3.75,0,5.63,0,1.01,0,1.55.42,1.73,1.25.19.9-.28,1.63-1.18,1.85-.54.13-1.09.1-1.63.1-1.82-.01-3.63.04-5.45-.06-2.77-.16-5.2-2.45-5.6-5.2-.49-3.3,1.84-7.05,6.23-7.05,2.6,0,5.2,0,7.8,0,.33,0,.66,0,1,0,.74-.03.98-.26.98-1,0-1.11-.01-2.22-.01-3.34,0-.75.05-.79.8-.8.59,0,1.17,0,1.76,0,.36,0,.53.15.53.53,0,2.4,0,4.8,0,7.2,0,.42-.23.5-.59.53-2.23.18-4.45.01-6.53.09Z"/><path d="m30.08,39.86c1.88,0,3.75,0,5.63,0,.47,0,.94-.05,1.4-.14,1.54-.3,2.43-1.48,2.37-3.08-.06-1.35-1.17-2.48-2.66-2.67-.6-.08-1.2-.12-1.81-.12-1.58.01-3.17.01-4.75,0-1.02-.01-1.56-.55-1.57-1.49-.01-.97.54-1.6,1.54-1.61,2.29-.03,4.58-.09,6.86.02,2.86.14,5.38,2.78,5.51,5.62.16,3.27-1.85,5.94-4.88,6.49-.41.07-.81.1-1.22.11-2.81.09-5.63.07-8.44,0-1.28-.03-1.58.26-1.53,1.53.04.99,0,1.99,0,2.98,0,.47-.14.68-.63.66-.64-.03-1.29-.02-1.94,0-.36,0-.55-.13-.55-.51,0-2.42,0-4.84,0-7.26,0-.49.33-.5.68-.5,1.99,0,3.99,0,5.98,0,0,0,0,0,0-.01Z"/></g></svg>