<svg id="Layer_1" data-name="Layer 1" xmlns="http://www.w3.org/2000/svg" viewBox="0 0 14.33 14.33"><defs><style>.cls-1{fill:#1573fe;fill-rule:evenodd;}</style></defs><title>Queuenew-blue</title><path class="cls-1" d="M8.17,1.89a10.27,10.27,0,0,0-1.48-.06,24.51,24.51,0,0,0-2.88.1,2.17,2.17,0,0,0-1.34.54,2.17,2.17,0,0,0-.54,1.34,22.13,22.13,0,0,0-.1,2.86V9.33a22.05,22.05,0,0,0,.1,2.86,2.17,2.17,0,0,0,.54,1.34,2.17,2.17,0,0,0,1.34.54,22.13,22.13,0,0,0,2.86.1H9.33a22.13,22.13,0,0,0,2.86-.1,2.17,2.17,0,0,0,1.34-.54,2.17,2.17,0,0,0,.54-1.34,22.05,22.05,0,0,0,.1-2.86V9a7.21,7.21,0,0,0-.12-1.87H12A14.34,14.34,0,0,1,10.1,7.1a2.12,2.12,0,0,1-1.3-.57,2.15,2.15,0,0,1-.57-1.3,16.63,16.63,0,0,1-.06-1.86Zm1,.52v.92A16.78,16.78,0,0,0,9.22,5.1a1.22,1.22,0,0,0,.29.73,1.17,1.17,0,0,0,.73.28A13.74,13.74,0,0,0,12,6.17h1.35l-.78-.72L9.93,3.07ZM6.78.83A5.79,5.79,0,0,1,8.85,1a5.63,5.63,0,0,1,1.67,1.23l.08.06,2.64,2.38.08.07a5.67,5.67,0,0,1,1.57,1.79,5.65,5.65,0,0,1,.28,2.36v.44a22.67,22.67,0,0,1-.11,3,3.1,3.1,0,0,1-.82,1.91,3.16,3.16,0,0,1-1.91.83,24.92,24.92,0,0,1-3,.1H6.63a24.92,24.92,0,0,1-3-.1,3.16,3.16,0,0,1-1.91-.83,3.1,3.1,0,0,1-.82-1.91,22.67,22.67,0,0,1-.11-3V6.63a22.67,22.67,0,0,1,.11-3,3.1,3.1,0,0,1,.82-1.91A3.1,3.1,0,0,1,3.68.94a22.83,22.83,0,0,1,3-.11h.13Z" transform="translate(-0.83 -0.83)"/><path class="cls-1" d="M6,8.64a.51.51,0,0,0-.69,0L4,9.89a.49.49,0,0,0,0,.7.51.51,0,0,0,.71,0l.49-.47v2.18a.5.5,0,0,0,.5.5.5.5,0,0,0,.5-.5V10.15l.49.47a.5.5,0,0,0,.7,0,.49.49,0,0,0,0-.7Z" transform="translate(-0.83 -0.83)"/></svg>